<!DOCTYPE svg PUBLIC "-//W3C//DTD SVG 20010904//EN" "http://www.w3.org/TR/2001/REC-SVG-20010904/DTD/svg10.dtd">
<svg version="1.0" xmlns="http://www.w3.org/2000/svg" width="1200px" height="675px" viewBox="0 0 12000 6750" preserveAspectRatio="xMidYMid meet">
<g id="layer101" fill="#1c1c1c" stroke="none">
<path d="M5534 6365 c-567 -57 -1092 -284 -1533 -664 -256 -220 -503 -538 -655 -839 -136 -270 -246 -630 -276 -897 -62 -568 26 -1094 263 -1575 267 -541 719 -994 1252 -1255 297 -146 522 -215 860 -265 431 -63 903 -11 1335 147 256 94 605 296 800 463 237 203 437 432 586 673 67 107 160 286 194 372 13 33 27 65 30 70 10 13 84 242 104 321 68 266 90 466 83 767 -5 238 -15 318 -61 532 -163 745 -643 1400 -1311 1790 -503 293 -1082 418 -1671 360z"/>
</g>
<g id="layer102" fill="#27191c" stroke="none">
<path d="M5534 6365 c-567 -57 -1092 -284 -1533 -664 -256 -220 -503 -538 -655 -839 -136 -270 -246 -630 -276 -897 -62 -568 26 -1094 263 -1575 267 -541 719 -994 1252 -1255 297 -146 522 -215 860 -265 431 -63 903 -11 1335 147 256 94 605 296 800 463 237 203 437 432 586 673 67 107 160 286 194 372 13 33 27 65 30 70 10 13 84 242 104 321 68 266 90 466 83 767 -5 238 -15 318 -61 532 -163 745 -643 1400 -1311 1790 -503 293 -1082 418 -1671 360z m179 -2232 c-24 -2 -62 -2 -85 0 -24 2 -5 4 42 4 47 0 66 -2 43 -4z m1860 0 c-24 -2 -62 -2 -85 0 -24 2 -5 4 42 4 47 0 66 -2 43 -4z m-2553 -73 c7 -13 5 -24 -9 -42 -23 -28 -28 -24 -37 29 -6 39 -5 41 15 36 12 -3 26 -14 31 -23z m2736 -236 c-9 -42 -16 -89 -16 -105 0 -20 -5 -29 -16 -29 -12 0 -14 5 -8 18 4 9 17 64 28 121 12 57 22 97 24 88 2 -10 -4 -51 -12 -93z m-2576 -115 c0 -6 7 -8 15 -5 11 4 19 -3 25 -22 6 -15 15 -35 20 -44 7 -13 7 -18 -2 -19 -10 0 -10 -2 0 -6 6 -2 12 -11 12 -19 0 -8 6 -17 13 -20 22 -8 9 -76 -19 -97 -22 -16 -26 -16 -51 -3 -16 8 -22 15 -15 16 29 0 -33 80 -63 80 -8 0 -14 3 -14 8 4 21 -3 35 -27 57 l-26 24 59 30 c65 34 73 36 73 20z m1230 -46 c-1 -16 -27 -42 -35 -35 -5 4 -5 -1 -2 -11 4 -10 3 -16 -2 -13 -5 3 -11 -1 -15 -9 -3 -8 -12 -15 -21 -15 -8 0 -15 -9 -15 -20 0 -11 6 -20 14 -20 27 0 25 -16 -2 -18 -15 -1 -33 -11 -41 -22 -7 -11 -24 -20 -37 -20 -22 0 -24 4 -24 53 0 59 32 117 73 129 31 9 107 9 107 1z m838 -20 c31 -45 32 -60 9 -79 -12 -11 -19 -15 -14 -10 9 12 -22 48 -35 40 -20 -13 -55 7 -71 41 l-17 35 54 0 c48 0 57 -3 74 -27z m-2928 -38 c0 -8 -7 -15 -16 -15 -14 0 -14 3 -4 15 7 8 14 15 16 15 2 0 4 -7 4 -15z m2993 -36 c3 -12 10 -18 16 -14 16 9 14 -10 -2 -24 -18 -14 -37 5 -37 36 0 29 16 30 23 2z m-3388 -228 c8 -20 3 -22 -33 -15 -20 4 -29 11 -25 20 6 18 51 14 58 -5z m77 -1 c10 0 18 -7 18 -14 0 -12 -6 -13 -30 -5 -16 6 -30 18 -30 27 0 12 3 13 12 4 7 -7 20 -12 30 -12z m3718 5 c0 -16 -41 -30 -62 -22 -8 4 -5 8 10 12 12 4 22 11 22 16 0 5 7 9 15 9 8 0 15 -7 15 -15z m-3974 -69 c-15 -57 -25 -65 -51 -36 -17 18 -17 21 -1 45 9 14 23 25 31 25 8 0 15 8 15 17 0 11 3 13 9 8 6 -6 5 -29 -3 -59z m3861 38 c-10 -7 -57 -13 -57 -7 0 14 44 30 52 19 4 -6 6 -11 5 -12z m-3697 -14 c0 -20 -82 -26 -98 -7 -9 10 0 13 43 14 30 1 55 -2 55 -7z m220 -6 c0 -18 -30 -18 -54 -1 -16 12 -14 13 18 14 25 1 36 -3 36 -13z m3389 -9 c-1 -6 -15 -15 -30 -22 -24 -10 -29 -10 -29 3 0 8 10 19 23 24 26 10 39 8 36 -5z m-3402 -41 c-6 -6 -47 9 -47 17 0 5 11 3 25 -3 14 -6 24 -13 22 -14z m3408 -4 c-10 -16 -67 -43 -98 -47 -36 -4 -26 13 12 20 16 4 35 13 43 21 14 17 53 22 43 6z m-147 -47 c-1 -5 4 -26 10 -48 16 -55 16 -56 -18 -53 -29 2 -31 5 -28 38 2 20 8 34 14 33 7 -1 10 6 7 17 -3 11 0 20 6 20 6 0 10 -3 9 -7z m-3434 -158 c21 -33 20 -36 -9 -29 -23 6 -24 4 -23 -31 1 -24 8 -41 22 -50 29 -21 12 -30 -18 -10 -36 24 -42 56 -19 104 10 22 21 41 24 41 4 0 14 -11 23 -25z m3736 -2 c33 -16 34 -16 10 -25 -14 -5 -26 -11 -28 -13 -7 -7 42 -65 55 -65 7 0 13 -4 13 -10 0 -5 -5 -10 -10 -10 -16 0 -70 29 -70 38 -1 4 -2 28 -4 55 -2 26 -3 47 -1 47 1 0 17 -7 35 -17z m-2116 -105 c9 -17 16 -37 16 -44 0 -20 41 -44 77 -44 27 0 36 6 53 38 11 20 18 28 16 17 -3 -11 -8 -31 -11 -45 -11 -45 9 -76 54 -87 44 -12 51 -9 51 19 0 22 32 24 50 3 12 -14 15 -13 34 4 37 35 69 41 89 18 9 -11 17 -26 17 -34 0 -16 5 -16 32 -2 16 9 19 8 16 -3 -2 -7 -19 -17 -36 -23 -57 -16 -34 -27 51 -23 113 5 137 20 137 88 0 48 1 50 20 38 40 -25 67 -118 35 -118 -9 0 -18 -6 -21 -13 -3 -8 -17 -12 -37 -10 -18 1 -97 4 -177 6 -130 4 -254 21 -345 48 -18 5 -56 4 -95 -1 -188 -28 -288 -31 -275 -9 7 10 -27 29 -53 29 -11 0 -25 7 -32 15 -10 12 -8 16 11 23 16 6 27 4 41 -10 22 -22 48 -24 48 -3 0 23 46 38 73 24 16 -9 22 -9 25 0 7 21 38 11 60 -19 13 -16 26 -30 30 -30 34 1 50 65 33 139 -11 49 -8 52 13 9z m-474 -79 c0 -24 -4 -38 -10 -34 -6 4 -5 -4 1 -19 13 -27 68 -51 99 -43 10 2 24 0 31 -5 9 -6 -15 -8 -70 -4 -88 6 -101 13 -101 53 0 26 30 93 42 93 4 0 8 -18 8 -41z m-16 -142 c14 -10 15 -17 7 -40 -6 -16 -11 -70 -11 -121 0 -71 -4 -97 -15 -106 -8 -7 -15 -19 -15 -26 0 -8 -4 -14 -10 -14 -5 0 -10 9 -10 20 0 15 -7 20 -25 20 -14 0 -25 5 -25 10 0 6 -11 15 -23 21 -19 8 -23 18 -23 44 1 19 5 37 9 41 4 4 7 16 7 26 0 10 7 18 15 18 8 0 15 7 15 15 0 16 34 38 44 28 12 -13 5 -43 -13 -52 -10 -6 -21 -7 -25 -4 -3 3 -6 -2 -6 -13 0 -16 -2 -17 -10 -4 -8 12 -10 11 -10 -7 0 -17 5 -21 22 -18 13 3 25 10 27 17 2 7 18 25 34 41 16 15 24 27 19 27 -15 0 -25 37 -18 66 7 27 15 29 40 11z m405 1 c17 -10 17 -13 2 -30 -22 -26 -65 -48 -95 -48 -14 0 -27 -4 -30 -9 -3 -4 -16 -6 -30 -4 -13 3 -27 0 -30 -6 -11 -18 -37 -13 -72 14 -18 14 -37 25 -43 25 -6 0 -11 7 -11 15 0 12 14 15 63 16 36 0 81 8 107 19 52 21 112 25 139 8z m423 -19 c29 -6 55 -14 58 -18 3 -4 18 -12 34 -19 24 -11 27 -15 15 -23 -18 -12 -115 -1 -156 18 -28 13 -31 18 -22 34 12 22 5 22 71 8z m465 -46 c14 9 14 -44 1 -60 -6 -8 -23 -20 -38 -28 -24 -13 -26 -12 -25 5 1 11 4 23 8 26 4 4 4 18 1 30 -4 13 -3 31 0 40 6 15 8 15 26 -1 10 -9 23 -15 27 -12z m-1191 -330 c-9 -9 -56 11 -56 24 0 12 5 11 30 -3 16 -10 28 -20 26 -21z m-58 -124 c17 -6 32 -16 35 -22 8 -23 0 -72 -12 -72 -6 0 -15 -6 -20 -13 -6 -11 -14 -8 -36 10 l-28 24 23 22 23 21 -27 12 c-53 24 -19 39 42 18z m510 -77 c12 -8 22 -21 22 -28 0 -8 8 -18 18 -21 9 -4 22 -12 27 -19 14 -18 55 1 55 25 0 14 5 18 20 14 20 -5 26 -29 12 -49 -4 -5 -27 -20 -51 -33 -35 -18 -54 -21 -88 -16 -24 3 -47 4 -52 1 -5 -4 0 -32 13 -64 24 -62 22 -91 -10 -103 -18 -7 -18 -7 0 -14 11 -5 21 -3 25 4 6 9 20 6 57 -9 75 -32 82 -60 16 -60 -20 0 -45 7 -55 15 -11 7 -24 12 -31 9 -13 -5 -56 39 -56 56 0 6 -11 15 -25 20 -26 10 -36 50 -12 50 7 0 5 5 -5 10 -9 6 -27 27 -39 48 -12 20 -30 46 -39 57 -10 11 -30 42 -45 69 -27 47 -27 48 -6 37 12 -7 36 -32 54 -57 17 -24 37 -44 44 -44 7 0 13 -10 13 -22 0 -13 4 -29 9 -37 14 -22 44 54 45 114 1 28 5 56 10 63 9 14 37 8 74 -16z m300 -294 c-7 -21 -52 -47 -93 -53 l-40 -5 49 24 c26 13 53 29 59 35 15 15 30 14 25 -1z"/>
<path d="M5168 3651 c-14 -13 -15 -20 -6 -29 20 -20 38 -14 38 12 0 32 -11 38 -32 17z"/>
</g>
<g id="layer103" fill="#582431" stroke="none">
<path d="M5534 6365 c-567 -57 -1092 -284 -1533 -664 -256 -220 -503 -538 -655 -839 -136 -270 -246 -630 -276 -897 -62 -568 26 -1094 263 -1575 267 -541 719 -994 1252 -1255 297 -146 522 -215 860 -265 431 -63 903 -11 1335 147 256 94 605 296 800 463 237 203 437 432 586 673 67 107 160 286 194 372 13 33 27 65 30 70 10 13 84 242 104 321 68 266 90 466 83 767 -5 238 -15 318 -61 532 -163 745 -643 1400 -1311 1790 -503 293 -1082 418 -1671 360z m179 -2232 c-24 -2 -62 -2 -85 0 -24 2 -5 4 42 4 47 0 66 -2 43 -4z m1860 0 c-24 -2 -62 -2 -85 0 -24 2 -5 4 42 4 47 0 66 -2 43 -4z m-2553 -73 c7 -13 5 -24 -9 -42 -23 -28 -28 -24 -37 29 -6 39 -5 41 15 36 12 -3 26 -14 31 -23z m2744 -192 c-8 -40 -18 -99 -23 -131 -8 -58 -16 -76 -28 -64 -3 4 1 29 10 56 9 27 21 86 28 130 7 45 16 81 20 81 3 0 0 -33 -7 -72z m-2584 -159 c0 -6 7 -8 15 -5 11 4 19 -3 25 -22 6 -15 15 -35 20 -44 7 -13 7 -18 -2 -19 -10 0 -10 -2 0 -6 6 -2 12 -11 12 -19 0 -8 6 -17 13 -20 21 -8 9 -76 -18 -97 -20 -14 -28 -15 -49 -6 -14 7 -28 20 -31 29 -3 10 -27 39 -54 65 -26 26 -56 60 -65 76 -17 29 -17 29 6 29 13 1 43 12 68 25 51 27 60 29 60 14z m1215 -75 c-14 -20 -25 -49 -25 -65 0 -31 -34 -69 -61 -69 -10 0 -21 -4 -24 -10 -3 -5 -17 -10 -31 -10 -22 0 -24 3 -24 53 0 41 6 61 25 88 29 38 49 47 117 48 l47 1 -24 -36z m889 -27 c55 -55 62 -66 51 -81 -12 -16 -20 -13 -98 31 -62 35 -89 57 -101 81 l-16 32 50 0 c48 0 52 -3 114 -63z m-3396 42 c-2 -6 -8 -10 -13 -10 -5 0 -11 4 -13 10 -2 6 4 11 13 11 9 0 15 -5 13 -11z m507 1 c-3 -5 -14 -10 -23 -10 -10 0 -25 -13 -35 -29 -15 -25 -57 -50 -57 -33 0 16 78 81 98 81 13 1 20 -3 17 -9z m-470 -309 c8 -20 3 -22 -33 -15 -20 4 -29 11 -25 20 6 18 51 14 58 -5z m77 -1 c10 0 18 -7 18 -14 0 -12 -6 -13 -30 -5 -16 6 -30 18 -30 27 0 12 3 13 12 4 7 -7 20 -12 30 -12z m3718 5 c0 -16 -41 -30 -62 -22 -8 4 -5 8 10 12 12 4 22 11 22 16 0 5 7 9 15 9 8 0 15 -7 15 -15z m-3974 -69 c-15 -57 -25 -65 -51 -36 -17 18 -17 21 -1 45 9 14 23 25 31 25 8 0 15 8 15 17 0 11 3 13 9 8 6 -6 5 -29 -3 -59z m3861 38 c-10 -7 -57 -13 -57 -7 0 14 44 30 52 19 4 -6 6 -11 5 -12z m-3697 -14 c0 -20 -82 -26 -98 -7 -9 10 0 13 43 14 30 1 55 -2 55 -7z m220 -6 c0 -18 -30 -18 -54 -1 -16 12 -14 13 18 14 25 1 36 -3 36 -13z m3389 -9 c-1 -6 -15 -15 -30 -22 -24 -10 -29 -10 -29 3 0 8 10 19 23 24 26 10 39 8 36 -5z m-3402 -41 c-6 -6 -47 9 -47 17 0 5 11 3 25 -3 14 -6 24 -13 22 -14z m3413 1 c0 -11 -77 -51 -103 -53 -36 -2 -27 14 12 21 16 4 35 13 43 21 12 14 48 22 48 11z m-147 -74 c3 -16 9 -41 13 -55 6 -25 4 -26 -25 -24 -26 2 -31 6 -31 28 0 27 21 80 31 80 4 0 9 -13 12 -29z m-3439 -136 c21 -33 20 -36 -9 -29 -23 6 -24 4 -23 -31 1 -24 8 -41 22 -50 29 -21 12 -30 -18 -10 -36 24 -42 56 -19 104 10 22 21 41 24 41 4 0 14 -11 23 -25z m3736 -2 c33 -16 34 -16 10 -25 -34 -13 -34 -13 -9 -47 15 -20 32 -31 48 -31 24 -1 24 -2 7 -12 -14 -8 -27 -7 -52 6 -19 8 -34 19 -34 23 -1 5 -2 29 -4 56 -2 26 -3 47 -1 47 1 0 17 -7 35 -17z m-200 -54 c0 -5 -7 -9 -15 -9 -15 0 -20 12 -9 23 8 8 24 -1 24 -14z m-1916 -51 c9 -17 16 -37 16 -44 0 -20 41 -44 77 -44 27 0 36 6 53 38 11 20 18 28 16 17 -3 -11 -8 -31 -11 -45 -11 -45 9 -76 54 -87 44 -12 51 -9 51 19 0 22 32 24 50 3 12 -14 15 -13 34 4 37 35 69 41 89 18 9 -11 17 -26 17 -34 0 -16 5 -16 32 -2 16 9 19 8 16 -3 -2 -7 -19 -17 -36 -23 -57 -16 -34 -27 51 -23 113 5 137 20 137 88 0 48 1 50 20 38 40 -25 67 -118 35 -118 -9 0 -18 -6 -21 -13 -3 -8 -17 -12 -37 -10 -18 1 -97 4 -177 6 -130 4 -254 21 -345 48 -18 5 -56 4 -95 -1 -188 -28 -288 -31 -275 -9 7 10 -27 29 -53 29 -11 0 -25 7 -32 15 -10 12 -8 16 11 23 16 6 27 4 41 -10 22 -22 48 -24 48 -3 0 23 46 38 73 24 16 -9 22 -9 25 0 7 21 38 11 60 -19 13 -16 26 -30 30 -30 34 1 50 65 33 139 -11 49 -8 52 13 9z m-474 -80 c-2 -29 -2 -58 -1 -65 1 -15 66 -37 91 -30 10 2 24 0 31 -5 9 -6 -15 -8 -70 -4 -88 6 -101 13 -101 54 0 23 36 102 46 102 3 0 5 -24 4 -52z m-16 -141 c14 -10 15 -17 7 -40 -6 -16 -11 -70 -11 -121 0 -71 -4 -97 -15 -106 -8 -7 -15 -19 -15 -26 0 -8 -4 -14 -10 -14 -5 0 -10 9 -10 20 0 15 -7 20 -25 20 -14 0 -25 5 -25 10 0 6 -11 16 -25 22 -19 9 -25 19 -25 44 0 18 4 35 9 38 4 3 11 19 14 35 5 22 16 34 46 47 23 11 41 26 41 36 0 22 11 48 19 48 4 0 15 -6 25 -13z m405 1 c17 -10 17 -13 2 -30 -22 -26 -65 -48 -95 -48 -14 0 -27 -4 -30 -9 -3 -4 -16 -6 -30 -4 -13 3 -27 0 -30 -6 -11 -18 -37 -13 -72 14 -18 14 -37 25 -43 25 -6 0 -11 7 -11 15 0 12 14 15 63 16 36 0 81 8 107 19 52 21 112 25 139 8z m423 -19 c29 -6 55 -14 58 -18 3 -4 18 -12 34 -19 24 -11 27 -15 15 -23 -18 -12 -115 -1 -156 18 -28 13 -31 18 -22 34 12 22 5 22 71 8z m465 -46 c14 9 14 -44 1 -60 -6 -8 -23 -20 -38 -28 -24 -13 -26 -12 -25 5 1 11 4 23 8 26 4 4 4 18 1 30 -4 13 -3 31 0 40 6 15 8 15 26 -1 10 -9 23 -15 27 -12z m-1191 -330 c-9 -9 -56 11 -56 24 0 12 5 11 30 -3 16 -10 28 -20 26 -21z m-58 -124 c17 -6 32 -16 35 -22 8 -23 0 -72 -12 -72 -6 0 -15 -6 -20 -13 -6 -11 -14 -8 -36 10 l-28 24 23 22 23 21 -27 12 c-53 24 -19 39 42 18z m510 -77 c12 -8 22 -21 22 -28 0 -8 8 -18 18 -21 9 -4 22 -12 27 -19 14 -18 55 1 55 25 0 14 5 18 20 14 20 -5 26 -29 12 -49 -4 -5 -27 -20 -51 -33 -35 -18 -54 -21 -88 -16 -24 3 -47 4 -52 1 -5 -3 0 -30 11 -58 12 -29 20 -65 19 -79 -1 -23 6 -29 53 -49 51 -20 72 -40 59 -54 -10 -10 -81 -7 -88 4 -3 6 -19 10 -35 10 -19 0 -31 6 -35 19 -3 11 -12 22 -20 25 -8 3 -15 12 -15 20 0 7 -9 16 -20 19 -22 6 -28 47 -7 47 7 0 5 5 -5 10 -9 6 -27 27 -39 48 -12 20 -30 46 -39 57 -10 11 -30 42 -45 69 -27 47 -27 48 -6 37 12 -7 36 -32 54 -57 17 -24 37 -44 44 -44 7 0 13 -10 13 -22 0 -13 4 -29 9 -37 14 -22 44 54 45 114 1 28 5 56 10 63 9 14 37 8 74 -16z m300 -294 c-7 -21 -52 -47 -93 -53 l-40 -5 49 24 c26 13 53 29 59 35 15 15 30 14 25 -1z"/>
</g>
<g id="layer104" fill="#484848" stroke="none">
<path d="M5534 6365 c-567 -57 -1092 -284 -1533 -664 -256 -220 -503 -538 -655 -839 -136 -270 -246 -630 -276 -897 -62 -568 26 -1094 263 -1575 267 -541 719 -994 1252 -1255 297 -146 522 -215 860 -265 431 -63 903 -11 1335 147 256 94 605 296 800 463 237 203 437 432 586 673 67 107 160 286 194 372 13 33 27 65 30 70 10 13 84 242 104 321 68 266 90 466 83 767 -5 238 -15 318 -61 532 -163 745 -643 1400 -1311 1790 -503 293 -1082 418 -1671 360z m179 -2232 c-24 -2 -62 -2 -85 0 -24 2 -5 4 42 4 47 0 66 -2 43 -4z m1860 0 c-24 -2 -62 -2 -85 0 -24 2 -5 4 42 4 47 0 66 -2 43 -4z m-2553 -73 c7 -13 5 -24 -9 -42 -23 -28 -28 -24 -37 29 -6 39 -5 41 15 36 12 -3 26 -14 31 -23z m2583 3 c-18 -2 -48 -2 -65 0 -18 2 -4 4 32 4 36 0 50 -2 33 -4z m171 -111 c2 -4 -4 -53 -14 -107 -10 -55 -21 -122 -25 -150 -6 -40 -9 -46 -17 -31 -7 13 -6 33 6 69 22 76 38 176 32 203 -6 23 7 34 18 16z m-2594 -243 c0 -6 7 -8 15 -5 11 4 19 -3 25 -22 6 -15 15 -35 20 -44 7 -13 7 -18 -2 -19 -10 0 -10 -2 0 -6 6 -2 12 -11 12 -19 0 -8 6 -17 13 -20 21 -8 9 -76 -18 -97 -20 -14 -28 -15 -49 -6 -14 7 -28 20 -31 29 -3 10 -27 39 -54 65 -26 26 -56 60 -65 76 -17 29 -17 29 6 29 13 1 43 12 68 25 51 27 60 29 60 14z m-760 -54 c-7 -8 -21 -15 -31 -15 -10 0 -29 -15 -41 -34 -22 -34 -68 -55 -68 -31 0 21 74 80 110 86 19 3 37 7 39 8 2 0 -2 -6 -9 -14z m1975 -21 c-14 -20 -25 -49 -25 -65 0 -31 -34 -69 -61 -69 -10 0 -21 -4 -24 -10 -3 -5 -17 -10 -31 -10 -22 0 -24 3 -24 53 0 41 6 61 25 88 29 38 49 47 117 48 l47 1 -24 -36z m889 -27 c55 -55 62 -66 51 -81 -12 -16 -20 -13 -98 31 -62 35 -89 57 -101 81 l-16 32 50 0 c48 0 52 -3 114 -63z m-3394 44 c0 -5 -7 -14 -15 -21 -8 -7 -15 -10 -15 -7 0 3 -3 12 -6 21 -4 12 0 16 15 16 12 0 21 -4 21 -9z m-125 -271 c-4 -12 -9 -19 -12 -17 -3 3 -2 15 2 27 4 12 9 19 12 17 3 -3 2 -15 -2 -27z m160 -39 c8 -20 3 -22 -33 -15 -20 4 -29 11 -25 20 6 18 51 14 58 -5z m77 -1 c10 0 18 -7 18 -14 0 -12 -6 -13 -30 -5 -16 6 -30 18 -30 27 0 12 3 13 12 4 7 -7 20 -12 30 -12z m3718 5 c0 -16 -41 -30 -62 -22 -8 4 -5 8 10 12 12 4 22 11 22 16 0 5 7 9 15 9 8 0 15 -7 15 -15z m-3974 -69 c-15 -57 -25 -65 -51 -36 -17 18 -17 21 -1 45 9 14 23 25 31 25 8 0 15 8 15 17 0 11 3 13 9 8 6 -6 5 -29 -3 -59z m3861 38 c-10 -7 -57 -13 -57 -7 0 14 44 30 52 19 4 -6 6 -11 5 -12z m-3697 -14 c0 -20 -82 -26 -98 -7 -9 10 0 13 43 14 30 1 55 -2 55 -7z m220 -6 c0 -18 -30 -18 -54 -1 -16 12 -14 13 18 14 25 1 36 -3 36 -13z m3389 -9 c-1 -6 -15 -15 -30 -22 -24 -10 -29 -10 -29 3 0 8 10 19 23 24 26 10 39 8 36 -5z m-3402 -41 c-6 -6 -47 9 -47 17 0 5 11 3 25 -3 14 -6 24 -13 22 -14z m3413 1 c0 -11 -77 -51 -103 -53 -36 -2 -27 14 12 21 16 4 35 13 43 21 12 14 48 22 48 11z m-147 -74 c3 -16 9 -41 13 -55 6 -25 4 -26 -25 -24 -26 2 -31 6 -31 28 0 27 21 80 31 80 4 0 9 -13 12 -29z m-3439 -136 c21 -33 20 -36 -9 -29 -23 6 -24 4 -23 -31 1 -24 8 -41 22 -50 29 -21 12 -30 -18 -10 -36 24 -42 56 -19 104 10 22 21 41 24 41 4 0 14 -11 23 -25z m3736 -2 c33 -16 34 -16 10 -25 -34 -13 -34 -13 -9 -47 15 -20 32 -31 48 -31 24 -1 24 -2 7 -12 -14 -8 -27 -7 -52 6 -19 8 -34 19 -34 23 -1 5 -2 29 -4 56 -2 26 -3 47 -1 47 1 0 17 -7 35 -17z m-200 -54 c0 -5 -7 -9 -15 -9 -15 0 -20 12 -9 23 8 8 24 -1 24 -14z m-1916 -51 c9 -17 16 -37 16 -44 0 -20 41 -44 77 -44 27 0 36 6 53 38 11 20 18 28 16 17 -3 -11 -8 -31 -11 -45 -11 -45 9 -76 54 -87 44 -12 51 -9 51 19 0 22 32 24 50 3 12 -14 15 -13 34 4 37 35 69 41 89 18 9 -11 17 -26 17 -34 0 -16 5 -16 32 -2 16 9 19 8 16 -3 -2 -7 -19 -17 -36 -23 -57 -16 -34 -27 51 -23 113 5 137 20 137 88 0 48 1 50 20 38 40 -25 67 -118 35 -118 -9 0 -18 -6 -21 -13 -3 -8 -17 -12 -37 -10 -18 1 -97 4 -177 6 -130 4 -254 21 -345 48 -18 5 -56 4 -95 -1 -188 -28 -288 -31 -275 -9 7 10 -27 29 -53 29 -11 0 -25 7 -32 15 -10 12 -8 16 11 23 16 6 27 4 41 -10 22 -22 48 -24 48 -3 0 23 46 38 73 24 16 -9 22 -9 25 0 7 21 38 11 60 -19 13 -16 26 -30 30 -30 34 1 50 65 33 139 -11 49 -8 52 13 9z m-463 5 c-8 -15 -16 -114 -12 -150 1 -15 66 -37 91 -30 10 2 24 0 31 -5 9 -6 -15 -8 -70 -4 -86 6 -101 13 -101 50 0 25 53 156 63 156 4 0 4 -8 -2 -17z m-27 -226 c14 -10 15 -17 7 -40 -6 -16 -11 -70 -11 -121 0 -71 -4 -97 -15 -106 -8 -7 -15 -19 -15 -26 0 -8 -4 -14 -10 -14 -5 0 -10 9 -10 20 0 15 -7 20 -25 20 -14 0 -25 5 -25 10 0 6 -11 16 -25 22 -19 9 -25 19 -25 44 0 18 4 35 9 38 4 3 11 19 14 35 5 22 16 34 46 47 23 11 41 26 41 36 0 22 11 48 19 48 4 0 15 -6 25 -13z m405 1 c17 -10 17 -13 2 -30 -22 -26 -65 -48 -95 -48 -14 0 -27 -4 -30 -9 -3 -4 -16 -6 -30 -4 -13 3 -27 0 -30 -6 -11 -18 -37 -13 -72 14 -18 14 -37 25 -43 25 -6 0 -11 7 -11 15 0 12 14 15 63 16 36 0 81 8 107 19 52 21 112 25 139 8z m423 -19 c29 -6 55 -14 58 -18 3 -4 18 -12 34 -19 24 -11 27 -15 15 -23 -18 -12 -115 -1 -156 18 -28 13 -31 18 -22 34 12 22 5 22 71 8z m465 -46 c14 9 14 -44 1 -60 -6 -8 -23 -20 -38 -28 -24 -13 -26 -12 -25 5 1 11 4 23 8 26 4 4 4 18 1 30 -4 13 -3 31 0 40 6 15 8 15 26 -1 10 -9 23 -15 27 -12z m-1191 -330 c-9 -9 -56 11 -56 24 0 12 5 11 30 -3 16 -10 28 -20 26 -21z m-58 -124 c17 -6 32 -16 35 -22 8 -23 0 -72 -12 -72 -6 0 -15 -6 -20 -13 -6 -11 -14 -8 -36 10 l-28 24 23 22 23 21 -27 12 c-53 24 -19 39 42 18z m510 -77 c12 -8 22 -21 22 -28 0 -8 8 -18 18 -21 9 -4 22 -12 27 -19 14 -18 55 1 55 25 0 14 5 18 20 14 20 -5 26 -29 12 -49 -4 -5 -27 -20 -51 -33 -35 -18 -54 -21 -88 -16 -24 3 -47 4 -52 1 -5 -3 0 -30 11 -58 12 -29 20 -65 19 -79 -1 -23 6 -29 53 -49 51 -20 72 -40 59 -54 -10 -10 -81 -7 -88 4 -3 6 -19 10 -35 10 -19 0 -31 6 -35 19 -3 11 -12 22 -20 25 -8 3 -15 12 -15 20 0 7 -9 16 -20 19 -22 6 -28 47 -7 47 7 0 5 5 -5 10 -9 6 -27 27 -39 48 -12 20 -30 46 -39 57 -10 11 -30 42 -45 69 -27 47 -27 48 -6 37 12 -7 36 -32 54 -57 17 -24 37 -44 44 -44 7 0 13 -10 13 -22 0 -13 4 -29 9 -37 14 -22 44 54 45 114 1 28 5 56 10 63 9 14 37 8 74 -16z m300 -294 c-7 -21 -52 -47 -93 -53 l-40 -5 49 24 c26 13 53 29 59 35 15 15 30 14 25 -1z"/>
</g>
<g id="layer105" fill="#694c53" stroke="none">
<path d="M5505 6090 c-11 -5 -35 -9 -52 -9 -44 -1 -194 -30 -215 -42 -10 -5 -29 -9 -43 -9 -14 0 -33 -4 -43 -9 -9 -5 -57 -21 -107 -36 -49 -15 -114 -38 -143 -51 -29 -13 -56 -24 -61 -24 -8 0 -40 -15 -113 -51 -17 -9 -159 -84 -193 -103 -53 -30 -218 -147 -223 -158 -2 -5 -8 -8 -13 -8 -8 0 -42 -26 -75 -57 -7 -7 -15 -13 -17 -13 -3 0 -23 -17 -45 -37 -22 -21 -59 -56 -83 -79 -25 -22 -69 -69 -99 -104 -30 -35 -64 -72 -75 -84 -11 -12 -48 -59 -83 -106 -34 -47 -66 -89 -70 -95 -4 -5 -19 -28 -32 -50 -13 -22 -26 -42 -29 -45 -9 -7 -27 -39 -53 -90 -13 -25 -26 -46 -30 -48 -5 -2 -8 -8 -8 -12 0 -5 -20 -51 -44 -102 -301 -640 -313 -1381 -31 -2048 34 -82 108 -224 118 -228 4 -2 7 -9 7 -16 0 -6 7 -21 15 -31 8 -11 43 -62 77 -114 90 -135 89 -133 138 -191 131 -155 215 -239 373 -375 35 -30 87 -65 96 -65 6 0 11 -4 11 -8 0 -10 183 -132 199 -132 6 0 11 -3 11 -7 0 -5 28 -21 63 -38 34 -16 64 -32 67 -35 5 -5 43 -23 95 -46 17 -7 50 -21 75 -32 25 -11 83 -32 130 -47 47 -15 94 -31 105 -35 11 -5 54 -16 95 -25 41 -10 84 -21 95 -26 11 -4 40 -10 65 -13 25 -3 101 -12 170 -20 209 -25 546 -16 728 20 25 5 32 3 32 -10 0 -9 5 -16 10 -16 6 0 10 6 10 13 0 17 33 33 80 41 19 3 60 13 90 22 30 9 70 19 88 21 17 3 32 9 32 14 0 5 6 9 12 9 16 0 138 45 206 76 29 13 57 24 62 24 6 0 10 5 10 10 0 6 9 10 19 10 11 0 21 3 23 8 2 4 30 20 63 37 33 16 62 32 65 35 3 3 22 14 43 25 21 11 47 28 57 38 11 9 22 17 26 17 4 0 22 11 40 25 18 14 37 25 42 25 6 0 12 4 14 8 2 4 21 21 43 37 58 44 74 57 105 88 16 15 31 27 34 27 5 0 154 148 222 221 22 24 70 82 105 129 35 47 67 87 71 88 5 2 8 8 8 13 0 5 19 37 43 72 23 34 49 76 57 92 8 17 17 32 21 35 9 9 75 142 108 220 18 41 36 84 42 95 18 38 89 267 101 327 9 44 14 55 20 41 5 -11 6 -7 3 13 -3 17 -1 52 5 78 20 89 40 311 40 444 0 313 -62 641 -174 916 -20 50 -36 95 -36 102 0 7 -3 14 -7 16 -13 5 -66 125 -60 135 3 5 1 15 -5 23 -8 12 -9 12 -4 -2 10 -33 -10 -18 -22 16 -7 18 -21 44 -32 56 -11 13 -20 29 -20 37 0 7 -3 13 -8 13 -4 0 -16 17 -27 37 -11 20 -25 41 -30 47 -6 6 -22 29 -35 51 -13 22 -29 45 -35 51 -5 6 -21 26 -35 44 -31 40 -45 57 -123 144 -75 84 -148 153 -241 231 -27 22 -58 48 -70 59 -11 10 -41 32 -66 49 -25 17 -51 36 -57 43 -7 7 -26 18 -43 26 -16 7 -30 16 -30 20 0 5 -6 8 -14 8 -8 0 -16 3 -18 8 -4 9 -59 40 -168 95 -47 23 -86 45 -88 50 -2 4 -10 7 -18 7 -8 0 -22 4 -32 9 -44 24 -87 41 -104 41 -10 0 -18 5 -18 10 0 6 -9 10 -20 10 -11 0 -28 4 -38 9 -26 15 -118 41 -141 41 -12 0 -21 4 -21 9 0 5 -15 11 -32 14 -18 3 -67 13 -108 22 -41 8 -105 18 -143 22 -37 3 -70 10 -73 14 -7 12 -583 10 -609 -1z m-442 -1651 c21 -7 55 -27 75 -45 33 -29 37 -36 37 -82 0 -56 -17 -83 -75 -112 l-35 -18 48 -22 c82 -39 119 -104 120 -211 0 -120 -62 -189 -202 -225 -48 -12 -100 -15 -221 -12 -87 1 -161 6 -164 9 -3 3 -1 79 5 170 5 90 13 252 17 359 l7 195 45 7 c71 10 301 2 343 -13z m2897 6 c65 -33 39 -107 -39 -113 -84 -6 -124 61 -65 107 31 25 64 27 104 6z m-3977 -167 c26 -90 76 -248 111 -353 35 -104 60 -194 56 -198 -4 -5 -29 -7 -55 -5 l-48 3 -27 120 c-32 144 -60 245 -69 245 -9 0 -59 -195 -75 -290 l-12 -75 -142 -3 c-124 -2 -142 -1 -142 13 0 9 25 89 55 178 30 89 77 239 105 332 28 94 53 176 55 183 3 8 27 12 73 12 l68 0 47 -162z m531 100 c3 -35 8 -146 11 -248 3 -102 8 -236 12 -297 l6 -113 -146 0 -147 0 0 33 c0 17 7 158 15 312 8 154 15 301 15 328 l0 47 114 0 114 0 6 -62z m1246 53 c0 -5 3 -23 6 -40 l7 -31 -92 0 -91 0 0 -80 0 -80 80 0 c44 0 80 -4 80 -9 0 -5 3 -23 6 -40 l7 -31 -86 0 -85 0 5 -62 c7 -96 1 -91 98 -83 l85 7 0 -39 c0 -22 3 -81 7 -132 l6 -91 -234 2 -234 3 1 30 c1 17 7 172 14 345 7 173 14 321 16 328 2 9 52 12 204 12 110 0 200 -4 200 -9z m730 -126 c0 -74 3 -135 8 -135 4 1 52 61 107 134 55 73 103 132 107 130 4 -3 49 -65 100 -139 l93 -135 7 38 c4 20 7 83 7 140 l1 102 63 0 63 0 13 -327 c7 -181 14 -341 15 -358 l1 -30 -105 -3 -105 -2 -47 92 c-26 51 -61 115 -78 142 l-31 49 -36 -59 c-20 -32 -53 -96 -75 -142 l-38 -83 -118 3 c-99 3 -117 5 -116 19 1 8 6 118 13 245 6 126 14 280 17 342 l6 112 64 0 64 0 0 -135z m1128 95 l10 -40 -94 0 -95 0 3 -77 3 -78 77 -3 78 -3 8 -32 c5 -18 7 -35 5 -39 -2 -5 -40 -8 -84 -8 l-79 0 0 -52 c0 -100 0 -101 95 -93 l82 7 6 -83 c4 -46 7 -105 7 -131 l0 -48 -231 0 -232 0 6 113 c4 61 9 186 12 277 3 91 8 202 11 248 l6 82 198 0 198 0 10 -40z m-1454 -138 c3 -5 8 -28 12 -50 l7 -42 -122 0 -122 0 6 38 c11 65 7 62 114 62 55 0 102 -4 105 -8z m1829 -289 c26 -131 48 -241 47 -245 0 -7 -240 -12 -240 -5 0 2 11 59 24 127 13 69 32 178 42 243 l18 117 31 0 31 0 47 -237z m-390 90 c-18 -2 -48 -2 -65 0 -18 2 -4 4 32 4 36 0 50 -2 33 -4z m174 -120 c4 -9 -1 -53 -10 -97 -9 -45 -21 -108 -28 -140 -11 -57 -12 -59 -24 -36 -11 21 -11 31 1 59 12 28 34 169 34 219 0 18 20 15 27 -5z m-1897 -86 c0 -4 32 -23 71 -42 39 -19 78 -40 85 -46 12 -10 13 -8 8 7 -3 10 5 1 20 -21 14 -22 26 -36 26 -31 1 25 100 -141 100 -168 0 -14 -3 -14 -22 -4 -13 7 -27 19 -31 26 -4 6 -14 12 -21 12 -8 0 -19 13 -26 30 -14 34 -68 90 -86 90 -6 0 -15 7 -18 16 -7 18 -92 58 -106 49 -6 -3 -10 -15 -10 -26 0 -10 -4 -19 -9 -19 -11 0 -21 51 -21 111 0 47 1 49 20 37 11 -7 20 -16 20 -21z m-1890 -161 c0 -19 -4 -22 -24 -19 -19 4 -28 -1 -39 -23 -17 -32 -62 -41 -72 -16 -7 19 13 33 40 26 14 -3 29 6 49 30 32 38 46 38 46 2z m1190 14 c0 -6 7 -10 16 -8 11 2 21 -8 28 -28 14 -38 54 -94 68 -94 5 0 12 9 15 20 3 11 10 20 15 20 6 0 8 9 5 19 -7 27 9 31 109 31 79 0 84 -1 84 -21 0 -12 -8 -23 -20 -26 -11 -3 -20 -9 -20 -14 0 -5 -11 -9 -24 -9 -15 0 -26 -7 -29 -17 -4 -14 -5 -12 -6 5 -1 30 -37 30 -47 0 -3 -12 -13 -28 -20 -36 -8 -7 -14 -26 -14 -42 0 -16 -7 -30 -15 -34 -8 -3 -15 -16 -15 -29 0 -29 -46 -101 -94 -146 l-36 -35 0 30 c1 16 8 47 16 69 8 22 17 47 20 55 2 8 -9 30 -26 49 -16 18 -30 37 -30 41 0 4 -22 28 -48 54 -27 27 -56 60 -65 76 l-16 27 42 13 c23 6 53 18 67 26 31 16 40 17 40 4z m-762 -57 c-6 -7 -19 -13 -29 -13 -10 0 -29 -15 -41 -34 -26 -39 -68 -55 -68 -25 0 10 6 23 13 28 6 6 26 22 42 35 32 27 104 34 83 9z m1412 9 c24 -11 17 -45 -14 -69 -25 -20 -42 -23 -112 -23 -76 0 -83 2 -98 25 -9 13 -16 36 -16 50 l0 25 113 -1 c61 0 119 -3 127 -7z m565 -28 c-14 -20 -25 -49 -25 -65 0 -31 -34 -69 -61 -69 -10 0 -21 -4 -24 -10 -3 -5 -17 -10 -31 -10 -22 0 -24 3 -24 53 0 41 6 61 25 88 29 38 49 47 117 48 l47 1 -24 -36z m876 -15 c44 -46 78 -60 72 -30 -2 6 2 11 7 11 6 0 6 7 -1 19 -20 31 -4 51 40 51 34 0 38 -3 34 -20 -4 -14 0 -20 12 -20 12 0 16 6 13 18 -4 14 3 18 44 20 78 5 117 -17 66 -37 -23 -9 -23 -9 5 -20 16 -6 36 -11 45 -11 12 0 9 -4 -8 -13 -17 -9 -24 -20 -22 -34 2 -16 -9 -30 -42 -52 -44 -30 -46 -31 -66 -14 -11 10 -20 24 -20 31 0 10 -7 12 -25 8 -14 -4 -25 -2 -25 4 0 5 -1 13 -2 17 -2 3 7 7 20 8 31 2 45 19 37 44 -6 21 -29 28 -39 12 -3 -5 -15 -7 -26 -4 -25 7 -39 -39 -19 -64 12 -14 11 -15 -9 -9 -16 6 -22 3 -22 -8 0 -24 -12 -20 -104 32 -61 34 -88 56 -100 80 l-16 32 51 0 c47 0 53 -3 100 -51z m-3151 31 c0 -5 -18 -10 -40 -10 -22 0 -40 5 -40 10 0 6 18 10 40 10 22 0 40 -4 40 -10z m124 -6 c10 -25 -1 -29 -14 -5 -6 12 -7 21 -1 21 5 0 12 -7 15 -16z m-227 -34 c41 0 68 -7 104 -27 57 -31 59 -39 3 -19 -21 8 -34 15 -29 16 14 2 -27 18 -48 19 -11 1 -15 -4 -12 -10 5 -7 -8 -8 -41 -3 -58 8 -59 8 -49 31 5 12 9 14 12 6 3 -8 25 -13 60 -13z m53 -65 l25 -14 -30 -1 c-16 0 -40 -3 -52 -6 -20 -6 -23 3 -14 34 3 7 50 -1 71 -13z m1414 -85 c4 0 39 9 78 20 100 28 171 26 260 -7 40 -14 77 -30 82 -35 6 -4 27 -8 48 -8 36 0 52 -13 26 -22 -21 -7 -441 -1 -477 7 -22 5 -39 2 -56 -9 -13 -9 -26 -16 -29 -16 -12 0 -17 89 -6 109 11 22 11 22 40 -9 15 -16 31 -30 34 -30z m1972 -28 c-4 -3 -11 0 -16 8 -15 24 -11 33 6 15 9 -9 13 -19 10 -23z m-3482 -48 c8 -39 21 -43 53 -12 13 12 23 16 23 10 0 -6 -4 -14 -10 -17 -5 -3 -10 -14 -10 -23 1 -15 2 -16 13 -1 7 9 18 14 26 11 8 -3 11 0 7 6 -3 5 7 12 25 14 22 4 34 -1 44 -15 8 -11 12 -24 9 -28 -2 -4 5 -10 16 -14 11 -3 20 -13 20 -21 0 -17 12 -18 27 -3 14 14 33 3 33 -19 1 -15 2 -15 15 2 9 12 20 16 32 12 17 -7 17 -8 -1 -21 -11 -8 -16 -21 -13 -30 7 -17 27 -21 27 -5 0 6 7 10 15 10 25 0 17 -47 -12 -81 -16 -17 -27 -39 -25 -49 2 -15 -15 -30 -34 -29 -4 0 -12 -10 -18 -23 -11 -22 -30 -26 -88 -19 -14 2 -8 31 7 37 13 6 61 78 78 118 13 32 -1 56 -33 56 -23 0 -27 -3 -23 -20 4 -16 0 -20 -21 -20 -14 0 -26 5 -26 10 0 6 -7 10 -15 10 -27 0 -81 32 -91 53 -11 27 -65 35 -84 13 -7 -9 -20 -16 -29 -16 -35 0 -45 -16 -32 -48 7 -17 13 -45 14 -64 2 -26 7 -34 25 -36 12 -2 22 -10 22 -19 0 -9 6 -13 15 -9 8 3 24 -4 34 -15 18 -20 21 -20 42 -5 13 9 29 16 36 16 17 0 -52 -96 -74 -105 -15 -5 -15 -7 -3 -15 11 -7 12 -10 2 -10 -7 0 -10 -4 -7 -10 10 -16 20 -12 58 26 32 32 35 33 30 12 -6 -23 -5 -23 24 5 16 15 34 27 40 27 29 0 21 -25 -22 -75 -25 -30 -44 -59 -41 -63 3 -5 -8 -21 -23 -36 -24 -23 -32 -26 -49 -17 -12 6 -27 11 -36 11 -8 0 -27 11 -42 25 -16 15 -39 25 -55 25 -16 0 -29 5 -29 10 0 6 -5 10 -12 10 -21 0 -77 71 -107 134 -59 125 -59 204 -1 265 17 17 30 39 30 48 0 10 5 25 10 33 8 12 10 9 10 -12 0 -34 20 -36 61 -7 22 16 41 20 74 17 39 -3 44 -1 39 14 -4 13 -1 16 9 12 8 -3 18 -21 21 -40z m146 16 c11 -7 4 -10 -25 -10 -29 0 -36 3 -25 10 8 5 20 10 25 10 6 0 17 -5 25 -10z m3704 -33 c-3 -9 -15 -19 -25 -22 -16 -5 -18 -10 -9 -20 14 -17 6 -33 -18 -35 -9 0 -39 -3 -66 -6 -30 -4 -57 -2 -71 6 -30 16 -72 6 -80 -20 -4 -12 -18 -33 -31 -47 l-25 -27 31 -24 c17 -14 36 -36 41 -49 7 -20 14 -24 34 -19 13 3 27 1 30 -4 5 -8 12 -7 22 1 12 10 19 10 36 -1 18 -11 23 -10 32 5 5 9 18 27 27 39 17 20 17 20 11 -29 -3 -27 -11 -64 -18 -80 -9 -24 -9 -33 0 -42 7 -6 17 -8 22 -5 11 7 29 59 36 102 4 21 5 19 6 -7 2 -46 17 -41 25 8 5 32 10 40 22 35 9 -3 20 -6 25 -6 5 0 5 -10 0 -22 -16 -43 -24 -131 -12 -123 19 11 -17 -66 -37 -81 -12 -9 -52 -13 -129 -14 -99 0 -119 3 -166 25 -30 13 -76 46 -104 72 -89 87 -87 82 -89 201 0 78 2 101 9 84 13 -30 31 -28 52 6 31 48 56 66 91 65 30 -1 32 1 24 17 -17 31 -11 34 11 6 25 -32 50 -30 60 4 l7 25 1 -27 c1 -18 6 -28 17 -28 8 0 13 4 10 8 -8 13 32 52 52 51 9 0 39 -4 66 -8 43 -7 49 -6 54 11 4 17 7 18 19 6 7 -8 11 -22 7 -31z m119 -35 c-3 -20 -5 -54 -4 -74 1 -21 -3 -38 -9 -38 -6 0 -8 -10 -4 -24 5 -20 0 -27 -25 -40 -45 -24 -65 -21 -56 7 7 23 10 151 4 176 -3 10 8 17 34 21 20 4 40 10 44 13 14 14 22 -6 16 -41z m-2146 10 c22 -16 5 -47 -25 -46 -17 0 -19 -3 -11 -17 8 -16 5 -17 -26 -12 -26 4 -41 1 -55 -12 -12 -11 -20 -13 -20 -6 0 6 7 14 15 17 22 9 18 24 -6 24 -11 0 -17 -4 -14 -10 3 -5 1 -10 -5 -10 -13 0 -46 -30 -33 -30 15 -1 -42 -29 -59 -30 -22 0 -24 33 -3 50 25 21 19 50 -10 50 -42 0 -28 17 28 33 62 19 198 18 224 -1z m-387 -96 c-1 -21 -1 -21 -15 -2 -19 25 -19 37 0 30 8 -4 15 -16 15 -28z m54 -88 c-4 -6 -15 -2 -26 10 -12 12 -17 25 -13 33 6 9 13 6 27 -10 10 -13 15 -28 12 -33z m40 -147 c39 -16 63 -47 78 -105 23 -88 87 -87 132 3 14 27 39 59 56 71 37 26 124 39 205 30 55 -7 52 -7 -40 -9 -79 -1 -107 -5 -131 -20 -58 -35 -100 -135 -75 -177 10 -18 10 -18 11 1 1 32 23 68 45 71 18 3 17 1 -5 -16 -14 -11 -21 -20 -17 -20 13 0 67 43 67 54 0 7 -3 6 -8 -1 -5 -8 -13 -9 -22 -3 -12 8 -11 10 5 11 70 4 155 -2 161 -13 3 -4 13 -8 22 -8 10 0 22 -12 28 -29 8 -19 25 -34 53 -47 34 -15 41 -23 41 -46 0 -24 4 -28 28 -28 50 0 72 25 72 81 0 47 1 49 20 37 40 -25 67 -118 35 -118 -9 0 -18 -6 -20 -13 -4 -8 -26 -12 -68 -11 -34 1 -54 -1 -44 -3 21 -5 23 -23 2 -23 -20 0 -19 -36 1 -44 14 -5 12 -10 -12 -32 -25 -24 -82 -54 -100 -54 -3 0 -4 9 -1 19 4 17 -6 21 -79 37 -46 9 -84 21 -84 26 0 5 -4 6 -10 3 -5 -3 -27 -1 -47 5 -28 7 -45 21 -62 50 -26 42 -81 75 -120 72 -28 -2 -66 -35 -84 -72 -8 -16 -21 -25 -34 -24 -12 0 -20 -3 -17 -7 5 -9 -35 -25 -71 -28 -8 0 -15 -8 -15 -16 0 -7 -8 -18 -17 -23 -15 -9 -13 -14 14 -48 34 -43 83 -142 83 -167 0 -9 -5 -19 -10 -22 -12 -7 5 -44 29 -62 20 -16 54 -16 68 -2 16 16 33 2 33 -27 0 -32 25 -41 50 -19 17 16 24 16 44 5 13 -7 29 -9 34 -6 6 4 12 -7 14 -26 5 -51 37 -49 95 4 66 61 100 80 124 73 20 -7 20 -7 2 -28 -35 -41 -60 -82 -93 -155 -23 -49 -48 -86 -77 -112 -40 -35 -54 -60 -34 -60 4 0 30 19 56 42 54 48 47 26 -13 -43 l-41 -46 35 2 c52 3 107 61 159 170 24 51 53 96 66 104 23 14 23 14 6 -10 -25 -35 -44 -79 -52 -121 -6 -34 -5 -38 14 -38 16 0 28 15 51 65 41 88 76 103 120 50 7 -9 21 -13 31 -10 26 9 24 -2 -8 -35 -47 -47 -74 -88 -85 -128 -5 -20 -23 -51 -39 -67 -16 -17 -29 -38 -29 -47 0 -8 -7 -21 -15 -28 -27 -22 -16 -31 20 -15 l36 14 -18 -30 c-10 -17 -33 -44 -50 -60 -38 -33 -39 -36 -16 -41 13 -2 8 -9 -20 -26 -32 -18 -53 -22 -130 -22 -87 0 -94 2 -124 29 -18 15 -30 31 -26 35 3 3 -3 6 -14 6 -11 0 -32 11 -47 25 -28 26 -42 33 -31 15 4 -6 -23 -10 -74 -10 -44 0 -83 4 -86 10 -3 5 -17 10 -31 10 -13 0 -24 5 -24 10 0 6 -7 10 -15 10 -8 0 -23 8 -34 18 -10 9 -40 35 -67 57 -26 22 -60 53 -74 69 -14 16 -39 44 -57 63 -17 20 -37 48 -43 64 -7 16 -16 29 -21 29 -5 0 -6 7 -3 15 4 9 0 15 -8 15 -13 0 -24 19 -62 113 -8 21 -22 45 -31 53 -8 9 -16 27 -17 42 0 15 -2 38 -2 52 -1 14 -5 31 -9 38 -5 6 -4 12 2 12 7 0 7 8 1 26 -6 14 -8 30 -4 35 3 5 0 9 -5 9 -13 0 -15 76 -2 84 4 3 11 18 14 33 3 17 18 35 35 46 31 17 43 49 60 152 8 49 54 165 65 165 4 0 4 -8 -2 -17 -5 -10 -8 -47 -7 -82 l1 -65 30 0 c18 1 29 6 27 13 -1 7 2 10 6 7 5 -3 18 4 28 17 12 13 13 17 3 9 -17 -13 -30 -7 -23 12 2 6 17 11 32 10 16 -1 37 8 52 22 15 14 53 29 95 39 66 14 93 14 158 -1 19 -5 27 -3 27 7 -1 70 -45 88 -218 91 -95 1 -116 3 -82 9 61 10 238 4 274 -10z m633 -22 c39 -15 73 -49 73 -73 -1 -16 -6 -12 -20 16 -20 37 -40 47 -120 61 -21 4 -20 4 7 6 17 0 44 -4 60 -10z m376 -293 c3 -7 9 -35 13 -62 6 -45 6 -48 -9 -35 -15 12 -17 9 -17 -27 0 -33 -6 -45 -32 -67 -23 -20 -28 -29 -18 -35 9 -6 6 -12 -14 -25 -32 -21 -37 -60 -6 -50 13 4 20 2 20 -7 -1 -17 -59 -82 -88 -97 -19 -10 -21 -18 -17 -49 8 -52 -3 -63 -70 -67 -32 -2 -61 -9 -66 -16 -5 -9 -19 -10 -50 -3 -34 7 -44 14 -49 34 -9 35 -3 46 36 71 24 14 34 28 34 45 0 14 10 44 22 67 12 23 22 45 23 49 0 3 3 10 8 14 15 15 6 24 -23 24 -19 0 -30 5 -30 14 0 8 -6 17 -12 19 -7 3 0 6 15 6 18 1 41 14 65 38 20 21 40 37 43 36 7 -2 -7 83 -16 97 -9 14 35 19 49 4 8 -8 25 -14 37 -14 12 0 31 -7 41 -16 14 -13 21 -14 32 -5 17 14 60 5 51 -10 -4 -5 -2 -9 4 -9 7 0 8 17 4 45 -3 28 -2 45 5 45 5 0 12 -6 15 -14z m-453 -209 c-14 -8 -27 -12 -30 -10 -7 6 23 23 40 23 8 0 4 -6 -10 -13z m218 -358 c-2 -6 -8 -10 -13 -10 -5 0 -11 4 -13 10 -2 6 4 11 13 11 9 0 15 -5 13 -11z m-17 -149 c-25 -21 -41 -26 -41 -12 0 9 38 30 55 31 6 0 -1 -9 -14 -19z"/>
<path d="M3759 5084 c-12 -14 -11 -16 5 -13 11 2 21 10 24 17 5 17 -13 15 -29 -4z"/>
<path d="M5590 1105 c0 -8 7 -15 15 -15 8 0 15 7 15 15 0 8 -7 15 -15 15 -8 0 -15 -7 -15 -15z"/>
</g>
<g id="layer106" fill="#d4003b" stroke="none">
<path d="M5505 6090 c-11 -5 -35 -9 -52 -9 -44 -1 -194 -30 -215 -42 -10 -5 -29 -9 -43 -9 -14 0 -33 -4 -43 -9 -9 -5 -57 -21 -107 -36 -49 -15 -114 -38 -143 -51 -29 -13 -56 -24 -61 -24 -8 0 -40 -15 -113 -51 -17 -9 -159 -84 -193 -103 -53 -30 -218 -147 -223 -158 -2 -5 -8 -8 -13 -8 -8 0 -42 -26 -75 -57 -7 -7 -15 -13 -17 -13 -3 0 -23 -17 -45 -37 -22 -21 -59 -56 -83 -79 -25 -22 -69 -69 -99 -104 -30 -35 -64 -72 -75 -84 -11 -12 -48 -59 -83 -106 -34 -47 -66 -89 -70 -95 -4 -5 -19 -28 -32 -50 -13 -22 -26 -42 -29 -45 -9 -7 -27 -39 -53 -90 -13 -25 -26 -46 -30 -48 -5 -2 -8 -8 -8 -12 0 -5 -20 -51 -44 -102 -301 -640 -313 -1381 -31 -2048 34 -82 108 -224 118 -228 4 -2 7 -9 7 -16 0 -6 7 -21 15 -31 8 -11 43 -62 77 -114 90 -135 89 -133 138 -191 131 -155 215 -239 373 -375 35 -30 87 -65 96 -65 6 0 11 -4 11 -8 0 -10 183 -132 199 -132 6 0 11 -3 11 -7 0 -5 28 -21 63 -38 34 -16 64 -32 67 -35 5 -5 43 -23 95 -46 17 -7 50 -21 75 -32 25 -11 83 -32 130 -47 47 -15 94 -31 105 -35 11 -5 54 -16 95 -25 41 -10 84 -21 95 -26 11 -4 40 -10 65 -13 25 -3 101 -12 170 -20 160 -20 420 -20 580 0 199 24 204 25 225 34 11 5 36 11 55 14 19 3 60 13 90 22 30 9 70 19 88 21 17 3 32 9 32 14 0 5 6 9 12 9 16 0 138 45 206 76 29 13 57 24 62 24 6 0 10 5 10 10 0 6 9 10 19 10 11 0 21 3 23 8 2 4 30 20 63 37 33 16 62 32 65 35 3 3 22 14 43 25 21 11 47 28 57 38 11 9 22 17 26 17 4 0 22 11 40 25 18 14 37 25 42 25 6 0 12 4 14 8 2 4 21 21 43 37 58 44 74 57 105 88 16 15 31 27 34 27 5 0 154 148 222 221 22 24 70 82 105 129 35 47 67 87 71 88 5 2 8 8 8 13 0 5 19 37 43 72 23 34 49 76 57 92 8 17 17 32 21 35 9 9 75 142 108 220 18 41 36 84 42 95 24 52 91 280 114 388 101 479 59 994 -119 1431 -20 50 -36 95 -36 102 0 7 -3 14 -7 16 -5 2 -21 32 -38 68 -16 36 -32 67 -35 70 -3 3 -14 24 -24 48 -11 23 -23 42 -27 42 -4 0 -11 10 -15 23 -4 12 -10 24 -13 27 -4 3 -18 23 -31 45 -13 22 -27 42 -30 45 -3 3 -17 23 -30 45 -13 22 -29 45 -35 51 -5 6 -21 26 -35 44 -31 40 -45 57 -123 144 -75 84 -148 153 -241 231 -27 22 -58 48 -70 59 -11 10 -41 32 -66 49 -25 17 -51 36 -57 43 -7 7 -26 18 -43 26 -16 7 -30 16 -30 20 0 5 -6 8 -14 8 -8 0 -16 3 -18 8 -4 9 -59 40 -168 95 -47 23 -86 45 -88 50 -2 4 -10 7 -18 7 -8 0 -22 4 -32 9 -44 24 -87 41 -104 41 -10 0 -18 5 -18 10 0 6 -9 10 -20 10 -11 0 -28 4 -38 9 -26 15 -118 41 -141 41 -12 0 -21 4 -21 9 0 5 -15 11 -32 14 -18 3 -67 13 -108 22 -41 8 -105 18 -143 22 -37 3 -70 10 -73 14 -7 12 -583 10 -609 -1z m-442 -1651 c21 -7 55 -27 75 -45 33 -29 37 -36 37 -82 0 -56 -17 -83 -75 -112 l-35 -18 48 -22 c82 -39 119 -104 120 -211 0 -120 -62 -189 -202 -225 -48 -12 -100 -15 -221 -12 -87 1 -161 6 -164 9 -3 3 -1 79 5 170 5 90 13 252 17 359 l7 195 45 7 c71 10 301 2 343 -13z m2897 6 c65 -33 39 -107 -39 -113 -84 -6 -124 61 -65 107 31 25 64 27 104 6z m-3977 -167 c26 -90 76 -248 111 -353 35 -104 60 -194 56 -198 -4 -5 -29 -7 -55 -5 l-48 3 -27 120 c-32 144 -60 245 -69 245 -9 0 -59 -195 -75 -290 l-12 -75 -142 -3 c-124 -2 -142 -1 -142 13 0 9 25 89 55 178 30 89 77 239 105 332 28 94 53 176 55 183 3 8 27 12 73 12 l68 0 47 -162z m531 100 c3 -35 8 -146 11 -248 3 -102 8 -236 12 -297 l6 -113 -146 0 -147 0 0 33 c0 17 7 158 15 312 8 154 15 301 15 328 l0 47 114 0 114 0 6 -62z m1246 53 c0 -5 3 -23 6 -40 l7 -31 -92 0 -91 0 0 -80 0 -80 80 0 c44 0 80 -4 80 -9 0 -5 3 -23 6 -40 l7 -31 -86 0 -85 0 5 -62 c7 -96 1 -91 98 -83 l85 7 0 -39 c0 -22 3 -81 7 -132 l6 -91 -234 2 -234 3 1 30 c1 17 7 172 14 345 7 173 14 321 16 328 2 9 52 12 204 12 110 0 200 -4 200 -9z m730 -126 c0 -74 3 -135 8 -135 4 1 52 61 107 134 55 73 103 132 107 130 4 -3 49 -65 100 -139 l93 -135 7 38 c4 20 7 83 7 140 l1 102 63 0 63 0 13 -327 c7 -181 14 -341 15 -358 l1 -30 -105 -3 -105 -2 -47 92 c-26 51 -61 115 -78 142 l-31 49 -36 -59 c-20 -32 -53 -96 -75 -142 l-38 -83 -118 3 c-99 3 -117 5 -116 19 1 8 6 118 13 245 6 126 14 280 17 342 l6 112 64 0 64 0 0 -135z m1128 95 l10 -40 -94 0 -95 0 3 -77 3 -78 77 -3 78 -3 8 -32 c5 -18 7 -35 5 -39 -2 -5 -40 -8 -84 -8 l-79 0 0 -52 c0 -100 0 -101 95 -93 l82 7 6 -83 c4 -46 7 -105 7 -131 l0 -48 -231 0 -232 0 6 113 c4 61 9 186 12 277 3 91 8 202 11 248 l6 82 198 0 198 0 10 -40z m-1454 -138 c3 -5 8 -28 12 -50 l7 -42 -122 0 -122 0 6 38 c11 65 7 62 114 62 55 0 102 -4 105 -8z m1829 -289 c26 -131 48 -241 47 -245 0 -7 -240 -12 -240 -5 0 2 11 59 24 127 13 69 32 178 42 243 l18 117 31 0 31 0 47 -237z m-370 90 c-24 -2 -62 -2 -85 0 -24 2 -5 4 42 4 47 0 66 -2 43 -4z m151 -149 c0 -21 -10 -88 -23 -149 -12 -60 -22 -116 -23 -122 -1 -9 -5 -9 -13 -3 -13 11 -11 71 4 99 9 16 31 165 31 209 0 8 6 12 13 9 7 -2 12 -20 11 -43z m-1894 -57 c0 -4 32 -23 71 -42 39 -19 78 -40 85 -46 12 -10 13 -8 8 7 -3 10 5 1 20 -21 14 -22 26 -36 26 -31 1 25 100 -141 100 -168 0 -14 -3 -14 -22 -4 -13 7 -27 19 -31 26 -4 6 -14 12 -21 12 -8 0 -19 13 -26 30 -14 34 -68 90 -86 90 -6 0 -15 7 -18 16 -7 18 -92 58 -106 49 -6 -3 -10 -15 -10 -26 0 -10 -4 -19 -9 -19 -11 0 -21 51 -21 111 0 47 1 49 20 37 11 -7 20 -16 20 -21z m-1890 -161 c0 -19 -4 -22 -24 -19 -19 4 -28 -1 -39 -24 -17 -33 -61 -43 -71 -16 -8 20 12 34 39 27 14 -3 29 6 49 30 32 38 46 38 46 2z m1190 14 c0 -6 7 -10 16 -8 11 2 21 -8 28 -28 14 -38 54 -94 68 -94 5 0 12 9 15 20 3 11 10 20 15 20 6 0 8 9 5 19 -7 27 9 31 109 31 79 0 84 -1 84 -21 0 -12 -8 -23 -20 -26 -11 -3 -20 -9 -20 -14 0 -5 -11 -9 -24 -9 -15 0 -26 -7 -29 -17 -4 -14 -5 -12 -6 5 -1 30 -37 30 -47 0 -3 -12 -13 -28 -20 -36 -8 -7 -14 -26 -14 -42 0 -16 -7 -30 -15 -34 -8 -3 -15 -16 -15 -29 0 -29 -46 -101 -94 -146 l-36 -35 0 30 c1 16 8 47 16 69 8 22 17 47 20 55 2 8 -9 30 -26 49 -16 18 -30 37 -30 41 0 4 -22 28 -48 54 -27 27 -56 60 -65 76 l-16 27 42 13 c23 6 53 18 67 26 31 16 40 17 40 4z m-760 -55 c-7 -8 -21 -15 -31 -15 -10 0 -29 -15 -41 -34 -26 -39 -68 -55 -68 -25 0 10 6 23 13 28 6 6 25 22 41 36 33 29 109 38 86 10z m1410 7 c24 -11 17 -45 -14 -69 -25 -20 -42 -23 -112 -23 -76 0 -83 2 -98 25 -9 13 -16 36 -16 50 l0 25 113 -1 c61 0 119 -3 127 -7z m565 -28 c-14 -20 -25 -49 -25 -65 0 -31 -34 -69 -61 -69 -10 0 -21 -4 -24 -10 -3 -5 -17 -10 -31 -10 -22 0 -24 3 -24 53 0 41 6 61 25 88 29 38 49 47 117 48 l47 1 -24 -36z m876 -15 c44 -46 78 -60 72 -30 -2 6 2 11 7 11 6 0 6 7 -1 19 -20 31 -4 51 40 51 34 0 38 -3 34 -20 -4 -14 0 -20 12 -20 12 0 16 6 13 18 -4 14 3 18 44 20 78 5 117 -17 66 -37 -23 -9 -23 -9 5 -20 16 -6 36 -11 45 -11 12 0 9 -4 -8 -13 -17 -9 -24 -20 -22 -34 2 -16 -9 -30 -42 -52 -44 -30 -46 -31 -66 -14 -11 10 -20 24 -20 31 0 10 -7 12 -25 8 -14 -4 -25 -2 -25 4 0 5 -1 13 -2 17 -2 3 7 7 20 8 31 2 45 19 37 44 -6 21 -29 28 -39 12 -3 -5 -15 -7 -26 -4 -25 7 -39 -39 -19 -64 12 -14 11 -15 -9 -9 -16 6 -22 3 -22 -8 0 -24 -12 -20 -104 32 -61 34 -88 56 -100 80 l-16 32 51 0 c47 0 53 -3 100 -51z m-3151 31 c0 -5 -18 -10 -40 -10 -22 0 -40 5 -40 10 0 6 18 10 40 10 22 0 40 -4 40 -10z m124 -6 c10 -25 -1 -29 -14 -5 -6 12 -7 21 -1 21 5 0 12 -7 15 -16z m-227 -34 c41 0 68 -7 104 -27 57 -31 59 -39 3 -19 -21 8 -34 15 -29 16 14 2 -27 18 -48 19 -11 1 -15 -4 -12 -10 5 -7 -8 -8 -41 -3 -58 8 -59 8 -49 31 5 12 9 14 12 6 3 -8 25 -13 60 -13z m53 -65 l25 -14 -30 -1 c-16 0 -40 -3 -52 -6 -20 -6 -23 3 -14 34 3 7 50 -1 71 -13z m1414 -85 c4 0 39 9 78 20 100 28 171 26 260 -7 40 -14 77 -30 82 -35 6 -4 27 -8 48 -8 36 0 52 -13 26 -22 -21 -7 -441 -1 -477 7 -22 5 -39 2 -56 -9 -13 -9 -26 -16 -29 -16 -12 0 -17 89 -6 109 11 22 11 22 40 -9 15 -16 31 -30 34 -30z m1972 -28 c-4 -3 -11 0 -16 8 -15 24 -11 33 6 15 9 -9 13 -19 10 -23z m-3482 -48 c8 -39 21 -43 53 -12 13 12 23 16 23 10 0 -6 -4 -14 -10 -17 -5 -3 -10 -14 -10 -23 1 -15 2 -16 13 -1 7 9 18 14 26 11 8 -3 11 0 7 6 -3 5 7 12 25 14 22 4 34 -1 44 -15 8 -11 12 -24 9 -28 -2 -4 5 -10 16 -14 11 -3 20 -13 20 -21 0 -17 12 -18 27 -3 14 14 33 3 33 -19 1 -15 2 -15 15 2 9 12 20 16 32 12 17 -7 17 -8 -1 -21 -11 -8 -16 -21 -13 -30 7 -17 27 -21 27 -5 0 6 7 10 15 10 20 0 20 -67 -1 -111 -14 -32 -14 -25 2 31 7 24 6 24 -17 -5 -13 -16 -23 -37 -21 -46 2 -14 -16 -29 -34 -28 -4 0 -12 -10 -18 -23 -11 -22 -30 -26 -88 -19 -14 2 -8 31 7 37 13 6 61 78 78 118 13 32 -1 56 -33 56 -23 0 -27 -3 -23 -20 4 -16 0 -20 -21 -20 -14 0 -26 5 -26 10 0 6 -7 10 -15 10 -27 0 -81 32 -91 53 -11 27 -65 35 -84 13 -7 -9 -20 -16 -29 -16 -35 0 -45 -16 -32 -48 7 -17 13 -45 14 -64 2 -26 7 -34 25 -36 12 -2 22 -10 22 -19 0 -9 6 -13 15 -9 8 3 24 -4 34 -15 18 -20 21 -20 42 -5 13 9 29 16 36 16 17 0 -52 -96 -74 -105 -15 -5 -15 -7 -3 -15 11 -7 12 -10 2 -10 -7 0 -10 -4 -7 -10 10 -16 20 -12 58 26 32 32 35 33 30 12 -6 -23 -5 -23 24 5 16 15 34 27 40 27 29 0 21 -25 -22 -75 -25 -30 -44 -59 -41 -63 3 -5 -8 -21 -23 -36 -24 -23 -32 -26 -49 -17 -12 6 -27 11 -36 11 -8 0 -27 11 -42 25 -16 15 -39 25 -55 25 -16 0 -29 5 -29 10 0 6 -5 10 -12 10 -21 0 -77 71 -107 134 -59 125 -59 204 -1 265 17 17 30 39 30 48 0 10 5 25 10 33 8 12 10 9 10 -12 0 -34 20 -36 59 -7 22 16 40 20 75 18 40 -4 45 -2 40 13 -4 13 -1 16 9 12 8 -3 18 -21 21 -40z m146 16 c11 -7 4 -10 -25 -10 -29 0 -36 3 -25 10 8 5 20 10 25 10 6 0 17 -5 25 -10z m3704 -33 c-3 -9 -15 -19 -25 -22 -16 -5 -18 -10 -9 -20 14 -17 6 -33 -18 -35 -9 0 -39 -3 -66 -6 -30 -4 -57 -2 -71 6 -30 16 -72 6 -80 -20 -4 -12 -18 -33 -31 -47 l-25 -27 31 -24 c17 -14 36 -36 41 -49 7 -20 14 -24 34 -19 13 3 27 1 30 -4 5 -8 12 -7 22 1 12 10 19 10 36 -1 18 -11 23 -10 32 5 5 9 18 27 27 39 17 20 17 20 11 -29 -3 -27 -11 -64 -18 -80 -9 -24 -9 -33 0 -42 7 -6 17 -8 22 -5 11 7 29 59 36 102 4 21 5 19 6 -7 2 -46 17 -41 25 8 5 32 10 40 22 35 9 -3 20 -6 25 -6 5 0 5 -10 0 -22 -16 -43 -24 -131 -12 -123 19 11 -17 -66 -37 -81 -12 -9 -52 -13 -129 -14 -99 0 -119 3 -166 25 -30 13 -76 46 -104 72 -89 87 -87 82 -89 201 0 78 2 101 9 84 13 -30 31 -28 52 6 31 48 56 66 91 65 30 -1 32 1 24 17 -17 31 -11 34 11 6 25 -32 50 -30 60 4 l7 25 1 -27 c1 -18 6 -28 17 -28 8 0 13 4 10 8 -8 13 32 52 52 51 9 0 39 -4 66 -8 43 -7 49 -6 54 11 4 17 7 18 19 6 7 -8 11 -22 7 -31z m125 -10 c5 -12 3 -31 -5 -45 -7 -14 -10 -39 -7 -58 4 -22 2 -34 -6 -34 -7 0 -9 -9 -5 -24 5 -20 0 -27 -25 -40 -45 -24 -65 -21 -56 7 7 23 10 151 4 177 -3 11 6 16 29 18 18 2 36 10 39 18 6 17 22 9 32 -19z m-2152 -15 c22 -16 5 -47 -25 -46 -17 0 -19 -3 -11 -17 8 -16 5 -17 -26 -12 -26 4 -41 1 -55 -12 -12 -11 -20 -13 -20 -6 0 6 7 14 15 17 22 9 18 24 -6 24 -11 0 -17 -4 -14 -10 3 -5 1 -10 -5 -10 -13 0 -46 -30 -33 -30 15 -1 -42 -29 -59 -30 -22 0 -24 33 -3 50 25 21 19 50 -10 50 -42 0 -28 17 28 33 62 19 198 18 224 -1z m-387 -96 c-1 -21 -1 -21 -15 -2 -19 25 -19 37 0 30 8 -4 15 -16 15 -28z m54 -88 c-4 -6 -15 -2 -26 10 -12 12 -17 25 -13 33 6 9 13 6 27 -10 10 -13 15 -28 12 -33z m40 -147 c39 -16 63 -47 78 -105 23 -88 87 -87 132 3 14 27 39 59 56 71 37 26 124 39 205 30 55 -7 52 -7 -40 -9 -79 -1 -107 -5 -131 -20 -58 -35 -100 -135 -75 -177 10 -18 10 -18 11 1 1 32 23 68 45 71 18 3 17 1 -5 -16 -14 -11 -21 -20 -17 -20 13 0 67 43 67 54 0 7 -3 6 -8 -1 -5 -8 -13 -9 -22 -3 -12 8 -11 10 5 11 70 4 155 -2 161 -13 3 -4 13 -8 22 -8 10 0 22 -12 28 -29 8 -19 25 -34 53 -47 34 -15 41 -23 41 -46 0 -24 4 -28 28 -28 50 0 72 25 72 81 0 47 1 49 20 37 40 -25 67 -118 35 -118 -9 0 -18 -6 -20 -13 -4 -8 -26 -12 -68 -11 -34 1 -54 -1 -44 -3 21 -5 23 -23 2 -23 -20 0 -19 -36 1 -44 14 -5 12 -10 -12 -32 -25 -24 -82 -54 -100 -54 -3 0 -4 9 -1 19 4 17 -6 21 -79 37 -46 9 -84 21 -84 26 0 5 -4 6 -10 3 -5 -3 -27 -1 -47 5 -28 7 -45 21 -62 50 -26 42 -81 75 -120 72 -28 -2 -66 -35 -84 -72 -8 -16 -21 -25 -34 -24 -12 0 -20 -3 -17 -7 5 -9 -35 -25 -71 -28 -8 0 -15 -8 -15 -16 0 -7 -8 -18 -17 -23 -15 -9 -13 -14 14 -48 34 -43 83 -142 83 -167 0 -9 -5 -19 -10 -22 -12 -7 5 -44 29 -62 20 -16 54 -16 68 -2 16 16 33 2 33 -27 0 -32 25 -41 50 -19 17 16 24 16 44 5 13 -7 29 -9 34 -6 6 4 12 -7 14 -26 5 -51 37 -49 95 4 66 61 100 80 124 73 20 -7 20 -7 2 -28 -35 -41 -60 -82 -93 -155 -23 -49 -48 -86 -77 -112 -40 -35 -54 -60 -34 -60 4 0 30 19 56 42 54 48 47 26 -13 -43 l-41 -46 35 2 c52 3 107 61 159 170 24 51 53 96 66 104 23 14 23 14 6 -10 -25 -35 -44 -79 -52 -121 -6 -34 -5 -38 14 -38 16 0 28 15 51 65 41 88 76 103 120 50 7 -9 21 -13 31 -10 26 9 24 -2 -8 -35 -47 -47 -74 -88 -85 -128 -5 -20 -23 -51 -39 -67 -16 -17 -29 -38 -29 -47 0 -8 -7 -21 -15 -28 -27 -22 -16 -31 20 -15 l36 14 -18 -30 c-10 -17 -33 -44 -50 -60 -38 -33 -39 -36 -16 -41 13 -2 8 -9 -20 -26 -32 -18 -53 -22 -130 -22 -84 0 -94 2 -119 25 -15 14 -32 25 -37 25 -6 0 -30 11 -55 25 -36 20 -59 25 -115 25 -38 0 -73 4 -76 10 -3 5 -17 10 -31 10 -13 0 -24 5 -24 10 0 6 -7 10 -15 10 -8 0 -23 8 -34 18 -10 9 -40 35 -67 57 -26 22 -60 53 -74 69 -14 16 -39 44 -57 63 -17 20 -37 48 -43 64 -7 16 -17 29 -22 29 -6 0 -7 7 -4 16 3 8 2 12 -4 9 -9 -6 -48 69 -64 122 -4 13 -14 30 -22 38 -8 8 -22 38 -31 67 -18 62 -29 224 -15 241 5 7 12 23 15 37 3 14 20 33 36 43 30 17 42 50 59 152 8 48 54 165 65 165 4 0 4 -12 0 -27 -5 -16 -8 -53 -8 -82 0 -54 0 -55 30 -55 18 1 29 6 27 13 -1 7 2 10 6 7 5 -3 18 4 28 17 12 13 13 17 3 9 -17 -13 -30 -7 -23 12 2 6 17 11 32 10 16 -1 37 8 52 22 15 14 53 29 95 39 66 14 93 14 158 -1 19 -5 27 -3 27 7 -1 70 -45 88 -218 91 -95 1 -116 3 -82 9 61 10 238 4 274 -10z m633 -22 c39 -15 73 -49 73 -73 -1 -16 -6 -12 -20 16 -20 37 -40 47 -120 61 -21 4 -20 4 7 6 17 0 44 -4 60 -10z m389 -354 c6 -46 6 -49 -9 -36 -15 12 -17 9 -17 -27 0 -33 -6 -45 -32 -67 -23 -20 -28 -29 -18 -35 9 -6 6 -12 -14 -25 -32 -21 -37 -60 -6 -50 13 4 20 2 20 -7 -1 -17 -59 -82 -88 -97 -19 -10 -21 -18 -17 -49 8 -52 -3 -63 -70 -67 -32 -2 -61 -9 -66 -16 -5 -9 -19 -10 -50 -3 -34 7 -44 14 -49 34 -9 35 -3 46 36 71 24 14 34 28 34 45 0 14 10 44 22 67 12 23 22 45 23 49 0 3 3 10 8 14 15 15 6 24 -23 24 -19 0 -30 5 -30 14 0 8 -6 17 -12 19 -7 3 0 6 15 6 18 1 41 14 65 38 20 21 40 37 43 36 7 -2 -7 83 -16 97 -9 14 35 19 49 4 8 -8 25 -14 37 -14 12 0 31 -7 41 -16 14 -13 21 -14 32 -5 17 14 60 5 51 -10 -4 -5 -2 -9 4 -9 6 0 8 23 5 58 -5 54 -4 55 9 32 8 -14 18 -48 23 -75z m-466 -148 c-14 -8 -27 -12 -30 -10 -7 6 23 23 40 23 8 0 4 -6 -10 -13z m218 -358 c-2 -6 -8 -10 -13 -10 -5 0 -11 4 -13 10 -2 6 4 11 13 11 9 0 15 -5 13 -11z m-17 -149 c-25 -21 -41 -26 -41 -12 0 9 38 30 55 31 6 0 -1 -9 -14 -19z"/>
<path d="M4918 4374 c-5 -4 -8 -45 -8 -91 l0 -83 45 0 c58 0 91 16 105 51 15 36 3 76 -31 102 -28 20 -99 34 -111 21z"/>
</g>
<g id="layer107" fill="#7e8482" stroke="none">
<path d="M6628 4425 c-39 -52 -75 -95 -80 -95 -4 0 -8 37 -10 83 l-3 82 -111 3 -111 3 -7 -77 c-3 -42 -6 -117 -6 -166 l0 -89 -32 3 c-33 3 -33 4 -43 73 l-10 70 -149 3 c-106 2 -152 -1 -157 -9 -4 -7 -10 -40 -14 -74 -6 -61 -7 -63 -38 -68 -40 -6 -48 2 -56 50 l-7 38 -74 0 c-70 0 -75 1 -78 23 -5 32 15 36 114 22 47 -6 87 -10 88 -8 1 2 -8 49 -22 106 l-24 102 -246 -2 -247 -3 -6 -155 c-4 -85 -7 -158 -8 -162 -2 -12 -101 -9 -101 2 0 6 9 27 20 47 25 47 26 116 2 163 -23 46 -83 86 -157 105 -62 16 -267 19 -375 7 l-55 -7 -6 -145 c-16 -361 -22 -448 -30 -390 -4 30 -10 149 -14 265 -3 115 -8 225 -11 243 l-5 32 -159 0 c-87 0 -161 -3 -163 -7 -3 -5 -10 -127 -16 -273 -14 -324 -17 -352 -38 -348 -18 3 -74 164 -160 458 l-48 165 -109 0 -108 0 -78 -260 c-43 -143 -102 -327 -130 -408 -29 -81 -51 -149 -49 -151 2 -2 96 -6 209 -8 l205 -3 31 32 c33 35 44 34 44 -2 0 -18 -5 -21 -24 -18 -19 4 -28 -1 -40 -26 -9 -17 -20 -30 -24 -30 -21 3 -42 -2 -42 -11 0 -14 -53 -124 -63 -131 -5 -3 -10 -17 -13 -30 -2 -13 -7 -39 -10 -56 -8 -40 12 -44 55 -12 22 16 40 20 75 18 40 -4 45 -2 40 13 -4 13 -1 16 9 12 8 -3 18 -21 21 -40 8 -39 21 -43 53 -12 13 12 23 16 23 10 0 -6 -5 -14 -10 -17 -6 -3 -10 -14 -10 -23 1 -15 2 -16 13 -1 7 9 18 14 26 11 8 -3 11 0 7 6 -3 5 7 12 25 14 22 4 34 -1 44 -15 8 -11 12 -24 9 -28 -2 -4 5 -10 16 -14 11 -3 20 -13 20 -21 0 -17 12 -18 27 -3 14 14 33 3 33 -19 1 -15 2 -15 15 2 9 12 20 16 32 12 17 -7 17 -8 1 -20 -10 -7 -18 -18 -18 -24 0 -20 20 -24 36 -7 24 23 16 159 -10 178 -12 9 -19 29 -21 63 -1 27 -4 54 -5 59 -6 25 1 65 13 74 6 6 26 22 42 37 l30 27 185 -7 c102 -3 214 -9 250 -12 89 -8 242 12 314 41 38 16 63 21 67 14 3 -5 12 -9 19 -7 7 2 17 -11 24 -28 14 -38 54 -94 68 -94 5 0 12 9 15 20 3 11 10 20 15 20 6 0 8 9 5 19 -7 27 9 31 109 31 79 0 84 -1 84 -21 0 -12 -8 -23 -20 -26 -11 -3 -20 -9 -20 -14 0 -5 -11 -9 -24 -9 -15 0 -26 -7 -29 -17 -4 -14 -5 -12 -6 5 -1 30 -37 30 -47 0 -3 -12 -13 -28 -20 -36 -8 -7 -14 -26 -14 -42 0 -16 -7 -30 -15 -34 -8 -3 -15 -15 -15 -26 0 -33 -27 -77 -86 -141 -35 -38 -54 -68 -54 -84 0 -35 -51 -157 -72 -173 -24 -18 -23 -43 2 -49 24 -6 24 -10 4 -79 -8 -29 -14 -72 -12 -96 3 -40 5 -42 33 -42 18 1 29 6 27 13 -1 7 2 10 6 7 5 -3 18 4 28 17 12 13 13 17 3 9 -17 -13 -30 -7 -23 12 2 6 17 11 32 10 16 -1 37 8 52 22 15 14 53 29 95 39 66 14 93 14 158 -1 19 -5 27 -3 27 7 -1 70 -45 89 -218 90 -117 1 -122 2 -67 11 70 11 217 4 259 -11 39 -15 63 -47 78 -105 23 -88 87 -87 132 3 14 27 39 59 56 71 37 26 124 39 205 30 55 -7 52 -7 -40 -9 -79 -1 -107 -5 -131 -20 -58 -35 -100 -135 -75 -177 10 -18 10 -18 11 1 1 32 23 68 45 71 18 3 17 1 -5 -16 -14 -11 -21 -20 -17 -20 13 0 67 43 67 54 0 7 -3 6 -8 -1 -5 -8 -13 -9 -22 -3 -12 8 -11 10 5 11 70 4 155 -2 161 -13 3 -4 13 -8 22 -8 10 0 22 -12 28 -29 8 -19 25 -34 53 -47 34 -15 41 -23 41 -46 0 -24 4 -28 28 -28 50 0 72 25 72 81 0 47 1 49 20 37 40 -25 67 -118 35 -118 -9 0 -18 -6 -20 -13 -4 -8 -26 -12 -68 -11 -34 1 -54 -1 -44 -3 21 -5 23 -23 2 -23 -20 0 -19 -36 1 -44 14 -5 12 -10 -12 -32 -25 -24 -82 -54 -100 -54 -3 0 -4 9 -1 19 4 17 -6 21 -79 37 -46 9 -84 21 -84 26 0 5 -4 6 -10 3 -5 -3 -27 -1 -47 5 -28 7 -45 21 -62 50 -26 42 -81 75 -120 72 -28 -2 -66 -35 -84 -72 -8 -16 -21 -25 -34 -24 -12 0 -20 -3 -17 -7 5 -9 -35 -25 -71 -28 -8 0 -15 -8 -15 -16 0 -7 -8 -18 -17 -23 -15 -9 -13 -14 14 -48 34 -43 83 -142 83 -167 0 -9 -5 -19 -10 -22 -12 -7 5 -44 29 -62 20 -16 54 -16 68 -2 16 16 33 2 33 -27 0 -32 25 -41 50 -19 17 16 24 16 44 5 13 -7 29 -9 34 -6 6 4 12 -7 14 -26 5 -51 37 -49 95 4 66 61 100 80 124 73 20 -7 20 -7 2 -28 -35 -41 -60 -82 -93 -155 -23 -49 -48 -86 -77 -112 -40 -35 -54 -60 -34 -60 4 0 30 19 56 42 54 48 47 26 -13 -43 l-41 -46 35 2 c52 3 107 61 159 170 24 51 53 96 66 104 23 14 23 14 6 -10 -25 -35 -44 -79 -52 -121 -6 -34 -5 -38 14 -38 16 0 28 15 51 65 41 88 76 103 120 50 7 -9 21 -13 31 -10 26 9 24 -2 -8 -35 -47 -47 -74 -88 -85 -128 -5 -20 -23 -51 -39 -67 -16 -17 -29 -38 -29 -47 0 -8 -7 -21 -15 -28 -27 -22 -16 -31 20 -15 l36 14 -18 -30 c-10 -17 -33 -44 -50 -60 -38 -33 -39 -36 -15 -41 13 -3 9 -8 -15 -21 -40 -21 -41 -27 -8 -27 25 0 51 21 86 68 8 12 34 35 58 52 30 22 40 36 37 48 -7 21 35 63 136 138 39 28 69 59 73 73 3 13 20 37 36 52 55 51 106 196 141 399 16 93 13 132 -12 148 -19 11 -20 9 -20 -27 0 -32 -6 -44 -32 -66 -23 -20 -28 -29 -18 -35 9 -6 6 -12 -14 -25 -32 -21 -37 -60 -6 -50 13 4 20 2 20 -7 -1 -17 -59 -82 -88 -97 -19 -10 -21 -18 -17 -49 8 -52 -3 -63 -70 -67 -32 -2 -61 -9 -66 -16 -5 -9 -19 -10 -50 -3 -34 7 -44 14 -49 34 -9 35 -3 46 36 71 24 14 34 28 34 45 0 14 10 44 22 67 12 23 22 45 23 49 0 3 3 10 8 14 15 15 6 24 -23 24 -19 0 -30 5 -30 14 0 8 -6 17 -12 19 -7 3 0 6 15 6 18 1 41 14 65 38 20 21 40 37 43 36 7 -2 -7 83 -16 97 -9 14 35 19 49 4 8 -8 25 -14 37 -14 12 0 31 -7 41 -16 14 -13 21 -14 32 -5 17 14 60 5 51 -10 -4 -5 -2 -9 4 -9 17 0 -8 217 -34 293 -8 23 -17 68 -21 100 -5 43 -13 64 -35 87 -16 16 -36 30 -44 30 -19 0 -31 25 -40 85 -3 28 -24 95 -46 151 -49 126 -53 201 -14 255 14 19 36 37 48 41 12 3 84 6 160 7 122 1 138 3 144 19 17 49 95 202 102 202 5 0 33 -49 63 -110 l53 -109 198 -1 198 0 50 -51 c44 -46 78 -60 72 -30 -2 6 2 11 7 11 6 0 6 7 -1 19 -20 31 -4 51 40 51 34 0 38 -3 34 -20 -4 -14 0 -20 12 -20 12 0 16 6 13 18 -4 14 3 18 44 20 78 5 117 -17 66 -37 -23 -9 -23 -9 5 -20 16 -6 36 -11 45 -11 12 0 9 -4 -8 -13 -17 -9 -24 -20 -22 -34 2 -16 -9 -30 -42 -52 -44 -30 -46 -31 -66 -14 -11 10 -20 24 -20 31 0 10 -7 12 -25 8 -23 -6 -30 1 -22 21 1 4 10 8 20 8 26 2 40 20 32 44 -6 21 -29 28 -39 12 -3 -5 -15 -7 -26 -4 -25 7 -39 -39 -19 -64 12 -14 11 -15 -7 -9 -17 5 -23 2 -27 -16 -6 -26 -1 -162 7 -202 4 -14 8 -37 11 -51 7 -33 28 -32 50 3 31 48 56 66 91 65 30 -1 32 1 24 17 -17 31 -11 34 11 6 25 -32 50 -30 60 4 l7 25 1 -27 c1 -18 6 -28 17 -28 8 0 13 4 10 8 -8 13 32 52 52 51 9 0 39 -4 65 -8 43 -7 50 -6 56 11 6 17 9 18 19 5 16 -18 6 -44 -19 -52 -16 -5 -18 -10 -9 -20 14 -17 6 -33 -18 -35 -9 0 -39 -3 -66 -6 -30 -4 -57 -2 -71 6 -30 16 -72 6 -80 -20 -4 -12 -18 -33 -31 -47 l-25 -27 31 -24 c17 -14 36 -36 41 -49 7 -20 14 -24 34 -19 13 3 27 2 30 -4 4 -6 13 -5 25 2 14 9 22 9 36 -3 15 -12 18 -12 28 5 6 10 19 28 28 40 17 20 17 20 11 -29 -3 -27 -11 -64 -18 -80 -9 -24 -9 -33 0 -42 7 -6 17 -8 22 -5 11 7 29 59 36 102 4 21 5 19 6 -7 2 -46 17 -41 25 8 5 32 10 40 22 35 9 -3 20 -6 25 -6 5 0 5 -10 0 -22 -16 -43 -24 -131 -12 -123 8 4 6 -7 -3 -30 -19 -44 -19 -45 -6 -45 12 0 50 73 50 98 0 11 9 31 20 45 31 39 53 123 47 176 -8 64 -18 110 -26 116 -9 5 -11 -13 -11 -72 0 -24 -5 -43 -10 -43 -6 0 -8 -11 -4 -24 5 -20 0 -27 -25 -40 -45 -24 -65 -21 -56 7 7 23 10 151 4 177 -3 10 7 16 31 20 30 4 35 9 33 31 -2 30 -71 139 -89 139 -19 0 -118 119 -119 143 0 12 5 37 12 56 15 39 36 208 28 221 -3 5 -19 7 -35 3 -30 -5 -30 -5 -30 41 l0 47 -87 -3 c-77 -3 -88 -1 -91 15 -3 15 6 17 87 17 50 0 91 3 91 8 0 4 -9 48 -19 97 -14 65 -23 89 -32 86 -8 -1 -39 -5 -70 -8 -52 -5 -56 -4 -62 17 -3 13 -4 27 -1 32 7 11 55 10 131 -3 35 -6 66 -9 68 -7 4 4 -5 48 -36 171 l-10 37 -243 0 -244 0 -6 -47 c-3 -27 -8 -140 -12 -253 -9 -314 -19 -364 -27 -150 -4 96 -10 237 -13 313 l-6 137 -114 0 -114 0 -2 -37 c-1 -21 0 -57 1 -79 1 -23 -2 -44 -6 -47 -5 -3 -40 37 -77 89 -36 51 -71 94 -76 94 -5 0 -42 -43 -82 -95z m-1565 14 c21 -7 55 -27 75 -45 33 -29 37 -36 37 -82 0 -56 -17 -83 -75 -112 l-35 -18 48 -22 c82 -39 119 -104 120 -211 0 -120 -62 -189 -202 -225 -48 -12 -100 -15 -221 -12 -87 1 -161 6 -164 9 -3 3 -1 79 5 170 5 90 13 252 17 359 l7 195 45 7 c71 10 301 2 343 -13z m-1080 -161 c26 -90 76 -248 111 -353 35 -104 60 -194 56 -198 -4 -5 -29 -7 -55 -5 l-48 3 -27 120 c-32 144 -60 245 -69 245 -9 0 -59 -195 -75 -290 l-12 -75 -142 -3 c-124 -2 -142 -1 -142 13 0 9 25 89 55 178 30 89 77 239 105 332 28 94 53 176 55 183 3 8 27 12 73 12 l68 0 47 -162z m531 100 c3 -35 8 -146 11 -248 3 -102 8 -236 12 -297 l6 -113 -146 0 -147 0 0 33 c0 17 7 158 15 312 8 154 15 301 15 328 l0 47 114 0 114 0 6 -62z m1246 53 c0 -5 3 -23 6 -40 l7 -31 -92 0 -91 0 0 -80 0 -80 80 0 c44 0 80 -4 80 -9 0 -5 3 -23 6 -40 l7 -31 -86 0 -85 0 5 -62 c7 -96 1 -91 98 -83 l85 7 0 -39 c0 -22 3 -81 7 -132 l6 -91 -234 2 -234 3 1 30 c1 17 7 172 14 345 7 173 14 321 16 328 2 9 52 12 204 12 110 0 200 -4 200 -9z m730 -126 c0 -74 3 -135 8 -135 4 1 52 61 107 134 55 73 103 132 107 130 4 -3 49 -65 100 -139 l93 -135 7 38 c4 20 7 83 7 140 l1 102 63 0 63 0 13 -327 c7 -181 14 -341 15 -358 l1 -30 -105 -3 -105 -2 -47 92 c-26 51 -61 115 -78 142 l-31 49 -36 -59 c-20 -32 -53 -96 -75 -142 l-38 -83 -118 3 c-99 3 -117 5 -116 19 1 8 6 118 13 245 6 126 14 280 17 342 l6 112 64 0 64 0 0 -135z m1128 95 l10 -40 -94 0 -95 0 3 -77 3 -78 77 -3 78 -3 8 -32 c5 -18 7 -35 5 -39 -2 -5 -40 -8 -84 -8 l-79 0 0 -52 c0 -100 0 -101 95 -93 l82 7 6 -83 c4 -46 7 -105 7 -131 l0 -48 -231 0 -232 0 6 113 c4 61 9 186 12 277 3 91 8 202 11 248 l6 82 198 0 198 0 10 -40z m-1454 -138 c3 -5 8 -28 12 -50 l7 -42 -122 0 -122 0 6 38 c11 65 7 62 114 62 55 0 102 -4 105 -8z m-284 -405 c0 -4 32 -23 71 -42 39 -19 78 -40 85 -46 12 -10 13 -8 8 7 -3 10 5 1 20 -21 14 -22 26 -36 26 -31 1 25 100 -141 100 -168 0 -14 -3 -14 -22 -4 -13 7 -27 19 -31 26 -4 6 -14 12 -21 12 -8 0 -19 13 -26 30 -14 34 -68 90 -86 90 -6 0 -15 7 -18 16 -7 18 -92 58 -106 49 -6 -3 -10 -15 -10 -26 0 -10 -4 -19 -9 -19 -11 0 -21 51 -21 111 0 47 1 49 20 37 11 -7 20 -16 20 -21z m-50 -195 c24 -11 17 -45 -14 -69 -25 -20 -42 -23 -112 -23 -76 0 -83 2 -98 25 -9 13 -16 36 -16 50 l0 25 113 -1 c61 0 119 -3 127 -7z m-1710 -12 c0 -5 -18 -10 -40 -10 -22 0 -40 5 -40 10 0 6 18 10 40 10 22 0 40 -4 40 -10z m124 -6 c10 -25 -1 -29 -14 -5 -6 12 -7 21 -1 21 5 0 12 -7 15 -16z m-227 -34 c41 0 68 -7 104 -27 57 -31 59 -39 3 -19 -21 8 -34 15 -29 16 14 2 -27 18 -48 19 -11 1 -15 -4 -12 -10 5 -7 -8 -8 -41 -3 -58 8 -59 8 -49 31 5 12 9 14 12 6 3 -8 25 -13 60 -13z m53 -65 l25 -14 -30 -1 c-16 0 -40 -3 -52 -6 -20 -6 -23 3 -14 34 3 7 50 -1 71 -13z m1414 -85 c4 0 39 9 78 20 100 28 171 26 260 -7 40 -14 77 -30 82 -35 6 -4 27 -8 48 -8 36 0 52 -13 26 -22 -21 -7 -441 -1 -477 7 -22 5 -39 2 -56 -9 -13 -9 -26 -16 -29 -16 -12 0 -17 89 -6 109 11 22 11 22 40 -9 15 -16 31 -30 34 -30z m1972 -28 c-4 -3 -11 0 -16 8 -15 24 -11 33 6 15 9 -9 13 -19 10 -23z m-3336 -32 c11 -7 4 -10 -25 -10 -29 0 -36 3 -25 10 8 5 20 10 25 10 6 0 17 -5 25 -10z m1677 -58 c22 -16 5 -47 -25 -46 -17 0 -19 -3 -11 -17 8 -16 5 -17 -26 -12 -26 4 -41 1 -55 -12 -12 -11 -20 -13 -20 -6 0 6 7 14 15 17 22 9 18 24 -6 24 -11 0 -17 -4 -14 -10 3 -5 1 -10 -5 -10 -13 0 -46 -30 -33 -30 15 -1 -42 -29 -59 -30 -22 0 -24 33 -3 50 25 21 19 50 -10 50 -42 0 -28 17 28 33 62 19 198 18 224 -1z m-387 -96 c-1 -21 -1 -21 -15 -2 -19 25 -19 37 0 30 8 -4 15 -16 15 -28z m54 -88 c-4 -6 -15 -2 -26 10 -12 12 -17 25 -13 33 6 9 13 6 27 -10 10 -13 15 -28 12 -33z m673 -169 c39 -15 73 -49 73 -73 -1 -16 -6 -12 -20 16 -20 37 -40 47 -120 61 -21 4 -20 4 7 6 17 0 44 -4 60 -10z m-77 -502 c-14 -8 -27 -12 -30 -10 -7 6 23 23 40 23 8 0 4 -6 -10 -13z m218 -358 c-2 -6 -8 -10 -13 -10 -5 0 -11 4 -13 10 -2 6 4 11 13 11 9 0 15 -5 13 -11z m-17 -149 c-25 -21 -41 -26 -41 -12 0 9 38 30 55 31 6 0 -1 -9 -14 -19z"/>
<path d="M4918 4374 c-5 -4 -8 -45 -8 -91 l0 -83 45 0 c58 0 91 16 105 51 15 36 3 76 -31 102 -28 20 -99 34 -111 21z m76 -60 c21 -8 21 -50 0 -58 -21 -8 -22 -7 -24 24 -4 43 -3 44 24 34z"/>
<path d="M5633 3460 c-48 -20 -22 -30 72 -28 52 0 95 4 95 8 0 7 -101 30 -129 29 -9 0 -26 -4 -38 -9z"/>
<path d="M7844 4496 c-91 -41 -98 -158 -12 -202 20 -10 27 -19 19 -23 -7 -4 -23 -75 -36 -157 -13 -82 -36 -206 -50 -276 -37 -189 -57 -168 160 -168 201 0 193 -3 175 60 -24 83 -100 484 -95 500 6 19 -16 29 -70 31 -27 1 -25 3 16 15 61 19 90 52 96 107 5 40 2 48 -29 82 -31 34 -41 39 -89 42 -32 2 -66 -2 -85 -11z m116 -51 c65 -33 39 -107 -39 -113 -84 -6 -124 61 -65 107 31 25 64 27 104 6z m33 -472 c26 -131 48 -241 47 -245 0 -7 -240 -12 -240 -5 0 2 11 59 24 127 13 69 32 178 42 243 l18 117 31 0 31 0 47 -237z"/>
<path d="M3940 3296 c-7 -9 -20 -16 -29 -16 -35 0 -45 -16 -32 -48 7 -17 13 -45 14 -64 2 -26 7 -34 25 -36 12 -2 22 -10 22 -19 0 -9 6 -13 15 -9 8 3 24 -4 34 -15 18 -20 21 -20 42 -5 13 9 29 16 36 16 17 0 -52 -96 -74 -105 -15 -5 -15 -7 -3 -15 11 -7 12 -10 2 -10 -7 0 -10 -4 -7 -10 10 -16 20 -12 58 26 32 32 35 33 30 12 -6 -23 -5 -23 24 5 16 15 34 27 40 27 29 0 21 -25 -22 -76 -26 -30 -45 -58 -41 -61 3 -4 -6 -19 -21 -35 -44 -46 -4 -33 59 20 31 26 72 56 90 67 45 28 94 96 106 147 6 24 14 54 18 68 7 24 6 24 -17 -5 -13 -16 -23 -37 -21 -46 2 -14 -16 -29 -34 -28 -4 0 -12 -10 -18 -23 -11 -22 -30 -26 -88 -19 -14 2 -8 31 7 37 13 6 61 78 78 118 13 32 -1 56 -33 56 -23 0 -27 -3 -23 -20 4 -16 0 -20 -21 -20 -14 0 -26 5 -26 10 0 6 -7 10 -15 10 -27 0 -81 32 -91 53 -11 27 -65 35 -84 13z"/>
<path d="M6012 2796 c1 -10 8 -17 13 -17 15 1 12 24 -3 29 -9 3 -13 -2 -10 -12z"/>
<path d="M5735 2730 c3 -5 23 -10 43 -9 30 0 33 2 17 9 -28 12 -67 12 -60 0z"/>
<path d="M5110 2715 c0 -16 16 -20 24 -6 3 5 23 7 44 4 20 -2 62 0 92 5 52 9 49 10 -52 11 -90 1 -108 -2 -108 -14z"/>
<path d="M5936 2695 c-3 -9 0 -15 9 -15 8 0 15 4 15 9 0 5 10 12 23 14 16 3 14 5 -9 6 -20 0 -34 -5 -38 -14z"/>
<path d="M6010 2681 c0 -31 68 -42 95 -15 22 22 4 34 -52 34 -36 0 -43 -3 -43 -19z"/>
<path d="M6291 2658 c1 -7 4 -24 8 -38 7 -23 8 -22 12 13 4 26 1 37 -8 37 -7 0 -13 -6 -12 -12z"/>
</g>
<g id="layer108" fill="#b9b8b8" stroke="none">
<path d="M6628 4425 c-39 -52 -75 -95 -80 -95 -4 0 -8 37 -10 83 l-3 82 -111 3 -111 3 -7 -77 c-3 -42 -6 -117 -6 -166 l0 -89 -32 3 c-33 3 -33 4 -43 73 l-10 70 -149 3 c-106 2 -152 -1 -157 -9 -4 -7 -10 -40 -14 -74 -6 -61 -7 -63 -38 -68 -40 -6 -48 2 -56 50 l-7 38 -74 0 c-70 0 -75 1 -78 23 -5 32 15 36 114 22 47 -6 87 -10 88 -8 1 2 -8 49 -22 106 l-24 102 -246 -2 -247 -3 -6 -155 c-4 -85 -7 -158 -8 -162 -2 -12 -101 -9 -101 2 0 6 9 27 20 47 25 47 26 116 2 163 -23 46 -83 86 -157 105 -62 16 -267 19 -375 7 l-55 -7 -6 -145 c-16 -361 -22 -448 -30 -390 -4 30 -10 149 -14 265 -3 115 -8 225 -11 243 l-5 32 -159 0 c-87 0 -161 -3 -163 -7 -3 -5 -10 -127 -16 -273 -14 -324 -17 -352 -38 -348 -18 3 -74 164 -160 458 l-48 165 -109 0 -108 0 -78 -260 c-43 -143 -101 -325 -129 -404 -28 -79 -51 -148 -51 -153 0 -4 92 -8 205 -8 l205 0 16 38 c9 20 22 55 29 77 l12 39 17 -77 17 -76 127 -3 127 -3 9 -32 10 -31 43 35 44 36 187 -7 c103 -3 216 -9 252 -12 89 -8 242 12 314 41 38 16 63 21 67 14 3 -5 12 -9 19 -7 7 2 17 -11 24 -28 17 -48 60 -99 75 -90 7 5 11 17 8 27 -3 11 -1 19 5 19 5 0 7 4 3 9 -15 26 42 32 286 29 l252 -3 -8 85 c-4 47 -10 130 -14 185 l-6 100 -87 -3 c-81 -3 -88 -2 -88 16 0 18 10 20 117 24 109 5 161 0 208 -22 11 -5 36 -14 55 -19 19 -5 28 -10 19 -10 -16 -1 -17 -18 -5 -189 3 -42 1 -60 -6 -55 -7 4 -8 1 -4 -6 5 -7 11 -10 14 -7 3 4 14 -6 24 -21 10 -16 18 -24 18 -19 0 12 49 -58 78 -111 13 -24 22 -53 20 -65 -2 -17 3 -24 20 -26 19 -3 22 1 22 30 0 40 40 100 73 110 12 3 84 6 160 7 122 1 138 3 144 19 17 49 95 202 102 202 5 0 33 -49 63 -110 l53 -109 202 -1 202 0 21 -30 c29 -41 79 -75 92 -62 6 6 6 12 0 16 -5 3 -7 20 -3 38 l7 33 177 -2 177 -2 0 28 c0 15 6 41 14 57 17 34 38 176 30 198 -4 11 -14 13 -35 9 -29 -5 -29 -5 -29 42 l0 47 -90 -8 c-87 -6 -90 -6 -90 15 0 20 5 21 90 21 50 0 90 3 90 8 0 4 -9 48 -19 97 -14 65 -23 89 -32 86 -8 -1 -39 -5 -70 -8 -52 -5 -56 -4 -62 17 -3 13 -4 27 -1 32 7 11 55 10 131 -3 35 -6 66 -9 68 -7 4 4 -5 48 -36 171 l-10 37 -243 0 -244 0 -6 -47 c-3 -27 -8 -140 -12 -253 -9 -314 -19 -364 -27 -150 -4 96 -10 237 -13 313 l-6 137 -114 0 -114 0 -2 -37 c-1 -21 0 -57 1 -79 1 -23 -2 -44 -6 -47 -5 -3 -40 37 -77 89 -36 51 -71 94 -76 94 -5 0 -42 -43 -82 -95z m-1565 14 c21 -7 55 -27 75 -45 33 -29 37 -36 37 -82 0 -56 -17 -83 -75 -112 l-35 -18 48 -22 c82 -39 119 -104 120 -211 0 -120 -62 -189 -202 -225 -48 -12 -100 -15 -221 -12 -87 1 -161 6 -164 9 -3 3 -1 79 5 170 5 90 13 252 17 359 l7 195 45 7 c71 10 301 2 343 -13z m-1080 -161 c26 -90 76 -248 111 -353 35 -104 60 -194 56 -198 -4 -5 -29 -7 -55 -5 l-48 3 -27 120 c-32 144 -60 245 -69 245 -9 0 -59 -195 -75 -290 l-12 -75 -142 -3 c-124 -2 -142 -1 -142 13 0 9 25 89 55 178 30 89 77 239 105 332 28 94 53 176 55 183 3 8 27 12 73 12 l68 0 47 -162z m531 100 c3 -35 8 -146 11 -248 3 -102 8 -236 12 -297 l6 -113 -146 0 -147 0 0 33 c0 17 7 158 15 312 8 154 15 301 15 328 l0 47 114 0 114 0 6 -62z m1246 53 c0 -5 3 -23 6 -40 l7 -31 -92 0 -91 0 0 -80 0 -80 80 0 c44 0 80 -4 80 -9 0 -5 3 -23 6 -40 l7 -31 -86 0 -85 0 5 -62 c7 -96 1 -91 98 -83 l85 7 0 -39 c0 -22 3 -81 7 -132 l6 -91 -234 2 -234 3 1 30 c1 17 7 172 14 345 7 173 14 321 16 328 2 9 52 12 204 12 110 0 200 -4 200 -9z m730 -126 c0 -74 3 -135 8 -135 4 1 52 61 107 134 55 73 103 132 107 130 4 -3 49 -65 100 -139 l93 -135 7 38 c4 20 7 83 7 140 l1 102 63 0 63 0 13 -327 c7 -181 14 -341 15 -358 l1 -30 -105 -3 -105 -2 -47 92 c-26 51 -61 115 -78 142 l-31 49 -36 -59 c-20 -32 -53 -96 -75 -142 l-38 -83 -118 3 c-99 3 -117 5 -116 19 1 8 6 118 13 245 6 126 14 280 17 342 l6 112 64 0 64 0 0 -135z m1128 95 l10 -40 -94 0 -95 0 3 -77 3 -78 77 -3 78 -3 8 -32 c5 -18 7 -35 5 -39 -2 -5 -40 -8 -84 -8 l-79 0 0 -52 c0 -100 0 -101 95 -93 l82 7 6 -83 c4 -46 7 -105 7 -131 l0 -48 -231 0 -232 0 6 113 c4 61 9 186 12 277 3 91 8 202 11 248 l6 82 198 0 198 0 10 -40z m-1454 -138 c3 -5 8 -28 12 -50 l7 -42 -122 0 -122 0 6 38 c11 65 7 62 114 62 55 0 102 -4 105 -8z m-211 -159 c-13 -2 -33 -2 -45 0 -13 2 -3 4 22 4 25 0 35 -2 23 -4z"/>
<path d="M7844 4496 c-94 -42 -98 -157 -6 -205 22 -12 30 -20 20 -21 -10 0 -18 -2 -18 -3 0 -12 -82 -484 -90 -519 -19 -84 -33 -78 175 -78 201 0 193 -3 175 60 -24 83 -100 484 -95 500 6 19 -16 29 -70 31 -27 1 -25 3 16 15 61 19 90 52 96 107 5 40 2 48 -29 82 -31 34 -41 39 -89 42 -32 2 -66 -2 -85 -11z m116 -51 c65 -33 39 -107 -39 -113 -84 -6 -124 61 -65 107 31 25 64 27 104 6z m33 -472 c26 -131 48 -241 47 -245 0 -7 -240 -12 -240 -5 0 2 11 59 24 127 13 69 32 178 42 243 l18 117 31 0 31 0 47 -237z"/>
<path d="M7566 3631 c-16 -17 -16 -19 3 -24 22 -6 64 20 56 34 -10 15 -41 10 -59 -10z"/>
<path d="M7650 3633 c0 -5 5 -14 11 -20 9 -9 6 -18 -9 -37 -16 -21 -21 -23 -26 -11 -6 18 -42 20 -52 3 -5 -8 -2 -9 9 -5 14 5 15 2 6 -19 -5 -14 -6 -30 -3 -36 5 -7 -2 -9 -19 -6 -19 4 -35 -4 -63 -28 l-37 -34 40 -47 c22 -27 48 -49 57 -51 16 -4 20 2 30 49 4 18 17 31 43 42 48 20 115 33 93 18 -8 -6 -22 -11 -31 -11 -30 0 -80 -32 -90 -57 -11 -30 -11 -33 1 -33 6 0 10 6 10 13 0 15 45 57 61 57 5 0 31 -10 57 -21 51 -24 58 -23 54 4 -3 16 0 17 17 7 12 -6 21 -15 21 -21 0 -6 5 -7 10 -4 6 3 10 20 10 36 0 20 4 29 13 26 7 -2 11 -19 10 -41 -2 -30 1 -36 17 -36 32 0 25 43 -17 105 -21 30 -43 55 -49 55 -7 0 -26 16 -44 36 -22 25 -30 30 -28 18 3 -18 -2 -20 -34 -15 -7 1 -20 16 -29 33 -14 30 -39 49 -39 31z m61 -85 c5 -8 2 -16 -6 -21 -8 -4 -15 -13 -15 -19 0 -20 -33 -48 -57 -48 -28 0 -28 0 -2 59 17 42 24 48 46 45 14 -1 30 -8 34 -16z"/>
<path d="M5865 3546 c-14 -14 -25 -30 -25 -36 0 -16 38 -50 56 -50 8 0 13 -3 11 -7 -3 -5 7 -9 21 -10 19 -1 36 9 59 35 18 21 33 40 33 43 0 8 -41 27 -70 32 -14 2 -33 8 -42 12 -12 4 -25 -1 -43 -19z"/>
<path d="M4108 3548 c7 -9 5 -20 -10 -37 -15 -19 -21 -22 -27 -12 -6 10 -22 11 -60 6 -58 -8 -60 -12 -39 -102 14 -58 27 -65 55 -29 25 31 71 40 125 25 51 -15 78 -35 78 -59 0 -10 6 -32 14 -50 l13 -33 18 31 c10 17 22 29 27 26 14 -9 9 -44 -7 -50 -17 -7 -20 -30 -5 -39 6 -3 17 1 26 10 23 23 16 162 -9 176 -9 6 -17 19 -17 29 0 13 -7 20 -20 20 -11 0 -20 6 -20 13 0 7 -9 19 -20 27 -14 10 -16 16 -7 22 8 5 5 8 -8 8 -11 0 -26 -4 -34 -9 -16 -10 -6 -31 15 -31 26 0 14 -28 -21 -50 -62 -39 -104 -2 -45 40 34 24 37 41 14 64 -19 20 -52 22 -36 4z"/>
<path d="M3811 3491 c-12 -16 -21 -31 -21 -34 0 -2 18 -4 40 -4 43 0 52 16 26 50 -18 23 -21 22 -45 -12z"/>
<path d="M6069 3483 c0 -5 0 -37 1 -72 2 -68 5 -65 -47 -44 -7 3 -18 -7 -24 -21 -15 -32 -36 -34 -35 -4 1 13 -4 23 -11 23 -7 0 -18 8 -25 18 -10 13 -32 19 -88 22 -41 3 -69 2 -62 -1 6 -3 12 -12 12 -20 0 -9 11 -14 30 -14 26 0 30 -4 30 -27 0 -16 -7 -37 -15 -47 -13 -17 -15 -18 -15 -3 0 18 -15 23 -24 8 -4 -5 -1 -11 6 -13 7 -3 8 -10 4 -17 -8 -12 -57 -10 -123 6 -13 3 -23 0 -23 -6 0 -6 8 -8 18 -4 15 6 15 5 3 -11 -11 -13 -23 -16 -43 -12 -16 3 -27 2 -24 -3 7 -10 -37 -29 -78 -33 -46 -5 -53 -28 -31 -95 10 -32 28 -76 40 -98 12 -22 28 -66 35 -99 10 -44 19 -61 37 -69 36 -16 69 5 99 65 29 58 42 71 93 93 43 19 169 19 276 0 67 -12 84 -19 108 -45 17 -20 27 -41 27 -62 0 -30 -1 -31 -14 -13 -7 11 -16 30 -20 43 -11 33 -53 50 -158 63 -108 13 -191 6 -235 -21 -52 -31 -89 -131 -63 -170 8 -12 10 -12 10 5 0 27 23 70 38 71 36 4 37 4 22 14 -13 8 -12 10 5 11 11 1 28 0 38 -1 11 -1 21 7 24 19 5 19 49 41 83 41 9 0 27 -11 39 -24 13 -14 33 -26 45 -28 13 -2 22 -12 24 -25 2 -14 10 -23 21 -23 10 0 24 -11 31 -25 7 -14 17 -25 22 -25 4 0 8 -18 8 -40 0 -44 11 -50 47 -25 17 12 23 28 25 66 l3 51 28 -27 c16 -17 30 -44 34 -67 6 -40 6 -40 26 -20 11 11 21 33 23 48 1 16 7 30 13 32 5 2 7 10 4 18 -3 8 0 14 6 14 6 0 16 12 22 28 l11 27 24 -28 c17 -19 24 -40 24 -67 0 -34 -5 -43 -35 -62 -41 -27 -43 -40 -11 -74 27 -30 59 -29 64 1 6 31 21 42 33 25 15 -21 2 104 -18 172 -8 29 -20 83 -27 119 -12 74 -37 114 -78 128 -20 7 -30 19 -34 41 -6 26 -11 30 -40 30 -67 0 -130 63 -140 139 -11 92 -34 151 -59 151 -8 0 -15 -3 -16 -7z m-55 -198 c8 -8 27 -15 43 -15 33 0 50 -10 54 -30 5 -25 -11 -59 -31 -65 -23 -7 -41 -28 -44 -52 -2 -11 -15 -20 -36 -24 -19 -4 -39 -14 -45 -23 -10 -13 -15 -13 -41 5 -16 10 -37 19 -46 19 -38 0 -17 53 43 107 22 20 47 49 56 64 20 33 26 35 47 14z"/>
<path d="M3800 3425 c0 -8 -4 -15 -9 -15 -11 0 -22 -38 -12 -44 3 -2 21 13 39 35 l33 39 -25 0 c-16 0 -26 -6 -26 -15z"/>
<path d="M7347 3393 c-4 -3 -7 -21 -7 -39 l0 -33 35 20 c40 24 43 34 16 49 -23 12 -35 13 -44 3z"/>
<path d="M4042 3370 c-17 -27 -15 -50 3 -27 7 10 29 22 49 27 30 7 39 4 61 -16 14 -13 25 -28 25 -34 0 -6 5 -8 12 -4 8 5 9 0 6 -14 -4 -12 -2 -22 3 -22 14 0 23 51 12 68 -13 21 -69 40 -118 41 -30 1 -43 -4 -53 -19z"/>
<path d="M7802 3346 c-17 -9 -20 -14 -10 -24 18 -18 -11 -43 -54 -48 -67 -7 -76 -12 -70 -39 4 -25 26 -34 37 -15 5 8 11 7 21 -1 11 -9 14 -8 14 6 0 10 3 15 7 12 3 -4 12 -2 20 4 7 7 28 19 46 28 22 11 33 24 35 42 4 35 -16 51 -46 35z"/>
<path d="M7372 3328 c-12 -16 -10 -77 3 -80 5 -2 12 13 15 32 4 20 10 41 14 48 10 16 -18 16 -32 0z"/>
<path d="M4177 3230 c7 -26 -23 -27 -84 -4 -42 16 -44 16 -58 -2 -20 -27 -18 -34 8 -34 13 0 27 -3 31 -7 3 -4 35 -8 71 -9 57 -2 65 0 79 21 21 32 11 55 -24 55 -23 0 -27 -4 -23 -20z"/>
<path d="M5155 3157 c-8 -13 -20 -38 -27 -57 -6 -19 -21 -42 -31 -51 -13 -10 -18 -22 -14 -34 8 -18 10 -18 107 4 25 6 70 11 100 11 55 1 55 1 27 16 -15 8 -25 20 -21 25 7 12 -43 86 -67 100 -30 15 -58 10 -74 -14z"/>
<path d="M5207 3001 c-31 -5 -56 -16 -72 -31 -24 -25 -29 -41 -41 -132 l-7 -48 30 0 c27 0 32 5 48 48 26 69 88 151 125 165 20 7 -22 6 -83 -2z m-51 -67 c-3 -9 -6 -22 -6 -30 0 -8 -7 -14 -14 -14 -12 0 -13 6 -5 30 6 17 15 30 21 30 6 0 7 -7 4 -16z"/>
<path d="M5490 2975 c7 -8 17 -15 22 -15 6 0 5 7 -2 15 -7 8 -17 15 -22 15 -6 0 -5 -7 2 -15z"/>
<path d="M6168 2703 c-10 -2 -18 -9 -18 -14 0 -5 -7 -9 -15 -9 -8 0 -15 -7 -15 -15 0 -11 12 -15 43 -16 23 -1 32 -4 20 -6 -23 -4 -33 -23 -12 -23 24 0 1 -24 -27 -27 -16 -2 -47 -13 -70 -24 -44 -21 -64 -24 -64 -10 0 4 -21 14 -47 20 -27 7 -64 16 -84 22 -24 6 -47 5 -68 -2 -38 -14 -40 -29 -3 -30 27 0 27 -1 5 -11 -13 -6 -23 -17 -23 -24 0 -7 -6 -14 -12 -17 -10 -3 -10 -7 0 -20 8 -9 11 -21 7 -27 -10 -17 26 -11 59 10 34 21 85 18 67 -4 -12 -15 3 -41 18 -31 7 3 9 15 6 26 -5 16 -1 19 26 19 27 0 30 -2 19 -15 -10 -12 -9 -15 8 -15 11 0 22 6 25 13 6 16 83 41 98 31 6 -3 31 -6 56 -6 38 1 49 7 85 44 37 38 40 45 35 82 -9 63 -58 95 -119 79z m-183 -173 c-3 -5 -18 -10 -33 -9 l-27 1 25 8 c35 11 42 11 35 0z"/>
</g>
<g id="layer109" fill="#f6d1de" stroke="none">
<path d="M6628 4425 c-39 -52 -75 -95 -80 -95 -4 0 -8 37 -10 83 l-3 82 -111 3 -111 3 -7 -77 c-3 -42 -6 -117 -6 -166 l0 -89 -32 3 c-33 3 -33 4 -43 73 l-10 70 -149 3 c-106 2 -152 -1 -157 -9 -4 -7 -10 -40 -14 -74 -6 -61 -7 -63 -38 -68 -40 -6 -48 2 -56 50 l-7 38 -74 0 c-70 0 -75 1 -78 23 -5 32 15 36 114 22 47 -6 87 -10 88 -8 1 2 -8 49 -22 106 l-24 102 -246 -2 -247 -3 -6 -155 c-4 -85 -7 -158 -8 -162 -2 -12 -101 -9 -101 2 0 6 9 27 20 47 25 47 26 116 2 163 -23 46 -83 86 -157 105 -62 16 -267 19 -375 7 l-55 -7 -6 -145 c-16 -361 -22 -448 -30 -390 -4 30 -10 149 -14 265 -3 115 -8 225 -11 243 l-5 32 -159 0 c-87 0 -161 -3 -163 -7 -3 -5 -10 -127 -16 -273 -14 -324 -17 -352 -38 -348 -18 3 -74 164 -160 458 l-48 165 -109 0 -108 0 -78 -260 c-43 -143 -101 -325 -129 -404 -28 -79 -51 -148 -51 -153 0 -4 92 -8 205 -8 l205 0 15 37 c9 21 12 39 7 41 -15 5 -1 62 18 72 15 8 19 0 34 -70 l18 -79 126 -3 127 -3 9 -32 10 -31 43 35 44 36 187 -7 c103 -3 216 -9 252 -12 89 -8 242 12 314 41 38 16 63 21 67 14 3 -5 12 -9 19 -7 7 2 17 -11 24 -28 17 -48 60 -99 75 -90 7 5 11 17 8 27 -3 11 -1 19 5 19 5 0 7 4 3 9 -15 26 42 32 286 29 l252 -3 -8 85 c-4 47 -10 130 -14 185 l-6 100 -87 -3 c-81 -3 -88 -2 -88 16 0 18 10 20 117 24 112 5 163 -1 210 -24 12 -6 33 -10 47 -10 15 0 29 -4 32 -9 3 -5 -2 -9 -10 -9 -9 0 -16 -4 -16 -10 0 -5 9 -10 20 -10 11 0 20 7 20 15 0 13 9 11 45 -10 78 -43 96 -57 131 -103 30 -39 38 -72 14 -57 -21 13 -40 -41 -40 -112 0 -75 -12 -94 -30 -47 -6 14 -20 28 -31 31 -15 4 -17 8 -8 14 10 6 10 9 -4 13 -9 4 -25 8 -34 12 -14 4 -15 7 -4 13 9 6 10 11 2 15 -14 9 -31 -1 -31 -18 0 -6 14 -34 32 -62 18 -27 38 -59 44 -71 32 -58 49 -83 57 -83 4 0 6 4 3 9 -4 5 -3 11 1 13 5 1 21 22 36 44 34 51 47 54 219 54 113 0 129 2 135 18 17 49 95 202 102 202 5 0 33 -49 63 -110 l53 -109 198 -1 c190 0 227 -5 248 -33 3 -5 9 2 13 15 4 14 9 18 13 11 5 -15 39 -17 47 -4 3 5 85 8 181 8 l175 -2 0 60 c0 42 3 56 10 45 5 -8 10 -10 10 -5 0 6 7 43 15 84 20 92 14 112 -26 104 -29 -5 -29 -5 -29 42 l0 47 -90 -8 c-87 -6 -90 -6 -90 15 0 20 5 21 90 21 50 0 90 3 90 8 0 4 -9 48 -19 97 -14 65 -23 89 -32 86 -8 -1 -39 -5 -70 -8 -52 -5 -56 -4 -62 17 -3 13 -4 27 -1 32 7 11 55 10 131 -3 35 -6 66 -9 68 -7 4 4 -5 48 -36 171 l-10 37 -243 0 -244 0 -6 -47 c-3 -27 -8 -140 -12 -253 -9 -314 -19 -364 -27 -150 -4 96 -10 237 -13 313 l-6 137 -114 0 -114 0 -2 -37 c-1 -21 0 -57 1 -79 1 -23 -2 -44 -6 -47 -5 -3 -40 37 -77 89 -36 51 -71 94 -76 94 -5 0 -42 -43 -82 -95z m-1565 14 c21 -7 55 -27 75 -45 33 -29 37 -36 37 -82 0 -56 -17 -83 -75 -112 l-35 -18 48 -22 c82 -39 119 -104 120 -211 0 -120 -62 -189 -202 -225 -48 -12 -100 -15 -221 -12 -87 1 -161 6 -164 9 -3 3 -1 79 5 170 5 90 13 252 17 359 l7 195 45 7 c71 10 301 2 343 -13z m-1080 -161 c26 -90 76 -248 111 -353 35 -104 60 -194 56 -198 -4 -5 -29 -7 -55 -5 l-48 3 -27 120 c-32 144 -60 245 -69 245 -9 0 -59 -195 -75 -290 l-12 -75 -142 -3 c-124 -2 -142 -1 -142 13 0 9 25 89 55 178 30 89 77 239 105 332 28 94 53 176 55 183 3 8 27 12 73 12 l68 0 47 -162z m531 100 c3 -35 8 -146 11 -248 3 -102 8 -236 12 -297 l6 -113 -146 0 -147 0 0 33 c0 17 7 158 15 312 8 154 15 301 15 328 l0 47 114 0 114 0 6 -62z m1246 53 c0 -5 3 -23 6 -40 l7 -31 -92 0 -91 0 0 -80 0 -80 80 0 c44 0 80 -4 80 -9 0 -5 3 -23 6 -40 l7 -31 -86 0 -85 0 5 -62 c7 -96 1 -91 98 -83 l85 7 0 -39 c0 -22 3 -81 7 -132 l6 -91 -234 2 -234 3 1 30 c1 17 7 172 14 345 7 173 14 321 16 328 2 9 52 12 204 12 110 0 200 -4 200 -9z m730 -126 c0 -74 3 -135 8 -135 4 1 52 61 107 134 55 73 103 132 107 130 4 -3 49 -65 100 -139 l93 -135 7 38 c4 20 7 83 7 140 l1 102 63 0 63 0 13 -327 c7 -181 14 -341 15 -358 l1 -30 -105 -3 -105 -2 -47 92 c-26 51 -61 115 -78 142 l-31 49 -36 -59 c-20 -32 -53 -96 -75 -142 l-38 -83 -118 3 c-99 3 -117 5 -116 19 1 8 6 118 13 245 6 126 14 280 17 342 l6 112 64 0 64 0 0 -135z m1128 95 l10 -40 -94 0 -95 0 3 -77 3 -78 77 -3 78 -3 8 -32 c5 -18 7 -35 5 -39 -2 -5 -40 -8 -84 -8 l-79 0 0 -52 c0 -100 0 -101 95 -93 l82 7 6 -83 c4 -46 7 -105 7 -131 l0 -48 -231 0 -232 0 6 113 c4 61 9 186 12 277 3 91 8 202 11 248 l6 82 198 0 198 0 10 -40z m-1454 -138 c3 -5 8 -28 12 -50 l7 -42 -122 0 -122 0 6 38 c11 65 7 62 114 62 55 0 102 -4 105 -8z m-196 -159 c-16 -2 -40 -2 -55 0 -16 2 -3 4 27 4 30 0 43 -2 28 -4z m-695 -333 c-5 -48 -8 -58 -14 -42 -5 12 -16 22 -24 22 -14 0 -14 4 3 28 10 15 22 36 26 46 12 34 16 11 9 -54z m-1073 38 c0 -19 -2 -20 -10 -8 -13 19 -13 30 0 30 6 0 10 -10 10 -22z m2020 -213 c0 -8 -7 -15 -15 -15 -8 0 -15 7 -15 15 0 8 7 15 15 15 8 0 15 -7 15 -15z"/>
<path d="M4918 4374 c-5 -4 -8 -45 -8 -91 l0 -83 45 0 c58 0 91 16 105 51 15 36 3 76 -31 102 -28 20 -99 34 -111 21z m76 -60 c21 -8 21 -50 0 -58 -20 -8 -20 -9 -27 32 -7 32 -2 37 27 26z"/>
<path d="M7780 3531 c0 -5 -9 -11 -20 -14 -28 -7 -25 -33 5 -53 14 -9 25 -22 25 -30 0 -12 29 -34 44 -34 3 0 3 14 0 30 -5 22 -3 30 8 30 23 0 46 -23 51 -50 3 -20 5 -22 11 -8 9 19 -55 118 -82 130 -24 10 -42 9 -42 -1z"/>
<path d="M6369 3106 c24 -13 24 -14 5 -24 -18 -9 -19 -18 -14 -72 6 -61 23 -88 45 -70 7 6 11 2 12 -12 1 -12 7 -24 13 -28 6 -4 10 -11 8 -16 -1 -5 4 -19 11 -32 19 -36 -6 -122 -36 -122 -7 0 -13 -4 -13 -10 0 -5 5 -10 10 -10 6 0 10 -9 10 -20 0 -31 15 -24 25 13 7 21 16 32 28 31 22 -2 22 2 -8 119 -13 54 -27 125 -31 158 -7 62 -39 109 -73 109 -11 -1 -8 -5 8 -14z"/>
</g>
<g id="layer110" fill="#faf9fa" stroke="none">
<path d="M6628 4425 c-39 -52 -75 -95 -80 -95 -4 0 -8 37 -10 83 l-3 82 -111 3 -111 3 -7 -77 c-3 -42 -6 -117 -6 -166 l0 -89 -32 3 c-33 3 -33 4 -43 73 l-10 70 -149 3 c-106 2 -152 -1 -157 -9 -4 -7 -10 -40 -14 -74 -6 -61 -7 -63 -38 -68 -40 -6 -48 2 -56 50 -6 36 -9 38 -41 37 -19 0 -54 -4 -77 -9 l-43 -8 0 42 c0 36 3 42 18 37 24 -7 184 -28 186 -24 1 2 -8 49 -22 106 l-24 102 -246 -2 -247 -3 -6 -155 c-4 -85 -7 -158 -8 -162 -2 -12 -101 -9 -101 2 0 6 9 27 20 47 42 78 18 175 -55 225 -71 49 -147 61 -343 55 -96 -2 -177 -9 -182 -13 -4 -5 -13 -155 -20 -334 -6 -179 -14 -327 -16 -329 -12 -13 -15 34 -19 305 -3 165 -7 314 -10 332 l-6 32 -159 0 c-87 0 -161 -3 -163 -7 -3 -5 -10 -127 -16 -273 -14 -324 -17 -352 -38 -348 -18 3 -74 164 -160 458 l-48 165 -109 0 -108 0 -78 -260 c-43 -143 -101 -325 -129 -404 -28 -79 -51 -148 -51 -153 0 -4 92 -8 205 -8 l205 0 15 37 c9 21 12 39 7 41 -15 5 -1 62 18 72 15 8 19 0 34 -70 l18 -79 126 -3 127 -3 9 -32 10 -31 43 35 44 36 187 -7 c103 -3 216 -9 252 -12 89 -8 242 12 314 41 38 16 63 21 67 14 3 -5 12 -9 19 -7 7 2 17 -11 24 -28 17 -48 60 -99 75 -90 7 5 11 17 8 27 -3 11 -1 19 5 19 5 0 7 4 3 9 -15 26 42 32 286 29 l252 -3 -8 85 c-4 47 -10 130 -14 185 l-6 100 -87 -3 c-81 -3 -88 -2 -88 16 0 18 10 20 117 24 112 5 163 -1 210 -24 12 -6 33 -10 47 -10 15 0 29 -4 32 -9 3 -5 -2 -9 -10 -9 -9 0 -16 -4 -16 -10 0 -5 9 -10 20 -10 11 0 20 7 20 15 0 13 9 11 45 -10 78 -43 96 -57 131 -103 30 -39 38 -72 14 -57 -21 13 -40 -41 -40 -112 0 -75 -12 -94 -30 -47 -6 14 -20 28 -31 31 -15 4 -17 8 -8 14 10 6 10 9 -4 13 -9 4 -25 8 -34 12 -14 4 -15 7 -4 13 9 6 10 11 2 15 -14 9 -31 -1 -31 -18 0 -6 14 -34 32 -62 18 -27 38 -59 44 -71 32 -58 49 -83 57 -83 4 0 6 4 3 9 -4 5 -3 11 1 13 5 1 21 22 36 44 34 51 47 54 219 54 113 0 129 2 135 18 17 49 95 202 102 202 5 0 33 -49 63 -110 l53 -109 198 -1 c190 0 227 -5 248 -33 3 -5 9 2 13 15 4 14 9 18 13 11 5 -15 39 -17 47 -4 3 5 85 8 181 8 l175 -2 0 60 c0 42 3 56 10 45 5 -8 10 -10 10 -5 0 6 7 43 15 84 20 92 14 112 -26 104 -29 -5 -29 -5 -29 42 l0 48 -47 -6 c-27 -3 -67 -9 -90 -13 -43 -7 -43 -7 -43 25 l0 31 90 -7 c50 -3 90 -2 90 3 0 9 -30 160 -36 181 -2 9 -16 8 -56 -3 -81 -21 -95 -19 -100 16 -7 49 0 51 106 34 54 -9 99 -14 102 -12 3 4 -7 50 -37 171 l-10 37 -244 0 -244 0 -5 -52 c-3 -29 -8 -156 -12 -283 -3 -126 -9 -259 -13 -295 l-7 -65 -8 54 c-5 30 -9 156 -11 280 -1 124 -3 256 -4 294 l-1 67 -115 0 -115 0 -2 -37 c-1 -21 0 -57 1 -79 1 -23 -2 -44 -6 -47 -5 -3 -40 37 -77 89 -36 51 -71 94 -76 94 -5 0 -42 -43 -82 -95z m-1565 14 c21 -7 55 -27 75 -45 33 -29 37 -36 37 -82 0 -56 -17 -83 -75 -112 l-35 -18 48 -22 c82 -39 119 -104 120 -211 0 -120 -62 -189 -202 -225 -48 -12 -100 -15 -221 -12 -87 1 -161 6 -164 9 -3 3 -1 79 5 170 5 90 13 252 17 359 l7 195 45 7 c71 10 301 2 343 -13z m-1080 -161 c26 -90 76 -248 111 -353 35 -104 60 -194 56 -198 -4 -5 -29 -7 -55 -5 l-48 3 -27 120 c-32 144 -60 245 -69 245 -9 0 -59 -195 -75 -290 l-12 -75 -142 -3 c-124 -2 -142 -1 -142 13 0 9 25 89 55 178 30 89 77 239 105 332 28 94 53 176 55 183 3 8 27 12 73 12 l68 0 47 -162z m531 100 c3 -35 8 -146 11 -248 3 -102 8 -236 12 -297 l6 -113 -146 0 -147 0 0 33 c0 17 7 158 15 312 8 154 15 301 15 328 l0 47 114 0 114 0 6 -62z m1246 53 c0 -5 3 -23 6 -40 l7 -31 -92 0 -91 0 0 -80 0 -80 80 0 c44 0 80 -4 80 -9 0 -5 3 -23 6 -40 l7 -31 -86 0 -85 0 5 -62 c7 -96 1 -91 98 -83 l85 7 0 -39 c0 -22 3 -81 7 -132 l6 -91 -234 2 -234 3 1 30 c1 17 7 172 14 345 7 173 14 321 16 328 2 9 52 12 204 12 110 0 200 -4 200 -9z m730 -126 c0 -74 3 -135 8 -135 4 1 52 61 107 134 55 73 103 132 107 130 4 -3 49 -65 100 -139 l93 -135 7 38 c4 20 7 83 7 140 l1 102 63 0 63 0 13 -327 c7 -181 14 -341 15 -358 l1 -30 -105 -3 -105 -2 -47 92 c-26 51 -61 115 -78 142 l-31 49 -36 -59 c-20 -32 -53 -96 -75 -142 l-38 -83 -118 3 c-99 3 -117 5 -116 19 1 8 6 118 13 245 6 126 14 280 17 342 l6 112 64 0 64 0 0 -135z m1128 95 l10 -40 -94 0 -95 0 3 -77 3 -78 77 -3 78 -3 8 -32 c5 -18 7 -35 5 -39 -2 -5 -40 -8 -84 -8 l-79 0 0 -52 c0 -100 0 -101 95 -93 l82 7 6 -83 c4 -46 7 -105 7 -131 l0 -48 -231 0 -232 0 6 113 c4 61 9 186 12 277 3 91 8 202 11 248 l6 82 198 0 198 0 10 -40z m-1454 -138 c3 -5 8 -28 12 -50 l7 -42 -122 0 -122 0 6 38 c11 65 7 62 114 62 55 0 102 -4 105 -8z m-196 -159 c-16 -2 -40 -2 -55 0 -16 2 -3 4 27 4 30 0 43 -2 28 -4z m-695 -333 c-5 -48 -8 -58 -14 -42 -5 12 -16 22 -24 22 -14 0 -14 4 3 28 10 15 22 36 26 46 12 34 16 11 9 -54z m-1073 38 c0 -19 -2 -20 -10 -8 -13 19 -13 30 0 30 6 0 10 -10 10 -22z m2020 -213 c0 -8 -7 -15 -15 -15 -8 0 -15 7 -15 15 0 8 7 15 15 15 8 0 15 -7 15 -15z"/>
<path d="M4918 4374 c-5 -4 -8 -45 -8 -91 l0 -83 45 0 c58 0 91 16 105 51 15 36 3 76 -31 102 -28 20 -99 34 -111 21z m87 -89 c0 -23 -5 -31 -22 -33 -14 -2 -23 3 -25 15 -7 33 3 54 26 51 16 -2 21 -10 21 -33z"/>
<path d="M4920 4078 c0 -93 10 -138 29 -138 35 0 92 22 111 42 30 33 27 98 -6 132 -22 22 -36 26 -80 26 l-54 0 0 -62z m98 0 c19 -19 14 -56 -9 -68 -26 -14 -27 -14 -35 38 -6 37 -4 42 13 42 10 0 24 -5 31 -12z"/>
<path d="M7844 4496 c-94 -42 -98 -157 -6 -205 22 -12 30 -20 20 -21 -10 0 -18 -1 -18 -3 0 -6 -90 -536 -96 -564 l-6 -33 186 0 c203 0 194 -3 176 60 -24 83 -100 484 -95 500 6 19 -16 29 -70 31 -27 1 -25 3 16 15 61 19 90 52 96 107 5 40 2 48 -29 82 -31 34 -41 39 -89 42 -32 2 -66 -2 -85 -11z m116 -51 c65 -33 39 -107 -39 -113 -84 -6 -124 61 -65 107 31 25 64 27 104 6z m33 -472 c26 -131 48 -241 47 -245 0 -7 -240 -12 -240 -5 0 2 11 59 24 127 13 69 32 178 42 243 l18 117 31 0 31 0 47 -237z"/>
<path d="M6060 3800 c19 -13 30 -13 30 0 0 6 -10 10 -22 10 -19 0 -20 -2 -8 -10z"/>
<path d="M7286 3623 c-4 -10 -4 -14 0 -10 4 4 13 -1 20 -11 7 -9 16 -13 21 -8 4 5 2 11 -4 13 -7 3 -13 11 -13 19 0 20 -16 18 -24 -3z"/>
<path d="M7650 3635 c0 -3 6 -14 13 -25 10 -17 9 -22 -3 -30 -17 -11 -16 -11 22 -16 l28 -3 -20 40 c-17 33 -40 52 -40 34z"/>
<path d="M4130 3599 c0 -5 4 -8 9 -5 5 4 11 0 14 -6 3 -10 8 -10 18 1 9 9 9 11 2 7 -7 -4 -13 -2 -13 3 0 6 -7 11 -15 11 -8 0 -15 -5 -15 -11z"/>
<path d="M7780 3531 c0 -5 -9 -11 -20 -14 -28 -7 -25 -33 5 -53 14 -9 25 -22 25 -30 0 -12 29 -34 44 -34 3 0 3 14 -1 32 -6 28 -4 31 15 26 26 -7 27 3 7 41 -16 31 -75 57 -75 32z"/>
<path d="M7567 3483 c-11 -10 -8 -83 3 -83 6 0 10 13 10 29 0 17 5 33 10 36 6 3 10 10 10 16 0 10 -23 12 -33 2z"/>
<path d="M4036 3458 c-9 -12 -16 -32 -16 -43 1 -18 1 -19 11 -2 6 9 14 15 20 12 5 -3 6 1 3 9 -3 9 2 17 15 21 12 3 19 11 16 16 -10 16 -33 10 -49 -13z"/>
<path d="M4255 3431 c6 -11 3 -13 -13 -9 -12 4 -22 2 -22 -4 0 -5 -4 -7 -9 -4 -5 3 0 -11 10 -32 11 -20 17 -43 14 -51 -3 -7 -1 -19 4 -25 5 -6 11 -20 13 -31 3 -17 6 -15 21 13 10 17 22 32 27 32 16 0 11 -50 -5 -56 -17 -7 -20 -30 -5 -39 6 -3 17 0 25 9 22 22 17 141 -6 170 l-18 21 -1 -27 c0 -27 -16 -40 -18 -15 -2 26 -8 47 -17 54 -4 4 -5 2 0 -6z"/>
<path d="M7752 3419 c-7 -10 -8 -19 -3 -19 5 0 17 -7 25 -16 15 -14 16 -13 16 9 0 36 -23 51 -38 26z"/>
<path d="M4075 3422 c-12 -12 -3 -17 30 -17 19 0 35 3 35 8 0 4 -3 8 -7 8 -29 5 -53 5 -58 1z"/>
<path d="M4066 3382 c-3 -5 9 -9 27 -9 18 1 39 -3 46 -7 9 -6 12 -4 9 5 -5 16 -73 25 -82 11z"/>
<path d="M4160 3361 c1 -3 6 -16 13 -29 l13 -23 11 24 c10 22 9 25 -13 30 -13 2 -24 1 -24 -2z"/>
<path d="M7791 3341 c-10 -6 -10 -10 -1 -16 6 -4 9 -13 6 -21 -4 -10 3 -14 24 -14 25 0 30 4 30 25 0 14 -4 25 -9 25 -5 0 -15 2 -23 5 -7 3 -19 1 -27 -4z"/>
<path d="M4204 3314 c-4 -10 -9 -22 -11 -26 -2 -5 0 -8 6 -8 11 0 26 39 17 47 -3 3 -9 -3 -12 -13z"/>
<path d="M5695 3250 c-4 -6 5 -10 19 -10 16 0 26 -6 26 -15 0 -8 -5 -15 -12 -15 -6 0 -9 -3 -6 -6 4 -3 -7 -33 -22 -67 -31 -67 -33 -75 -31 -124 1 -42 24 -43 41 -3 7 16 18 35 26 41 8 6 14 22 14 35 0 25 28 48 73 59 47 12 31 34 -33 45 -21 3 -35 11 -36 20 -3 42 -42 68 -59 40z"/>
<path d="M4177 3230 c4 -16 0 -20 -21 -20 -16 0 -25 -4 -21 -10 9 -15 81 -12 94 4 18 21 2 46 -29 46 -23 0 -27 -4 -23 -20z"/>
<path d="M6181 3114 c-21 -15 -23 -22 -18 -65 6 -46 37 -94 62 -94 6 0 10 -14 10 -30 0 -35 -16 -59 -27 -41 -8 11 -12 -12 -9 -46 1 -11 -7 -18 -25 -20 -26 -3 -27 -4 -11 -20 12 -12 14 -18 4 -21 -6 -3 0 -6 15 -6 25 -1 27 2 30 45 l3 46 28 -27 c16 -17 30 -44 34 -68 l6 -40 23 27 c16 18 22 36 20 56 -2 16 0 28 3 26 3 -3 12 7 18 21 11 22 10 26 -6 30 -14 4 -21 18 -26 56 -4 29 -17 81 -29 117 -20 59 -24 65 -51 68 -17 1 -41 -5 -54 -14z"/>
<path d="M6369 3106 c24 -13 24 -14 5 -24 -18 -9 -19 -18 -14 -72 6 -61 23 -88 45 -70 7 6 11 2 12 -12 1 -12 7 -24 14 -28 6 -4 9 -12 6 -16 -3 -5 1 -18 9 -29 18 -24 18 -16 -4 114 -19 107 -43 151 -81 151 -11 -1 -9 -5 8 -14z"/>
<path d="M6455 2800 c-10 -43 -26 -70 -42 -70 -7 0 -13 -4 -13 -10 0 -5 5 -10 10 -10 6 0 10 -9 10 -20 0 -11 5 -20 10 -20 6 0 10 9 10 20 0 11 9 29 20 40 18 18 20 27 12 63 l-8 42 -9 -35z"/>
<path d="M6168 2703 c-10 -2 -18 -9 -18 -14 0 -5 -7 -9 -15 -9 -8 0 -15 -7 -15 -15 0 -11 12 -15 43 -16 23 -1 32 -4 20 -6 -23 -4 -33 -23 -12 -23 24 0 1 -24 -27 -27 -16 -3 -50 -14 -76 -26 -40 -18 -46 -25 -46 -50 1 -26 4 -28 27 -21 14 4 37 7 51 6 111 -4 109 -5 152 40 37 38 40 45 35 82 -9 63 -58 95 -119 79z"/>
</g>


</svg>