<!DOCTYPE svg PUBLIC "-//W3C//DTD SVG 20010904//EN" "http://www.w3.org/TR/2001/REC-SVG-20010904/DTD/svg10.dtd">
<svg version="1.0" xmlns="http://www.w3.org/2000/svg" width="1200px" height="675px" viewBox="0 0 12000 6750" preserveAspectRatio="xMidYMid meet">
<g id="layer101" fill="#232223" stroke="none">
<path d="M6677 4511 c-15 -16 -27 -33 -27 -38 0 -5 -14 -24 -31 -42 -17 -19 -35 -45 -40 -58 -17 -45 -29 -24 -29 52 l0 75 -124 0 -123 0 -7 -31 c-3 -17 -6 -89 -6 -159 0 -69 -3 -129 -6 -132 -3 -3 -13 -4 -24 -1 -18 5 -20 12 -35 111 l-7 42 -157 0 -158 0 -14 -77 c-14 -77 -14 -78 -43 -76 -36 3 -35 1 -42 56 l-7 47 32 0 c26 0 31 3 28 18 -3 9 -15 59 -28 110 l-22 92 -259 0 -258 0 -1 -97 c-1 -54 -4 -127 -8 -163 l-6 -65 -37 -3 c-33 -3 -38 0 -38 17 0 12 4 21 9 21 14 0 31 58 31 103 0 108 -77 176 -222 197 -83 13 -248 10 -354 -6 l-42 -6 -6 -102 c-3 -55 -9 -171 -13 -256 -7 -150 -7 -153 -14 -75 -4 44 -10 160 -14 258 l-7 177 -174 0 -174 0 0 -42 c0 -76 -29 -580 -33 -584 -8 -8 -138 373 -137 402 0 6 -15 58 -34 115 l-35 104 -114 3 -114 3 -32 -103 c-64 -211 -100 -325 -127 -403 -14 -44 -33 -100 -41 -125 -7 -25 -23 -72 -35 -105 -11 -33 -23 -70 -25 -82 l-5 -23 180 0 c177 0 180 0 185 -22 4 -12 2 -27 -2 -32 -5 -6 -14 -27 -20 -48 -7 -20 -23 -48 -37 -63 -14 -15 -23 -33 -20 -40 5 -13 -13 -75 -25 -85 -11 -11 -39 -55 -39 -63 0 -5 7 -6 16 -3 13 5 15 2 10 -16 -3 -13 -6 -29 -6 -35 0 -7 -7 -13 -15 -13 -8 0 -15 5 -15 10 0 6 -7 10 -16 10 -13 0 -15 -9 -11 -52 11 -101 20 -133 54 -188 51 -81 82 -110 124 -116 21 -4 51 -20 73 -40 33 -31 43 -34 97 -34 32 0 59 4 59 8 0 5 11 14 25 20 14 6 25 17 25 24 0 7 19 21 41 32 53 24 102 77 139 150 29 57 30 64 30 197 0 123 -2 139 -19 151 -12 9 -21 33 -27 73 -12 82 -11 90 5 90 8 0 16 6 19 14 3 9 0 11 -9 6 -8 -5 3 9 24 29 31 31 40 36 52 26 12 -10 15 -10 15 0 0 13 75 12 400 -5 66 -4 137 -1 193 8 48 7 87 10 87 6 0 -3 25 -7 55 -7 61 0 79 -7 71 -29 -4 -8 -2 -11 5 -7 8 4 9 -1 4 -16 -6 -18 -4 -22 8 -17 10 4 22 -4 33 -21 12 -18 13 -27 6 -30 -7 -2 -12 -14 -12 -27 0 -17 -6 -22 -25 -22 -14 0 -28 3 -31 8 -3 5 -10 9 -15 9 -6 0 -1 -16 11 -35 21 -33 21 -37 6 -82 -8 -27 -20 -77 -27 -113 -6 -36 -17 -80 -25 -98 -8 -18 -14 -38 -14 -45 0 -25 -25 -66 -47 -76 -18 -8 -21 -15 -14 -33 4 -13 18 -24 30 -26 22 -3 28 -17 12 -26 -13 -8 -46 -75 -55 -109 -4 -16 -3 -26 1 -24 5 3 10 -6 11 -20 1 -14 8 -33 15 -42 9 -12 6 -12 -17 3 -32 20 -46 11 -46 -31 0 -37 -36 -108 -63 -122 -24 -13 -37 -46 -37 -94 0 -20 0 -20 15 -1 8 10 17 33 21 50 3 20 15 36 29 42 19 9 23 8 19 -2 -3 -8 1 -14 8 -13 47 2 48 -1 48 -71 0 -37 -4 -72 -9 -77 -5 -6 -12 -19 -15 -30 -3 -12 -4 -9 -2 7 3 24 0 27 -19 22 -13 -3 -28 1 -37 9 -7 8 -24 18 -37 22 l-23 7 5 -78 c8 -111 17 -146 42 -172 12 -12 28 -42 35 -67 7 -24 19 -50 26 -56 8 -6 14 -16 14 -22 0 -12 66 -112 89 -137 9 -9 32 -34 51 -55 60 -67 171 -153 219 -170 25 -9 80 -19 121 -22 41 -3 82 -11 90 -19 8 -7 27 -15 41 -19 14 -4 41 -20 58 -36 l32 -29 133 0 133 0 33 48 c18 27 52 61 76 76 42 27 61 66 32 66 -7 0 1 9 18 19 18 11 38 28 45 39 8 10 25 25 39 32 51 27 108 83 114 111 3 18 16 34 36 44 16 8 30 21 30 29 0 7 14 40 31 74 16 34 37 96 45 139 8 43 22 105 30 139 16 69 18 134 5 178 -27 90 -41 148 -51 208 -5 37 -19 88 -30 113 -11 26 -20 65 -21 88 -2 69 -12 90 -54 113 -42 21 -40 16 -81 164 -10 36 -28 88 -41 115 -25 55 -30 95 -10 95 8 0 7 4 -3 10 -13 9 -13 11 0 20 10 6 11 10 3 10 -23 0 -13 19 36 70 l49 50 134 0 133 0 22 48 c12 26 27 62 34 80 6 18 21 44 32 58 l20 26 43 -79 c24 -43 46 -90 49 -105 l7 -28 201 0 c193 0 203 -1 215 -20 7 -12 10 -25 7 -30 -3 -5 -1 -11 5 -15 5 -3 10 -1 10 4 0 6 10 2 23 -9 12 -10 31 -26 42 -35 11 -9 14 -13 6 -9 -11 5 -12 -3 -5 -47 5 -30 9 -83 9 -119 0 -36 4 -68 9 -72 5 -3 10 -37 10 -75 1 -55 4 -68 17 -71 21 -4 32 -62 12 -62 -7 0 -13 9 -13 20 0 12 -7 20 -16 20 -31 0 14 -116 58 -148 9 -7 33 -27 52 -45 18 -17 60 -42 92 -54 51 -20 74 -22 164 -19 122 5 168 18 176 52 3 13 12 28 20 35 8 6 14 20 14 30 0 11 11 36 23 57 57 91 58 220 2 326 -57 109 -104 176 -125 176 -10 0 -21 9 -25 20 -3 10 -19 30 -34 43 -16 13 -31 35 -35 48 -3 13 -3 18 0 12 4 -10 54 -13 200 -13 210 0 203 -2 185 56 -5 16 -14 61 -21 99 -7 39 -25 126 -41 195 -17 69 -30 153 -31 187 -1 53 -4 62 -22 67 -21 6 -21 6 3 19 36 18 63 75 58 119 -11 88 -91 134 -190 108 -28 -7 -61 -24 -74 -38 -46 -49 -39 -131 15 -179 15 -13 23 -27 19 -37 -4 -9 -11 -64 -17 -123 -14 -135 -28 -187 -46 -172 -8 6 -27 9 -44 7 -27 -4 -30 -2 -31 21 0 14 -2 36 -3 49 -2 13 1 25 5 28 4 2 1 24 -8 47 -8 23 -18 70 -22 105 l-7 62 28 0 c15 0 28 3 28 8 0 4 -12 53 -27 109 l-28 103 -251 0 -251 0 -7 -187 c-4 -104 -10 -215 -14 -248 -7 -58 -7 -57 -13 50 -4 61 -7 172 -8 248 l-1 137 -125 0 -124 0 -3 -76 -3 -76 -34 48 c-59 84 -105 144 -111 144 -3 0 -17 -13 -33 -29z m-923 -221 c56 -1 28 -16 -46 -25 -56 -7 -58 -6 -58 15 0 20 4 22 31 16 17 -3 50 -6 73 -6z m1855 0 c50 -1 21 -16 -46 -25 -50 -6 -53 -6 -53 15 0 20 4 22 31 16 17 -3 48 -6 68 -6z m16 -241 c-56 -11 -103 -11 -110 1 -4 6 22 10 72 9 68 -1 73 -2 38 -10z m-2561 -1401 c-4 -13 -7 -26 -6 -30 1 -5 -5 -8 -14 -8 -8 0 -12 5 -9 10 3 6 2 10 -4 10 -5 0 0 11 12 24 25 29 32 27 21 -6z"/>
<path d="M4980 2576 c0 -9 -4 -14 -10 -11 -5 3 -10 1 -10 -4 0 -6 5 -11 10 -11 13 0 25 28 16 37 -3 4 -6 -1 -6 -11z"/>
</g>
<g id="layer102" fill="#555555" stroke="none">
<path d="M6664 4488 c-21 -29 -48 -64 -61 -77 -13 -13 -23 -29 -23 -36 0 -7 -7 -18 -15 -25 -13 -11 -15 -2 -15 69 l0 81 -124 0 -123 0 -7 -46 c-3 -26 -6 -100 -6 -165 0 -119 0 -119 -24 -119 -22 0 -25 6 -35 63 -6 35 -11 71 -11 80 0 15 -17 17 -158 17 l-159 0 -14 -77 c-12 -69 -17 -78 -38 -81 -32 -5 -40 6 -47 61 -7 46 -6 47 20 47 33 0 33 12 5 131 l-21 89 -255 0 c-194 0 -255 -3 -258 -12 -2 -7 -6 -80 -9 -163 -3 -82 -6 -151 -6 -152 0 -2 -18 -3 -40 -3 -33 0 -40 3 -40 20 0 11 4 20 9 20 17 0 33 71 29 122 -6 55 -43 110 -98 142 -69 40 -254 56 -424 35 l-93 -12 -6 -111 c-4 -61 -10 -178 -14 -261 -7 -145 -7 -148 -14 -75 -4 41 -11 159 -14 263 l-7 187 -174 0 -174 0 0 -52 c-1 -97 -27 -569 -32 -574 -7 -7 -45 85 -62 151 -9 31 -29 97 -46 148 -16 51 -45 144 -64 207 l-34 115 -116 3 -115 3 -7 -28 c-3 -15 -17 -57 -30 -93 -13 -36 -24 -73 -24 -83 0 -15 -19 -76 -91 -297 -11 -36 -27 -79 -34 -95 -8 -17 -19 -51 -24 -76 -6 -25 -20 -67 -31 -93 -34 -80 -44 -76 180 -76 131 0 200 -4 200 -10 0 -6 -7 -13 -15 -16 -8 -4 -15 -12 -15 -20 0 -8 -4 -14 -10 -14 -5 0 -13 -18 -16 -40 -4 -22 -10 -40 -15 -40 -4 0 -11 -9 -14 -20 -3 -11 -12 -20 -20 -20 -9 0 -14 -12 -13 -32 0 -53 -13 -102 -23 -87 -7 11 -9 10 -9 -3 0 -10 4 -18 8 -18 5 0 9 -7 9 -15 0 -10 -6 -13 -19 -9 -10 3 -18 1 -18 -5 0 -6 5 -10 11 -9 6 2 14 -3 16 -9 3 -7 0 -13 -6 -13 -5 0 -8 -9 -6 -19 2 -11 -4 -26 -13 -33 -12 -10 -14 -10 -8 0 4 7 1 12 -8 12 -9 0 -16 6 -16 13 0 8 -3 8 -9 -2 -9 -14 -8 -72 2 -101 3 -8 8 -29 11 -47 6 -34 66 -134 102 -169 12 -12 40 -25 61 -28 24 -5 47 -18 63 -36 21 -24 35 -30 86 -35 60 -6 60 -6 101 33 23 22 51 43 63 47 35 11 99 76 133 135 31 54 32 58 35 196 4 130 2 143 -16 160 -13 13 -23 45 -31 97 l-13 78 42 41 42 41 191 -9 c284 -12 421 -10 497 10 36 9 69 21 74 26 20 20 47 9 73 -32 16 -24 38 -54 51 -68 13 -14 22 -38 22 -56 0 -34 -31 -70 -53 -61 -11 4 -14 -2 -10 -28 2 -19 0 -43 -6 -54 -6 -10 -13 -37 -16 -58 -6 -45 -16 -83 -45 -177 -26 -86 -37 -106 -56 -106 -23 0 -14 -52 9 -56 29 -4 32 -13 14 -43 -9 -16 -17 -35 -17 -42 0 -7 -8 -21 -17 -32 -10 -11 -13 -17 -6 -14 8 5 11 -5 9 -32 -2 -22 0 -44 3 -49 15 -23 109 -37 221 -33 32 1 12 22 -26 27 -15 1 -34 9 -42 18 -14 14 -14 16 2 22 11 4 30 0 46 -10 35 -20 50 -20 50 -1 0 24 37 38 71 26 18 -6 29 -6 29 0 0 21 40 7 60 -21 25 -35 32 -36 56 -13 13 14 15 28 10 75 -6 62 -29 118 -48 118 -6 0 -8 3 -5 7 13 13 48 -32 69 -89 15 -43 28 -62 45 -69 45 -17 72 -1 104 62 16 33 32 59 34 59 3 0 -3 -17 -14 -37 -45 -91 -36 -144 28 -160 44 -12 51 -9 51 19 0 20 21 24 49 7 14 -10 24 -8 49 11 38 28 79 21 88 -15 6 -26 18 -32 29 -15 9 15 25 12 25 -5 0 -8 -14 -17 -35 -21 -59 -11 -28 -24 58 -24 95 0 127 15 127 58 0 15 5 34 10 42 9 13 12 12 25 -4 20 -27 19 -49 -4 -77 -19 -23 -23 -24 -178 -24 -152 0 -278 15 -386 47 -29 9 -56 8 -125 -5 -124 -24 -286 -31 -395 -16 -51 6 -97 16 -104 21 -17 14 -33 1 -33 -26 0 -13 -7 -43 -15 -66 -8 -24 -14 -45 -12 -46 9 -10 47 40 47 61 0 13 5 27 10 30 6 3 10 1 10 -5 0 -6 5 -8 12 -4 8 5 9 0 4 -17 -4 -13 -10 -71 -12 -129 -3 -58 -9 -109 -15 -114 -5 -6 -9 -18 -9 -28 0 -10 -4 -18 -9 -18 -5 0 -7 9 -4 20 5 18 -5 25 -30 21 -4 -1 -17 8 -29 19 -41 38 -51 27 -45 -52 9 -109 16 -136 49 -168 16 -17 27 -34 23 -39 -3 -5 -1 -12 5 -16 5 -3 10 -12 10 -20 0 -23 70 -137 124 -200 73 -87 129 -145 138 -145 5 0 25 -15 44 -33 56 -50 72 -56 184 -64 66 -4 120 -19 120 -33 0 -4 15 -11 34 -14 18 -4 45 -19 60 -36 l26 -30 129 0 130 0 47 60 c26 33 51 60 56 60 5 0 21 11 35 24 22 21 24 27 14 40 -11 13 -10 17 5 23 11 4 32 22 48 40 16 18 33 33 38 33 5 0 31 17 58 38 33 25 52 48 59 72 7 22 22 41 41 52 17 10 30 25 30 36 0 11 8 30 18 43 27 35 46 93 59 174 2 17 13 67 24 111 21 89 24 146 10 172 -5 9 -11 36 -15 60 -3 23 -10 50 -15 60 -5 9 -14 49 -20 88 -6 39 -18 88 -27 110 -9 21 -21 75 -28 119 -11 78 -12 80 -48 97 -46 22 -49 29 -82 153 -15 54 -37 118 -50 142 -40 70 -23 176 33 204 14 8 30 20 34 26 6 9 46 13 145 13 l137 0 17 38 c9 20 26 59 37 85 11 26 29 59 39 72 l19 23 18 -44 c10 -24 23 -48 30 -54 6 -5 20 -34 30 -65 l19 -55 201 0 c198 0 202 0 223 -23 12 -13 22 -27 22 -33 0 -5 14 -17 30 -26 32 -18 51 -49 33 -55 -7 -3 -7 -20 -1 -56 6 -29 8 -75 5 -104 -4 -40 -3 -51 8 -47 9 4 13 -5 13 -31 0 -19 6 -43 14 -52 7 -9 8 -14 2 -10 -7 4 -14 -3 -16 -18 -5 -25 7 -35 15 -12 7 20 17 3 19 -36 2 -20 7 -37 12 -37 5 0 3 -6 -3 -14 -7 -8 -21 -12 -31 -9 -25 7 -26 -15 -2 -46 32 -43 127 -131 147 -137 11 -4 38 -15 60 -24 47 -21 188 -21 265 0 39 11 48 19 62 52 9 21 16 40 15 41 0 1 11 25 25 52 41 79 48 97 51 148 7 87 -12 155 -71 251 -7 11 -25 41 -41 66 -16 27 -36 46 -49 48 -12 2 -22 7 -22 11 0 4 -15 23 -33 42 -39 40 -60 93 -48 117 5 9 15 51 22 92 7 41 15 66 17 56 2 -11 -1 -44 -7 -75 -5 -31 -13 -73 -16 -94 l-6 -37 193 2 c165 3 193 5 191 18 -5 47 -45 250 -67 342 -15 60 -27 137 -28 173 -2 63 -3 65 -33 71 l-30 7 32 9 c41 11 78 81 68 130 -13 58 -39 84 -97 96 -108 21 -180 -20 -191 -108 -5 -40 5 -63 40 -102 16 -17 23 -33 19 -45 -3 -11 -10 -64 -16 -119 -12 -131 -40 -252 -52 -231 -5 9 -6 28 -4 43 5 25 3 26 -28 21 -33 -5 -34 -4 -40 33 -3 21 -3 51 0 68 3 16 1 39 -6 51 -6 12 -15 53 -19 92 l-7 69 28 0 c15 0 28 4 28 8 0 4 -11 46 -25 93 -13 46 -25 92 -25 102 0 16 -19 17 -254 17 l-253 0 -7 -197 c-4 -109 -10 -227 -14 -263 -7 -64 -7 -64 -13 50 -4 63 -7 181 -8 263 l-1 147 -125 0 -125 0 0 -76 c0 -47 -4 -73 -10 -69 -5 3 -29 36 -53 73 -24 37 -55 77 -69 90 l-25 23 -39 -53z m-1656 -206 c-2 -9 -11 -18 -21 -20 -13 -3 -17 3 -17 28 0 28 2 30 21 20 11 -6 19 -19 17 -28z m780 2 c7 -5 -73 -24 -105 -24 -27 0 -33 4 -33 21 0 19 4 20 68 14 37 -4 69 -9 70 -11z m1812 7 l45 -7 -40 -12 c-39 -12 -95 -16 -95 -8 0 2 -3 11 -6 20 -7 18 18 20 96 7z m-2582 -243 c2 -19 -3 -30 -17 -38 -20 -10 -21 -8 -21 30 0 34 3 41 18 38 10 -2 18 -14 20 -30z m2617 1 c-46 -10 -113 -10 -120 0 -6 11 96 19 130 11 16 -3 14 -5 -10 -11z m-2115 -609 c0 -5 -9 -10 -21 -10 -11 0 -17 5 -14 10 3 6 13 10 21 10 8 0 14 -4 14 -10z m395 -21 c7 -7 1 -8 -20 -3 -46 11 -67 26 -25 19 19 -3 39 -10 45 -16z m1905 -33 c0 -8 -4 -18 -10 -21 -5 -3 -10 3 -10 14 0 12 5 21 10 21 6 0 10 -6 10 -14z m-3820 -43 c14 4 20 0 20 -11 0 -14 -9 -16 -56 -14 -42 3 -55 1 -49 -8 18 -29 -84 -43 -111 -15 -14 13 -10 15 33 15 l48 0 -27 24 c-16 13 -28 27 -28 32 0 4 5 3 11 -3 7 -7 26 -9 46 -6 27 5 38 2 45 -11 12 -21 28 -12 29 17 0 22 0 21 10 -2 7 -17 15 -22 29 -18z m3731 -6 c-5 -5 -25 -12 -45 -17 -28 -6 -36 -5 -36 6 0 8 6 14 14 14 7 0 19 7 26 15 9 11 16 12 31 2 10 -6 15 -15 10 -20z m-117 -19 c7 -5 5 -8 -6 -8 -9 0 -33 -8 -52 -17 -26 -14 -34 -23 -30 -38 3 -15 -5 -26 -31 -42 -35 -23 -75 -30 -75 -14 0 5 14 14 30 21 32 13 40 29 15 31 -28 3 -33 4 -41 12 -4 4 2 7 14 7 11 0 22 5 24 12 3 7 21 12 42 12 33 0 37 3 34 21 -4 18 0 20 24 17 19 -3 28 0 29 9 0 11 2 10 6 -1 3 -8 11 -18 17 -22z m276 18 c0 -24 -17 -28 -23 -6 -3 13 0 20 9 20 8 0 14 -6 14 -14z m-3754 -39 c8 -26 3 -28 -39 -16 -48 13 -49 35 -2 35 25 0 37 -5 41 -19z m3604 3 c0 -5 -16 -10 -36 -10 -21 0 -33 4 -29 10 3 6 19 10 36 10 16 0 29 -4 29 -10z m-3502 -22 c-2 -6 -10 -14 -16 -16 -7 -2 -10 2 -6 12 7 18 28 22 22 4z m-133 -20 c14 -6 25 -15 25 -19 0 -10 -58 10 -66 22 -7 12 10 11 41 -3z m169 -47 c3 -5 -1 -14 -9 -21 -13 -10 -15 -9 -15 9 0 21 14 28 24 12z m-540 -87 c9 -3 16 -15 16 -26 0 -28 -33 -19 -35 10 -2 25 -2 24 19 16z m131 -91 c13 -30 18 -35 25 -23 5 8 10 23 10 32 0 30 22 32 43 4 13 -19 25 -25 38 -21 10 4 19 2 19 -4 0 -13 -39 -24 -66 -19 -16 2 -18 -2 -15 -31 1 -20 12 -42 24 -52 25 -21 10 -25 -27 -8 -17 8 -32 28 -42 58 -10 25 -20 51 -24 56 -14 20 -19 45 -10 45 5 0 17 -17 25 -37z m3865 -3 c-6 -11 -22 -23 -35 -26 -14 -3 -25 -8 -25 -10 0 -16 47 -64 62 -64 10 0 18 -4 18 -10 0 -5 -11 -10 -25 -10 -27 0 -75 19 -75 30 0 4 -19 20 -42 35 -25 17 -37 30 -30 33 8 2 24 -6 37 -18 26 -25 38 -11 24 28 -10 26 14 43 34 23 16 -16 47 -13 47 5 0 8 5 12 10 9 7 -4 7 -13 0 -25z m-255 -43 c0 -24 -18 -23 -27 3 -6 17 -4 21 10 18 9 -2 17 -11 17 -21z m334 -38 c-19 -12 -24 -2 -8 17 9 11 14 13 17 4 3 -7 -2 -16 -9 -21z m-3774 -39 c-3 -5 -16 -10 -28 -10 -18 0 -19 2 -7 10 20 13 43 13 35 0z m1445 -205 c21 -25 -26 -59 -100 -74 -36 -7 -73 -17 -82 -22 -26 -14 -36 -11 -84 19 -62 39 -57 52 19 53 36 0 81 8 107 19 56 22 123 25 140 5z m448 -29 c91 -31 99 -36 78 -48 -21 -12 -108 -1 -154 18 -29 12 -32 16 -22 34 13 25 12 25 98 -4z m447 -46 c15 -16 14 -20 -10 -49 -36 -42 -60 -42 -51 0 3 17 6 42 6 54 0 18 4 22 19 18 11 -3 27 -13 36 -23z m-1208 -306 c14 -14 23 -27 21 -29 -8 -8 -78 30 -78 42 0 21 29 15 57 -13z m-42 -136 c36 -16 50 -93 17 -93 -7 0 -16 -6 -21 -13 -6 -11 -14 -8 -36 11 l-28 24 22 22 21 21 -25 12 c-14 6 -25 15 -25 20 0 12 45 10 75 -4z m491 -69 c19 -11 34 -27 34 -36 0 -8 9 -17 20 -20 11 -3 20 -12 20 -19 0 -17 1 -17 34 -4 14 5 26 16 26 25 0 8 9 15 20 15 20 0 25 -15 14 -44 -3 -8 -26 -25 -51 -37 -36 -17 -54 -20 -95 -15 l-51 7 7 -32 c3 -18 12 -45 20 -60 7 -15 11 -38 9 -52 -4 -22 1 -27 42 -43 48 -18 75 -38 75 -55 0 -12 -87 -12 -95 1 -3 6 -17 10 -31 10 -25 0 -73 44 -74 66 0 7 -9 14 -20 17 -22 6 -28 46 -7 48 9 0 9 2 -1 6 -21 8 -152 199 -152 221 0 24 59 -26 80 -69 11 -21 27 -39 35 -39 9 0 15 -9 15 -22 0 -13 4 -29 9 -37 14 -22 43 53 45 114 2 80 15 89 72 54z m314 -310 c-13 -24 -67 -49 -105 -49 -37 0 -22 17 38 45 68 31 81 31 67 4z"/>
<path d="M4920 2547 c0 -11 1 -18 3 -16 1 2 8 11 15 20 9 13 9 16 -3 16 -8 0 -15 -9 -15 -20z"/>
</g>
<g id="layer103" fill="#d1023b" stroke="none">
<path d="M6677 4500 c-15 -16 -27 -34 -27 -38 0 -5 -10 -17 -21 -28 -12 -10 -33 -37 -48 -59 l-26 -40 -5 80 -5 80 -122 3 -123 3 -1 -46 c-1 -25 -3 -49 -4 -55 -1 -5 -3 -59 -4 -120 -1 -110 -1 -110 -26 -110 -25 0 -25 -2 -43 110 l-8 45 -154 0 -154 0 -14 -77 -14 -78 -33 0 c-32 0 -35 3 -40 38 -11 65 -8 62 -90 55 -72 -6 -75 -5 -75 16 0 18 6 21 45 21 24 0 67 -5 95 -11 74 -16 77 -9 48 108 l-24 98 -251 3 -250 2 -7 -37 c-3 -21 -6 -78 -6 -128 0 -49 -3 -107 -6 -127 -6 -36 -8 -38 -44 -38 -47 0 -54 15 -26 55 15 21 21 45 21 86 0 171 -192 237 -555 191 l-55 -7 -7 -120 c-3 -66 -10 -192 -14 -280 -4 -88 -9 -152 -11 -143 -3 10 -10 136 -16 280 l-12 263 -161 3 c-121 2 -164 -1 -171 -10 -6 -7 -16 -137 -23 -288 -7 -151 -14 -282 -16 -290 -1 -8 -3 -21 -3 -27 -2 -34 -20 -5 -46 75 -15 48 -43 131 -62 186 -18 54 -35 112 -38 130 -2 17 -19 74 -37 126 l-33 95 -109 0 -110 0 -34 -110 c-19 -60 -49 -159 -68 -220 -41 -135 -64 -204 -120 -368 -24 -70 -44 -130 -44 -132 0 -3 95 -5 211 -5 l211 0 32 35 c34 37 46 37 46 0 0 -18 -5 -21 -24 -18 -19 4 -28 -3 -50 -41 -28 -49 -63 -79 -79 -69 -6 3 -7 1 -3 -6 9 -14 -31 -81 -48 -81 -7 0 -13 -7 -13 -15 0 -8 4 -15 9 -15 4 0 8 -7 8 -15 0 -8 -4 -15 -10 -15 -5 0 -10 -13 -10 -30 0 -35 8 -37 52 -10 39 24 91 26 112 5 20 -20 26 -19 27 8 1 17 3 15 10 -10 7 -23 16 -33 29 -33 11 0 20 -7 20 -15 0 -20 10 -19 25 1 22 30 64 20 104 -25 38 -43 58 -51 67 -26 9 21 24 19 24 -5 0 -16 -8 -19 -57 -22 -52 -3 -55 -5 -33 -14 25 -11 25 -11 3 -18 -30 -10 -116 28 -128 57 -12 27 -59 35 -83 14 -10 -8 -29 -17 -44 -21 -29 -7 -36 -24 -17 -43 6 -6 11 -30 12 -54 2 -37 5 -44 25 -47 12 -2 22 -10 22 -19 0 -10 6 -13 17 -9 11 5 23 -1 34 -15 15 -21 18 -21 40 -5 41 29 52 19 23 -21 -15 -21 -39 -49 -53 -62 -22 -19 -23 -22 -6 -17 19 6 19 5 2 -8 -12 -10 -15 -16 -7 -21 11 -7 39 12 72 50 17 20 17 20 11 -2 -8 -32 9 -28 36 8 21 28 25 30 38 16 14 -14 11 -21 -32 -72 -26 -30 -45 -58 -41 -62 3 -4 -4 -17 -16 -30 -12 -13 -18 -23 -13 -23 14 0 73 40 78 53 3 6 22 21 43 31 39 20 92 69 119 110 28 42 55 137 45 155 -8 14 -9 13 -10 -5 0 -12 -11 -29 -25 -40 -16 -12 -21 -22 -15 -29 7 -8 2 -16 -15 -25 -14 -7 -25 -22 -25 -32 0 -18 -6 -20 -55 -20 -14 0 -29 0 -35 1 -15 2 -12 29 4 38 21 12 96 128 96 148 0 16 2 16 25 1 53 -35 67 -12 63 102 -2 46 -7 67 -19 75 -20 15 -50 153 -39 183 5 11 24 32 43 47 35 26 39 27 174 27 76 -1 185 -5 243 -10 164 -14 289 3 411 54 18 8 67 -38 90 -82 17 -34 40 -62 50 -62 5 0 25 23 46 50 l37 50 68 0 c54 0 68 -3 68 -15 0 -8 -7 -15 -15 -15 -8 0 -15 -4 -15 -10 0 -16 -32 -12 -52 7 -17 15 -19 15 -38 -2 -11 -10 -20 -25 -20 -34 0 -9 -7 -25 -15 -35 -8 -11 -15 -32 -15 -47 0 -15 -7 -29 -15 -33 -8 -3 -15 -16 -15 -28 -1 -34 -29 -79 -87 -142 -35 -37 -53 -66 -53 -82 0 -14 -8 -41 -19 -62 -10 -20 -22 -52 -26 -70 -4 -21 -16 -37 -31 -44 -31 -14 -32 -47 -1 -50 12 0 31 0 41 1 19 1 19 1 -1 -21 -30 -33 -55 -109 -51 -154 3 -34 6 -39 31 -42 21 -3 41 9 96 57 62 56 75 63 143 78 80 17 70 19 182 -35 19 -9 -3 83 -24 100 -27 22 -103 31 -233 26 -133 -4 -114 10 25 18 119 8 201 -6 236 -38 12 -12 30 -46 38 -76 29 -97 95 -99 143 -3 16 32 42 66 56 75 36 24 127 36 200 26 56 -7 54 -7 -41 -9 -87 -1 -106 -4 -135 -24 -62 -41 -99 -142 -69 -187 9 -13 11 -13 20 0 5 8 10 22 10 31 0 26 90 79 131 78 47 -1 104 -23 102 -40 -2 -15 69 -69 92 -69 21 0 27 -17 15 -40 -10 -18 -8 -20 27 -20 57 0 83 22 83 71 0 33 3 40 17 37 10 -2 24 -15 33 -30 13 -25 13 -30 -4 -62 l-18 -34 -114 -7 c-100 -6 -114 -9 -114 -25 0 -18 26 -30 66 -30 38 0 38 -30 -1 -46 -44 -18 -47 -18 -152 6 -154 36 -156 37 -182 80 -55 89 -172 88 -204 -2 -5 -15 -86 -58 -110 -58 -5 0 -20 -12 -34 -26 l-23 -26 28 -36 c33 -42 82 -141 82 -165 0 -9 -5 -19 -10 -22 -12 -7 5 -44 29 -62 19 -15 58 -17 66 -3 14 22 35 10 35 -20 0 -38 24 -49 50 -25 17 16 24 16 44 5 13 -7 29 -9 34 -6 6 4 12 -7 14 -26 5 -52 38 -49 95 7 56 54 99 78 126 69 18 -6 18 -6 0 -27 -29 -33 -68 -98 -80 -133 -17 -49 -59 -110 -98 -141 -33 -26 -46 -53 -26 -53 4 0 30 19 56 42 54 48 47 26 -13 -43 l-41 -46 35 2 c52 3 105 61 158 170 25 49 55 96 67 104 23 14 23 14 6 -10 -25 -35 -44 -79 -52 -121 -6 -34 -5 -38 13 -38 14 0 27 16 47 58 48 99 64 108 113 67 18 -15 37 -23 46 -19 23 9 20 -5 -6 -32 -13 -13 -35 -36 -50 -51 -14 -16 -32 -48 -38 -73 -6 -25 -22 -56 -34 -70 -21 -23 -66 -95 -66 -106 0 -2 16 2 35 11 l36 14 -18 -31 c-10 -17 -35 -45 -56 -62 -38 -30 -38 -31 -15 -37 22 -5 22 -6 -12 -25 l-35 -19 30 -3 c24 -3 35 2 55 30 31 40 66 76 105 105 24 17 27 24 16 31 -14 10 -7 32 9 32 6 0 24 16 42 35 18 19 39 36 46 37 26 6 105 87 123 127 10 23 23 41 30 41 15 0 38 30 39 51 0 9 7 22 14 29 16 13 52 108 48 128 -2 6 2 12 7 12 6 0 8 6 5 13 -3 8 7 61 21 119 31 132 31 149 -1 187 -27 32 -43 94 -27 104 12 7 -1 84 -30 177 -11 36 -25 99 -31 140 l-11 75 -46 22 c-40 19 -48 27 -53 60 -9 51 -62 212 -85 256 -14 27 -17 50 -13 84 5 53 43 127 70 138 9 4 78 7 152 6 74 -1 140 2 145 6 11 8 42 70 71 141 9 23 20 42 24 42 4 0 10 10 14 22 4 19 15 5 56 -75 27 -55 50 -105 50 -112 0 -22 26 -25 224 -25 l192 0 31 -32 c30 -34 73 -68 83 -68 3 0 12 21 20 48 17 54 50 72 50 28 0 -19 -5 -26 -19 -26 -23 0 -31 -19 -31 -75 0 -24 -5 -56 -11 -72 -7 -15 -11 -45 -10 -65 1 -20 -3 -46 -9 -57 -9 -17 -8 -21 5 -21 11 0 15 -10 15 -35 0 -42 27 -60 44 -30 31 54 64 79 100 78 32 -1 35 1 26 17 -17 31 -11 34 11 6 25 -32 50 -30 60 4 l7 25 1 -27 c1 -18 7 -28 16 -28 8 0 14 3 13 8 -1 4 3 17 10 30 13 23 59 31 78 12 5 -5 25 -11 44 -12 30 -3 35 0 38 20 3 19 6 21 18 11 22 -18 17 -28 -31 -51 -46 -22 -62 -45 -25 -35 29 7 25 -8 -5 -21 -33 -15 -100 -15 -124 -1 -27 17 -70 3 -77 -25 -3 -13 -17 -33 -30 -45 l-25 -22 31 -26 c18 -14 36 -37 41 -51 7 -19 14 -23 34 -18 13 3 27 2 30 -4 4 -6 13 -5 25 2 15 10 22 10 32 0 10 -10 19 -5 45 25 l32 38 -6 -50 c-3 -27 -11 -64 -18 -80 -9 -24 -9 -33 0 -42 7 -6 17 -8 22 -5 11 7 29 59 36 102 4 21 5 19 6 -7 2 -46 17 -41 25 8 5 32 10 40 22 35 9 -3 20 -6 25 -6 4 0 4 -12 -2 -27 -10 -26 -22 -183 -14 -183 2 0 13 21 25 48 12 26 32 68 46 95 13 26 24 54 24 63 0 8 4 12 10 9 17 -10 5 176 -13 210 l-16 30 -1 -30 c0 -16 -4 -37 -10 -45 -6 -9 -5 -19 2 -28 9 -10 9 -18 1 -32 -7 -10 -9 -27 -6 -38 4 -15 -3 -24 -26 -36 -45 -24 -65 -21 -56 7 3 12 7 61 8 109 l2 88 32 0 c41 0 47 11 28 52 -37 79 -69 121 -101 134 -19 8 -34 18 -34 23 0 4 -15 24 -34 44 -36 39 -51 97 -30 119 12 14 34 144 34 204 0 34 -2 36 -27 30 -31 -8 -43 5 -43 52 l0 33 -72 -7 c-40 -4 -77 -8 -83 -8 -5 -1 -12 4 -15 9 -3 6 31 13 85 18 49 4 91 9 92 11 2 2 -1 16 -8 32 -6 16 -14 58 -17 94 l-7 65 -78 -3 c-74 -4 -77 -3 -77 19 0 21 3 22 63 15 34 -3 73 -9 87 -11 50 -11 55 5 31 92 -11 44 -21 89 -21 101 l0 22 -249 0 c-229 0 -250 -1 -255 -17 -2 -10 -7 -115 -11 -233 -7 -226 -12 -300 -20 -308 -3 -3 -6 28 -6 69 -1 41 -5 166 -8 279 l-6 205 -117 3 -116 3 -6 -53 c-3 -29 -7 -66 -8 -83 -3 -29 -5 -27 -49 40 -48 72 -90 125 -100 125 -3 0 -18 -13 -32 -30z m-1683 -186 c21 -8 21 -50 0 -58 -21 -8 -22 -7 -24 24 -4 43 -3 44 24 34z m20 -240 c9 -8 16 -22 16 -29 0 -15 -27 -45 -41 -45 -5 0 -9 20 -9 45 0 48 9 55 34 29z m861 -214 c4 -6 30 -22 58 -36 70 -36 150 -108 197 -178 22 -32 40 -62 40 -66 0 -11 -69 23 -70 35 -3 42 -209 189 -240 170 -7 -4 -20 41 -20 71 0 16 26 19 35 4z m-77 -206 c22 -11 32 -23 32 -39 0 -30 -35 -43 -132 -47 l-78 -3 -11 33 c-17 51 -8 61 63 65 35 2 70 4 79 5 9 1 30 -5 47 -14z m1742 -6 c0 -12 -61 -37 -77 -31 -18 7 -16 23 3 38 18 13 74 8 74 -7z m-3420 3 c0 -14 -23 -20 -53 -14 -46 9 -41 23 7 23 25 0 46 -4 46 -9z m124 -7 c10 -25 -1 -29 -14 -5 -6 12 -7 21 -1 21 5 0 12 -7 15 -16z m-221 -34 c34 0 64 -8 98 -27 27 -14 48 -28 46 -29 -1 -2 -23 3 -47 11 -25 7 -40 14 -35 14 6 1 3 6 -5 11 -20 13 -53 13 -45 -1 5 -7 -8 -8 -41 -3 -58 8 -58 8 -50 30 5 13 9 15 18 6 7 -7 34 -12 61 -12z m3577 -21 c-14 -6 -38 -8 -53 -5 -15 3 -26 2 -23 -3 8 -13 -12 -26 -68 -45 -38 -12 -52 -13 -57 -4 -9 15 -1 31 11 23 5 -3 31 6 57 20 35 18 62 25 103 24 47 0 51 -2 30 -10z m-3530 -44 c14 -8 23 -15 20 -16 -3 0 -25 -2 -50 -4 -40 -3 -46 -1 -47 16 -2 23 39 26 77 4z m3495 -15 c-3 -5 -12 -10 -19 -10 -7 0 -23 -10 -35 -21 -19 -18 -25 -19 -32 -8 -12 20 25 49 63 49 17 0 27 -4 23 -10z m-2081 -70 c4 0 39 9 78 20 109 30 176 26 278 -15 47 -19 100 -35 118 -35 17 0 32 -4 32 -10 0 -17 -49 -23 -95 -11 -32 8 -82 8 -174 1 -82 -6 -150 -6 -187 0 -46 8 -64 6 -87 -5 -17 -8 -31 -15 -33 -15 -10 0 -14 91 -4 109 11 22 11 22 40 -9 15 -16 31 -30 34 -30z m272 -111 c75 -19 46 -50 -58 -60 -50 -4 -75 -12 -91 -28 -13 -11 -31 -21 -40 -21 -19 0 -23 15 -7 25 6 3 10 15 10 26 0 14 -7 19 -24 19 -38 0 -40 17 -3 26 17 4 43 11 57 15 40 11 107 10 156 -2z m-346 -101 c0 -17 -3 -18 -15 -8 -8 7 -15 19 -15 26 0 8 6 11 15 8 8 -4 15 -15 15 -26z m60 -89 c0 -15 -16 -10 -34 10 -10 11 -15 25 -10 32 5 9 12 6 26 -10 10 -13 18 -27 18 -32z m673 -173 c34 -14 60 -40 70 -68 11 -31 -10 -19 -23 13 -14 33 -39 46 -110 59 l-45 8 38 1 c21 0 52 -5 70 -13z m249 -336 c21 -16 32 -18 53 -10 24 9 27 7 41 -25 22 -53 18 -80 -18 -110 -23 -20 -28 -29 -18 -35 9 -6 6 -12 -14 -25 -32 -21 -37 -60 -6 -50 13 4 20 2 20 -7 -1 -17 -59 -82 -88 -97 -19 -10 -21 -18 -17 -49 8 -52 -3 -63 -70 -67 -32 -2 -61 -9 -65 -15 -5 -8 -21 -10 -49 -5 -45 7 -45 8 -55 47 -5 24 -1 31 34 54 28 19 40 34 40 51 0 13 10 43 22 66 12 23 21 48 20 55 -2 6 2 12 8 12 20 0 10 19 -12 23 -21 4 -20 4 3 6 22 1 32 11 54 57 23 47 27 64 22 106 l-6 50 37 -6 c20 -4 49 -16 64 -26z m-114 -521 c-2 -6 -8 -10 -13 -10 -5 0 -11 4 -13 10 -2 6 4 11 13 11 9 0 15 -5 13 -11z m1 -146 c-33 -43 -59 -53 -59 -25 0 18 31 40 59 41 11 1 11 -2 0 -16z"/>
<path d="M7839 4503 c-17 -3 -33 -17 -47 -42 -35 -61 -28 -115 21 -168 19 -21 20 -27 9 -87 -7 -35 -12 -80 -12 -101 0 -21 -11 -88 -24 -149 -33 -151 -37 -172 -43 -238 l-5 -58 187 0 188 0 -8 43 c-4 23 -7 50 -7 59 0 10 -4 20 -9 23 -5 4 -7 10 -4 15 3 5 -11 77 -30 161 -19 83 -37 184 -39 223 -4 65 -7 71 -28 74 -34 5 -47 22 -17 22 29 0 39 7 62 42 20 32 22 92 4 128 -24 48 -98 68 -198 53z"/>
</g>
<g id="layer104" fill="#818281" stroke="none">
<path d="M6677 4500 c-15 -16 -27 -34 -27 -38 0 -5 -10 -17 -21 -28 -12 -10 -33 -37 -48 -59 l-26 -40 -5 80 -5 80 -122 3 -123 3 -1 -46 c-1 -25 -3 -49 -4 -55 -1 -5 -3 -59 -4 -120 -1 -110 -1 -110 -26 -110 -25 0 -25 -2 -43 110 l-8 45 -154 0 -154 0 -14 -77 -14 -78 -33 0 c-32 0 -35 3 -40 38 -11 65 -8 62 -90 55 -72 -6 -75 -5 -75 16 0 18 6 21 45 21 24 0 67 -5 95 -11 74 -16 77 -9 48 108 l-24 98 -251 3 -250 2 -7 -37 c-3 -21 -6 -78 -6 -128 0 -49 -3 -107 -6 -127 -6 -36 -8 -38 -44 -38 -47 0 -54 15 -26 55 15 21 21 45 21 86 0 171 -192 237 -555 191 l-55 -7 -7 -120 c-3 -66 -10 -192 -14 -280 -4 -88 -9 -152 -11 -143 -3 10 -10 136 -16 280 l-12 263 -161 3 c-121 2 -164 -1 -171 -10 -6 -7 -16 -137 -23 -288 -7 -151 -14 -282 -16 -290 -1 -8 -3 -21 -3 -27 -2 -34 -20 -5 -46 75 -15 48 -43 131 -62 186 -18 54 -35 112 -38 130 -2 17 -19 74 -37 126 l-33 95 -109 0 -110 0 -34 -110 c-19 -60 -49 -159 -68 -220 -41 -135 -64 -204 -120 -368 -24 -70 -44 -130 -44 -132 0 -3 95 -5 211 -5 l211 0 32 35 c34 37 46 37 46 0 0 -18 -5 -21 -24 -18 -19 4 -28 -3 -50 -41 -28 -49 -63 -79 -79 -69 -6 3 -7 1 -3 -6 9 -14 -31 -81 -48 -81 -7 0 -13 -7 -13 -15 0 -8 4 -15 9 -15 4 0 8 -7 8 -15 0 -8 -4 -15 -10 -15 -5 0 -10 -13 -10 -30 0 -35 8 -37 52 -10 39 24 91 26 112 5 20 -20 26 -19 27 8 1 17 3 15 10 -10 7 -23 16 -33 29 -33 11 0 20 -7 20 -15 0 -20 10 -19 25 1 22 30 64 20 104 -25 38 -43 58 -51 67 -26 9 21 24 19 24 -5 0 -16 -8 -19 -57 -22 -52 -3 -55 -5 -33 -14 25 -11 25 -11 3 -18 -30 -10 -116 28 -128 57 -12 27 -59 35 -83 14 -10 -8 -29 -17 -44 -21 -29 -7 -36 -24 -17 -43 6 -6 11 -30 12 -54 2 -37 5 -44 25 -47 12 -2 22 -10 22 -19 0 -10 6 -13 17 -9 11 5 23 -1 34 -15 15 -21 18 -21 40 -5 41 29 52 19 23 -21 -15 -21 -39 -49 -53 -62 -22 -19 -23 -22 -6 -17 19 6 19 5 2 -8 -12 -10 -15 -16 -7 -21 11 -7 39 12 72 50 17 20 17 20 11 -2 -8 -32 9 -28 36 8 21 28 25 30 38 16 14 -14 11 -21 -32 -72 -26 -30 -45 -58 -41 -62 3 -4 -4 -17 -16 -30 -12 -13 -18 -23 -13 -23 14 0 73 40 78 53 3 6 22 21 43 31 39 20 92 69 119 110 28 42 55 137 45 155 -8 14 -9 13 -10 -5 0 -12 -11 -29 -25 -40 -16 -12 -21 -22 -15 -29 7 -8 2 -16 -15 -25 -14 -7 -25 -22 -25 -32 0 -18 -6 -20 -55 -20 -14 0 -29 0 -35 1 -15 2 -12 29 4 38 21 12 96 128 96 148 0 16 2 16 25 1 53 -35 67 -12 63 102 -2 46 -7 67 -19 75 -20 15 -50 153 -39 183 5 11 24 32 43 47 35 26 39 27 174 27 76 -1 185 -5 243 -10 164 -14 289 3 411 54 18 8 67 -38 90 -82 17 -34 40 -62 50 -62 5 0 25 23 46 50 l37 50 68 0 c54 0 68 -3 68 -15 0 -8 -7 -15 -15 -15 -8 0 -15 -4 -15 -10 0 -16 -32 -12 -52 7 -17 15 -19 15 -38 -2 -11 -10 -20 -25 -20 -34 0 -9 -7 -25 -15 -35 -8 -11 -15 -32 -15 -47 0 -15 -7 -29 -15 -33 -8 -3 -15 -16 -15 -28 -1 -34 -29 -79 -87 -142 -35 -37 -53 -66 -53 -82 0 -14 -8 -41 -19 -62 -10 -20 -22 -52 -26 -70 -4 -21 -16 -37 -31 -44 -31 -14 -32 -47 -1 -50 12 0 31 0 41 1 19 1 19 1 -1 -21 -30 -33 -55 -109 -51 -154 3 -34 6 -39 31 -42 21 -3 41 9 96 57 62 56 75 63 143 78 80 17 70 19 182 -35 19 -9 -3 83 -24 100 -27 22 -103 31 -233 26 -133 -4 -114 10 25 18 119 8 201 -6 236 -38 12 -12 30 -46 38 -76 29 -97 95 -99 143 -3 16 32 42 66 56 75 36 24 127 36 200 26 56 -7 54 -7 -41 -9 -87 -1 -106 -4 -135 -24 -62 -41 -99 -142 -69 -187 9 -13 11 -13 20 0 5 8 10 22 10 31 0 26 90 79 131 78 47 -1 104 -23 102 -40 -2 -15 69 -69 92 -69 21 0 27 -17 15 -40 -10 -18 -8 -20 27 -20 57 0 83 22 83 71 0 33 3 40 17 37 10 -2 24 -15 33 -30 13 -25 13 -30 -4 -62 l-18 -34 -114 -7 c-100 -6 -114 -9 -114 -25 0 -18 26 -30 66 -30 38 0 38 -30 -1 -46 -44 -18 -47 -18 -152 6 -154 36 -156 37 -182 80 -55 89 -172 88 -204 -2 -5 -15 -86 -58 -110 -58 -5 0 -20 -12 -34 -26 l-23 -26 28 -36 c33 -42 82 -141 82 -165 0 -9 -5 -19 -10 -22 -12 -7 5 -44 29 -62 19 -15 58 -17 66 -3 14 22 35 10 35 -20 0 -38 24 -49 50 -25 17 16 24 16 44 5 13 -7 29 -9 34 -6 6 4 12 -7 14 -26 5 -52 38 -49 95 7 56 54 99 78 126 69 18 -6 18 -6 0 -27 -29 -33 -68 -98 -80 -133 -17 -49 -59 -110 -98 -141 -33 -26 -46 -53 -26 -53 4 0 30 19 56 42 54 48 47 26 -13 -43 l-41 -46 35 2 c52 3 105 61 158 170 25 49 55 96 67 104 23 14 23 14 6 -10 -25 -35 -44 -79 -52 -121 -6 -34 -5 -38 13 -38 14 0 27 16 47 58 48 99 64 108 113 67 18 -15 37 -23 46 -19 23 9 20 -5 -6 -32 -13 -13 -35 -36 -50 -51 -14 -16 -32 -48 -38 -73 -6 -25 -22 -56 -34 -70 -21 -23 -66 -95 -66 -106 0 -2 16 2 35 11 l36 14 -18 -31 c-10 -17 -35 -45 -56 -62 -38 -30 -38 -31 -15 -37 22 -5 22 -6 -12 -25 l-35 -19 30 -3 c24 -3 35 2 55 30 31 40 66 76 105 105 24 17 27 24 16 31 -14 10 -7 32 9 32 6 0 24 16 42 35 18 19 39 36 46 37 26 6 105 87 123 127 10 23 23 41 30 41 15 0 38 30 39 51 0 9 7 22 14 29 16 13 52 108 48 128 -2 6 2 12 7 12 6 0 8 6 5 13 -3 8 7 61 21 119 31 132 31 149 -1 187 -27 32 -43 94 -27 104 12 7 -1 84 -30 177 -11 36 -25 99 -31 140 l-11 75 -46 22 c-40 19 -48 27 -53 60 -9 51 -62 212 -85 256 -14 27 -17 50 -13 84 5 53 43 127 70 138 9 4 78 7 152 6 74 -1 140 2 145 6 11 8 42 70 71 141 9 23 20 42 24 42 4 0 10 10 14 22 4 19 15 5 56 -75 27 -55 50 -105 50 -112 0 -22 26 -25 224 -25 l192 0 31 -32 c30 -34 73 -68 83 -68 3 0 12 21 20 48 17 54 50 72 50 28 0 -19 -5 -26 -19 -26 -23 0 -31 -19 -31 -75 0 -24 -5 -56 -11 -72 -7 -15 -11 -45 -10 -65 1 -20 -3 -46 -9 -57 -9 -17 -8 -21 5 -21 11 0 15 -10 15 -35 0 -42 27 -60 44 -30 31 54 64 79 100 78 32 -1 35 1 26 17 -17 31 -11 34 11 6 25 -32 50 -30 60 4 l7 25 1 -27 c1 -18 7 -28 16 -28 8 0 14 3 13 8 -1 4 3 17 10 30 13 23 59 31 78 12 5 -5 25 -11 44 -12 30 -3 35 0 38 20 3 19 6 21 18 11 22 -18 17 -28 -31 -51 -46 -22 -62 -45 -25 -35 29 7 25 -8 -5 -21 -33 -15 -100 -15 -124 -1 -27 17 -70 3 -77 -25 -3 -13 -17 -33 -30 -45 l-25 -22 31 -26 c18 -14 36 -37 41 -51 7 -19 14 -23 34 -18 13 3 27 2 30 -4 4 -6 13 -5 25 2 15 10 22 10 32 0 10 -10 19 -5 45 25 l32 38 -6 -50 c-3 -27 -11 -64 -18 -80 -9 -24 -9 -33 0 -42 7 -6 17 -8 22 -5 11 7 29 59 36 102 4 21 5 19 6 -7 2 -46 17 -41 25 8 5 32 10 40 22 35 9 -3 20 -6 25 -6 4 0 4 -12 -2 -27 -10 -26 -22 -183 -14 -183 2 0 13 21 25 48 12 26 32 68 46 95 13 26 24 54 24 63 0 8 4 12 10 9 17 -10 5 176 -13 210 l-16 30 -1 -30 c0 -16 -4 -37 -10 -45 -6 -9 -5 -19 2 -28 9 -10 9 -18 1 -32 -7 -10 -9 -27 -6 -38 4 -15 -3 -24 -26 -36 -45 -24 -65 -21 -56 7 3 12 7 61 8 109 l2 88 32 0 c41 0 47 11 28 52 -37 79 -69 121 -101 134 -19 8 -34 18 -34 23 0 4 -15 24 -34 44 -36 39 -51 97 -30 119 12 14 34 144 34 204 0 34 -2 36 -27 30 -31 -8 -43 5 -43 52 l0 33 -72 -7 c-40 -4 -77 -8 -83 -8 -5 -1 -12 4 -15 9 -3 6 31 13 85 18 49 4 91 9 92 11 2 2 -1 16 -8 32 -6 16 -14 58 -17 94 l-7 65 -78 -3 c-74 -4 -77 -3 -77 19 0 21 3 22 63 15 34 -3 73 -9 87 -11 50 -11 55 5 31 92 -11 44 -21 89 -21 101 l0 22 -249 0 c-229 0 -250 -1 -255 -17 -2 -10 -7 -115 -11 -233 -7 -226 -12 -300 -20 -308 -3 -3 -6 28 -6 69 -1 41 -5 166 -8 279 l-6 205 -117 3 -116 3 -6 -53 c-3 -29 -7 -66 -8 -83 -3 -29 -5 -27 -49 40 -48 72 -90 125 -100 125 -3 0 -18 -13 -32 -30z m-1625 -61 c24 -7 57 -23 74 -35 74 -54 67 -148 -13 -192 -41 -22 -56 -42 -32 -42 6 0 26 -7 44 -16 76 -36 124 -152 103 -247 -22 -104 -71 -147 -206 -183 -55 -15 -291 -20 -352 -8 l-32 7 6 66 c9 108 15 216 21 396 3 94 8 191 11 217 l6 47 61 4 c98 7 262 -1 309 -14z m-1085 -117 c17 -62 66 -218 109 -348 42 -129 75 -237 73 -239 -8 -7 -85 -9 -96 -2 -6 4 -14 28 -18 54 -8 55 -71 292 -79 301 -3 3 -8 3 -11 1 -8 -8 -64 -241 -71 -296 -3 -29 -13 -58 -21 -64 -9 -8 -51 -10 -139 -6 -69 3 -128 7 -130 10 -3 3 20 79 50 171 30 91 74 227 96 303 23 76 48 160 56 186 l16 48 66 -3 66 -3 33 -113z m547 66 c3 -29 4 -64 3 -78 -2 -28 11 -361 19 -491 l6 -86 -33 -5 c-18 -3 -85 -3 -147 0 l-115 5 7 116 c10 168 14 257 22 426 3 83 8 153 11 158 2 4 53 7 113 7 l109 0 5 -52z m1239 45 c3 -5 8 -23 12 -40 l7 -33 -91 0 -91 0 0 -80 0 -80 80 0 c72 0 80 -2 80 -19 0 -11 3 -26 6 -35 5 -14 -5 -16 -74 -16 -45 0 -83 -3 -85 -7 -3 -5 -2 -41 1 -82 l5 -74 84 6 c46 2 85 2 87 -2 2 -3 6 -60 8 -125 l3 -120 -225 3 c-229 2 -246 4 -235 41 4 16 11 137 21 405 3 94 8 188 10 210 1 22 3 43 3 48 1 4 88 7 195 7 107 0 197 -3 199 -7z m735 -128 c1 -71 4 -134 5 -139 2 -4 47 51 102 123 61 82 105 131 114 129 8 -2 56 -60 105 -130 50 -70 93 -124 96 -121 3 2 5 33 5 66 0 34 1 95 3 135 l2 73 63 -3 62 -3 6 -185 c11 -297 20 -474 25 -492 8 -27 -37 -39 -130 -36 l-81 3 -20 40 c-50 102 -127 235 -135 235 -11 0 -89 -138 -119 -210 -13 -30 -29 -58 -35 -62 -29 -19 -233 -1 -229 20 2 7 8 114 13 239 6 126 13 279 16 341 l6 113 62 -3 61 -3 3 -130z m1122 116 c5 -11 10 -29 10 -40 0 -20 -6 -21 -90 -21 l-91 0 3 -77 3 -78 76 -3 c70 -3 77 -5 83 -25 12 -46 10 -47 -74 -47 l-80 0 0 -81 0 -81 88 3 87 4 9 -118 c5 -64 7 -120 4 -122 -4 -5 -280 -9 -407 -6 l-53 1 6 113 c4 61 8 166 11 232 2 66 7 175 11 243 l6 122 194 0 c181 0 194 -1 204 -19z m-1446 -159 c3 -5 8 -28 12 -50 l7 -42 -121 0 -121 0 6 38 c3 20 10 43 16 50 11 14 192 18 201 4z m-289 -402 c4 -6 30 -22 58 -36 70 -36 150 -108 197 -178 22 -32 40 -62 40 -66 0 -11 -69 23 -70 35 -3 42 -209 189 -240 170 -7 -4 -20 41 -20 71 0 16 26 19 35 4z m-77 -206 c22 -11 32 -23 32 -39 0 -30 -35 -43 -132 -47 l-78 -3 -11 33 c-17 51 -8 61 63 65 35 2 70 4 79 5 9 1 30 -5 47 -14z m1742 -6 c0 -12 -61 -37 -77 -31 -18 7 -16 23 3 38 18 13 74 8 74 -7z m-3420 3 c0 -14 -23 -20 -53 -14 -46 9 -41 23 7 23 25 0 46 -4 46 -9z m124 -7 c10 -25 -1 -29 -14 -5 -6 12 -7 21 -1 21 5 0 12 -7 15 -16z m-221 -34 c34 0 64 -8 98 -27 27 -14 48 -28 46 -29 -1 -2 -23 3 -47 11 -25 7 -40 14 -35 14 6 1 3 6 -5 11 -20 13 -53 13 -45 -1 5 -7 -8 -8 -41 -3 -58 8 -58 8 -50 30 5 13 9 15 18 6 7 -7 34 -12 61 -12z m3577 -21 c-14 -6 -38 -8 -53 -5 -15 3 -26 2 -23 -3 8 -13 -12 -26 -68 -45 -38 -12 -52 -13 -57 -4 -9 15 -1 31 11 23 5 -3 31 6 57 20 35 18 62 25 103 24 47 0 51 -2 30 -10z m-3530 -44 c14 -8 23 -15 20 -16 -3 0 -25 -2 -50 -4 -40 -3 -46 -1 -47 16 -2 23 39 26 77 4z m3495 -15 c-3 -5 -12 -10 -19 -10 -7 0 -23 -10 -35 -21 -19 -18 -25 -19 -32 -8 -12 20 25 49 63 49 17 0 27 -4 23 -10z m-2081 -70 c4 0 39 9 78 20 109 30 176 26 278 -15 47 -19 100 -35 118 -35 17 0 32 -4 32 -10 0 -17 -49 -23 -95 -11 -32 8 -82 8 -174 1 -82 -6 -150 -6 -187 0 -46 8 -64 6 -87 -5 -17 -8 -31 -15 -33 -15 -10 0 -14 91 -4 109 11 22 11 22 40 -9 15 -16 31 -30 34 -30z m272 -111 c75 -19 46 -50 -58 -60 -50 -4 -75 -12 -91 -28 -13 -11 -31 -21 -40 -21 -19 0 -23 15 -7 25 6 3 10 15 10 26 0 14 -7 19 -24 19 -38 0 -40 17 -3 26 17 4 43 11 57 15 40 11 107 10 156 -2z m-346 -101 c0 -17 -3 -18 -15 -8 -8 7 -15 19 -15 26 0 8 6 11 15 8 8 -4 15 -15 15 -26z m60 -89 c0 -15 -16 -10 -34 10 -10 11 -15 25 -10 32 5 9 12 6 26 -10 10 -13 18 -27 18 -32z m673 -173 c34 -14 60 -40 70 -68 11 -31 -10 -19 -23 13 -14 33 -39 46 -110 59 l-45 8 38 1 c21 0 52 -5 70 -13z m249 -336 c21 -16 32 -18 53 -10 24 9 27 7 41 -25 22 -53 18 -80 -18 -110 -23 -20 -28 -29 -18 -35 9 -6 6 -12 -14 -25 -32 -21 -37 -60 -6 -50 13 4 20 2 20 -7 -1 -17 -59 -82 -88 -97 -19 -10 -21 -18 -17 -49 8 -52 -3 -63 -70 -67 -32 -2 -61 -9 -65 -15 -5 -8 -21 -10 -49 -5 -45 7 -45 8 -55 47 -5 24 -1 31 34 54 28 19 40 34 40 51 0 13 10 43 22 66 12 23 21 48 20 55 -2 6 2 12 8 12 20 0 10 19 -12 23 -21 4 -20 4 3 6 22 1 32 11 54 57 23 47 27 64 22 106 l-6 50 37 -6 c20 -4 49 -16 64 -26z m-114 -521 c-2 -6 -8 -10 -13 -10 -5 0 -11 4 -13 10 -2 6 4 11 13 11 9 0 15 -5 13 -11z m1 -146 c-33 -43 -59 -53 -59 -25 0 18 31 40 59 41 11 1 11 -2 0 -16z"/>
<path d="M4914 4367 c-3 -8 -4 -47 -2 -88 l3 -74 47 -3 c60 -4 95 18 104 63 7 41 -8 70 -49 95 -37 23 -95 26 -103 7z m80 -53 c21 -8 21 -50 0 -58 -21 -8 -22 -7 -24 24 -4 43 -3 44 24 34z"/>
<path d="M4922 4046 l3 -101 40 -3 c53 -4 107 31 115 73 15 79 -24 126 -109 130 l-52 2 3 -101z m92 28 c9 -8 16 -22 16 -29 0 -15 -27 -45 -41 -45 -5 0 -9 20 -9 45 0 48 9 55 34 29z"/>
<path d="M7485 3570 c-3 -5 1 -10 9 -10 8 0 18 5 21 10 3 6 -1 10 -9 10 -8 0 -18 -4 -21 -10z"/>
<path d="M5633 3460 c-45 -18 -21 -28 72 -28 52 0 95 3 95 8 0 4 -28 13 -63 19 -73 13 -75 13 -104 1z"/>
<path d="M7839 4503 c-17 -3 -33 -17 -47 -42 -35 -61 -28 -115 21 -168 19 -21 20 -27 9 -87 -7 -35 -12 -80 -12 -101 0 -21 -11 -88 -24 -149 -33 -151 -37 -172 -43 -238 l-5 -58 187 0 188 0 -8 43 c-4 23 -7 50 -7 59 0 10 -4 20 -9 23 -5 4 -7 10 -4 15 3 5 -11 77 -30 161 -19 83 -37 184 -39 223 -4 65 -7 71 -28 74 -34 5 -47 22 -17 22 29 0 39 7 62 42 20 32 22 92 4 128 -24 48 -98 68 -198 53z m135 -68 c26 -19 24 -65 -4 -87 -27 -22 -88 -23 -118 -2 -14 10 -22 26 -22 44 0 18 8 34 22 44 28 20 97 20 122 1z m-28 -239 c6 -5 92 -461 88 -465 -7 -7 -220 -8 -227 -1 -3 3 6 59 19 125 13 66 31 170 40 230 9 61 18 113 21 118 3 5 51 0 59 -7z"/>
<path d="M6012 2796 c1 -10 8 -17 13 -17 15 1 12 24 -3 29 -9 3 -13 -2 -10 -12z"/>
<path d="M5735 2730 c3 -5 23 -10 43 -9 30 0 33 2 17 9 -28 12 -67 12 -60 0z"/>
<path d="M5110 2715 c0 -17 16 -20 25 -6 3 5 20 7 38 5 17 -3 57 -1 87 4 53 9 51 10 -47 11 -85 1 -103 -2 -103 -14z"/>
</g>
<g id="layer105" fill="#bfbfbf" stroke="none">
<path d="M6670 4481 c-17 -27 -38 -55 -47 -63 -9 -7 -27 -31 -41 -53 -26 -40 -26 -40 -33 -15 -4 14 -7 51 -8 82 l-1 57 -120 3 -119 3 -1 -85 c-1 -47 -2 -120 -2 -163 l-1 -78 -31 3 c-30 3 -31 5 -41 73 l-10 70 -155 0 -155 0 -7 -50 c-15 -95 -15 -95 -52 -95 -35 0 -46 13 -46 55 0 35 -19 44 -75 35 -80 -14 -85 -13 -85 15 0 23 3 25 53 25 28 0 70 -5 91 -11 35 -10 42 -9 53 7 7 10 10 27 6 38 -3 12 -14 50 -23 86 l-17 65 -248 5 c-136 3 -249 1 -252 -3 -3 -4 -7 -77 -10 -162 l-6 -155 -43 0 c-24 0 -46 5 -49 10 -4 6 3 27 16 48 53 88 1 227 -93 248 -16 4 -28 9 -28 13 0 3 -17 8 -38 11 -56 8 -373 5 -404 -3 l-28 -7 -1 -98 c0 -53 -6 -194 -13 -312 l-12 -215 -8 135 c-4 74 -11 212 -15 307 -3 94 -9 174 -11 177 -7 7 -319 10 -326 3 -10 -9 -35 -509 -29 -564 6 -48 5 -53 -13 -53 -20 0 -17 -9 -115 285 -20 61 -38 122 -41 137 -3 15 -17 66 -32 112 l-28 85 -104 3 c-61 2 -107 -1 -112 -7 -4 -5 -18 -41 -30 -80 -12 -38 -24 -77 -28 -85 -3 -8 -6 -24 -8 -35 -1 -11 -16 -60 -34 -110 -17 -49 -34 -102 -36 -116 -2 -14 -17 -61 -35 -105 -17 -43 -33 -92 -35 -107 -2 -15 -15 -56 -29 -91 -14 -34 -25 -68 -25 -74 0 -8 57 -12 188 -14 103 -2 196 -2 207 0 22 3 55 60 55 95 0 12 4 28 9 36 10 15 11 13 31 -76 l12 -53 120 0 120 0 14 -38 15 -38 39 36 39 36 138 -2 c76 0 211 -4 301 -9 174 -8 259 3 343 46 51 26 90 14 102 -31 9 -37 43 -90 57 -90 5 0 18 20 29 45 l20 45 256 0 257 0 -8 113 c-4 61 -10 146 -13 187 -7 85 2 79 -108 66 -60 -7 -63 -6 -63 15 0 21 3 21 84 16 46 -3 89 -1 96 3 7 4 25 4 39 0 14 -4 45 -13 69 -19 59 -16 87 -51 88 -109 1 -42 6 -83 20 -149 2 -12 10 -28 17 -35 17 -18 87 -133 117 -191 l24 -49 14 47 c19 69 52 100 105 101 23 0 94 1 157 2 l116 2 13 35 c6 19 12 38 12 42 1 14 74 143 81 143 8 0 88 -156 94 -183 2 -11 7 -24 11 -28 5 -5 99 -9 211 -10 166 -1 205 -4 215 -16 22 -28 62 -65 80 -74 14 -8 17 -5 19 18 0 15 1 36 0 45 -2 26 25 29 201 26 145 -3 158 -2 163 15 3 10 3 21 0 24 -3 3 1 17 8 32 16 31 40 197 30 212 -3 6 -19 8 -35 5 -28 -5 -29 -5 -29 39 0 24 -4 46 -10 50 -5 3 -39 1 -75 -6 -72 -12 -98 -8 -89 16 3 8 10 12 16 9 5 -3 44 -3 87 1 l78 7 -18 62 c-9 35 -15 74 -12 89 7 35 -19 47 -82 36 -73 -12 -75 -11 -75 16 0 26 0 26 80 24 44 -2 80 -6 80 -11 0 -10 11 -10 29 1 11 7 11 17 -2 62 -9 30 -21 73 -27 97 l-11 42 -243 0 -244 0 -6 -57 c-3 -32 -8 -146 -12 -253 -10 -286 -19 -322 -27 -105 -4 99 -10 233 -13 298 l-6 117 -114 0 -114 0 0 -80 c0 -44 -3 -80 -7 -80 -9 0 -119 152 -116 160 0 3 -9 13 -22 22 -23 17 -23 17 -55 -31z m-1644 -35 c94 -20 154 -74 154 -138 0 -37 -36 -86 -75 -102 -43 -18 -45 -32 -4 -41 44 -10 104 -75 120 -132 40 -140 -16 -250 -150 -298 -48 -17 -83 -20 -238 -20 -100 0 -184 3 -187 6 -3 3 -2 71 4 150 5 79 12 239 16 354 3 116 9 213 13 217 17 18 267 21 347 4z m-1070 -86 c13 -41 31 -97 39 -125 20 -67 131 -410 149 -460 8 -22 12 -43 9 -47 -8 -14 -103 -9 -107 5 -2 6 -13 58 -25 115 -27 124 -61 242 -71 242 -9 0 -65 -221 -75 -295 -4 -27 -12 -56 -17 -62 -8 -9 -49 -13 -144 -13 -110 0 -134 3 -134 14 0 8 11 45 24 83 27 74 117 358 166 521 l31 103 66 -3 66 -3 23 -75z m558 28 c6 -56 20 -473 21 -593 l0 -70 -142 -3 c-143 -3 -143 -3 -143 20 0 60 32 675 35 686 3 8 35 12 114 12 l110 0 5 -52z m1246 35 c0 -10 3 -28 6 -40 6 -23 5 -23 -85 -23 l-91 0 0 -80 0 -80 80 0 c69 0 80 -2 80 -17 0 -10 3 -28 6 -40 6 -22 4 -23 -74 -23 -45 0 -83 -3 -85 -7 -2 -5 -2 -39 1 -76 l4 -69 87 4 86 3 8 -113 c5 -62 6 -120 3 -128 -5 -12 -41 -14 -233 -12 l-228 3 1 30 c1 17 7 167 13 335 7 168 14 315 17 328 4 22 5 22 204 22 184 0 200 -1 200 -17z m730 -127 l5 -139 99 131 c54 72 104 133 111 136 7 2 33 -26 61 -67 27 -39 70 -100 95 -135 l47 -63 7 140 7 141 63 0 62 0 7 -232 c5 -128 11 -285 15 -348 4 -63 5 -121 3 -128 -3 -9 -30 -12 -106 -10 l-101 3 -55 107 c-30 59 -64 120 -76 135 -18 24 -23 26 -38 14 -9 -8 -41 -64 -71 -125 -30 -61 -60 -117 -65 -123 -12 -14 -226 -19 -233 -5 -2 4 3 115 10 247 8 132 16 291 19 353 l6 113 62 -3 61 -3 5 -139z m1124 122 c15 -57 13 -58 -84 -58 l-91 0 3 -77 3 -78 76 -3 c70 -3 77 -5 83 -25 15 -55 12 -57 -74 -57 l-80 0 0 -62 c0 -90 3 -92 97 -83 l80 7 6 -93 c4 -50 7 -109 7 -131 l0 -38 -231 0 -231 0 6 123 c3 67 8 192 11 277 3 85 8 192 11 238 l6 82 198 0 c197 0 198 0 204 -22z m-1450 -156 c3 -5 8 -28 12 -50 l7 -42 -121 0 -121 0 6 38 c3 20 10 43 16 50 11 14 192 18 201 4z"/>
<path d="M4914 4367 c-3 -8 -4 -47 -2 -88 l3 -74 47 -3 c60 -4 95 18 104 63 7 41 -8 70 -49 95 -37 23 -95 26 -103 7z m96 -66 c7 -15 6 -23 -6 -35 -27 -27 -44 -20 -44 19 0 28 4 35 20 35 10 0 24 -9 30 -19z"/>
<path d="M4920 4075 c0 -40 3 -87 6 -105 7 -32 7 -32 52 -26 59 8 90 29 100 68 20 78 -16 123 -106 131 l-52 5 0 -73z m94 2 c22 -16 18 -56 -7 -71 -22 -14 -37 6 -37 52 0 35 14 41 44 19z"/>
<path d="M7855 4502 c-52 -18 -85 -60 -85 -112 0 -45 21 -75 70 -100 46 -24 74 -25 128 -6 22 8 43 13 46 10 3 -2 4 -1 1 3 -3 3 2 14 11 24 25 28 29 92 8 128 -30 51 -111 75 -179 53z m106 -59 c62 -37 28 -113 -50 -113 -81 0 -112 71 -48 110 39 24 60 25 98 3z"/>
<path d="M7825 4221 c-3 -25 -8 -68 -10 -96 -2 -27 -13 -97 -25 -154 -12 -58 -23 -127 -26 -155 -3 -28 -10 -55 -15 -60 -5 -6 -9 -27 -9 -48 l0 -38 186 0 186 0 -8 33 c-4 17 -8 43 -9 57 -2 14 -3 25 -4 25 -1 0 -4 14 -6 30 -3 17 -19 95 -38 175 -18 80 -35 170 -36 200 -1 30 -5 58 -9 61 -4 4 -44 9 -89 12 l-81 5 -7 -47z m168 -247 c26 -130 44 -240 41 -245 -3 -5 -57 -9 -121 -9 -114 0 -115 0 -110 23 12 45 56 295 68 380 l12 87 31 0 31 0 48 -236z"/>
<path d="M7563 3634 c-5 -14 11 -33 29 -34 13 0 38 32 33 41 -10 15 -55 10 -62 -7z"/>
<path d="M7650 3639 c0 -6 4 -19 10 -29 11 -21 -10 -34 -47 -31 -29 3 -50 -9 -33 -19 18 -11 1 -62 -19 -56 -9 3 -32 -9 -54 -28 -44 -38 -43 -46 17 -105 38 -37 66 -37 66 1 0 13 4 28 8 34 11 18 69 44 94 43 17 0 11 -5 -21 -18 -44 -18 -71 -44 -71 -68 0 -7 5 -13 10 -13 6 0 10 6 10 13 0 16 45 57 63 57 6 0 33 -11 59 -24 48 -24 61 -24 51 0 -3 8 1 14 11 14 9 0 19 -7 22 -15 9 -23 24 -7 24 26 0 20 4 29 13 26 7 -2 11 -19 10 -41 -2 -30 1 -36 17 -36 29 0 26 51 -5 88 -14 17 -25 36 -25 44 0 14 -67 49 -102 53 -33 4 -47 15 -63 49 -16 33 -45 56 -45 35z m49 -95 c13 -14 -36 -84 -59 -84 -28 0 -30 10 -10 56 13 31 23 40 39 39 12 -1 25 -6 30 -11z"/>
<path d="M4127 3613 c-19 -18 19 -48 47 -37 23 9 19 31 -6 38 -29 7 -33 7 -41 -1z"/>
<path d="M4210 3556 c0 -31 -37 -39 -62 -13 -22 21 -57 24 -39 3 19 -22 -13 -39 -80 -41 -36 -2 -65 -8 -69 -15 -8 -13 17 -118 32 -135 6 -6 16 -2 28 12 28 35 64 45 118 32 60 -15 92 -35 91 -57 -1 -15 -2 -15 -6 -1 -5 21 -77 49 -124 49 -22 0 -42 -7 -52 -18 -24 -26 -21 -46 3 -22 12 12 33 20 54 20 28 0 40 -7 60 -33 15 -19 26 -41 26 -50 0 -10 5 -14 15 -11 8 4 15 12 15 20 0 24 18 15 28 -13 l9 -28 20 32 c11 18 23 30 26 26 13 -12 7 -44 -8 -49 -17 -7 -20 -30 -5 -39 5 -3 18 0 30 7 21 14 29 71 10 83 -5 3 -10 23 -10 44 0 22 -6 44 -15 51 -8 7 -15 19 -15 26 0 8 -6 14 -14 14 -29 0 -40 27 -45 113 -2 26 -21 20 -21 -7z m0 -81 c0 -10 -60 -55 -74 -55 -4 0 -14 6 -22 14 -12 13 -10 19 17 44 27 25 34 28 55 18 13 -6 24 -15 24 -21z"/>
<path d="M5864 3546 c-28 -24 -28 -26 -14 -52 9 -16 31 -32 58 -41 42 -14 42 -14 77 20 19 19 35 38 35 44 0 12 -35 30 -70 36 -14 2 -32 8 -41 11 -11 5 -27 -2 -45 -18z"/>
<path d="M3811 3491 c-25 -35 -26 -41 -6 -41 13 0 12 -4 -4 -21 -23 -25 -34 -59 -18 -58 16 1 72 69 58 69 -6 0 -11 4 -11 9 0 5 9 7 20 4 24 -6 27 22 6 50 -18 23 -21 22 -45 -12z"/>
<path d="M6069 3483 c-1 -5 0 -36 1 -70 1 -35 -1 -63 -4 -63 -4 0 -17 7 -30 15 -22 15 -24 14 -36 -14 -17 -43 -41 -49 -33 -9 5 26 4 30 -10 25 -11 -4 -20 1 -27 13 -8 15 -21 20 -55 20 -24 0 -52 -3 -62 -7 -15 -6 -13 -8 11 -13 40 -7 41 -40 5 -90 -16 -22 -26 -46 -23 -55 9 -22 -19 -19 -41 5 -21 23 -62 26 -89 5 -10 -8 -23 -12 -28 -9 -5 3 -25 -4 -44 -15 -19 -12 -46 -21 -59 -21 -35 0 -55 -10 -55 -29 0 -23 36 -122 59 -162 10 -19 24 -58 31 -87 23 -100 86 -104 136 -8 29 56 43 69 93 91 43 19 169 19 275 0 97 -17 126 -40 133 -109 3 -25 9 -46 14 -46 15 0 59 -79 53 -95 -4 -10 0 -15 13 -15 19 0 43 36 43 63 0 24 35 97 47 97 20 0 43 -42 43 -78 0 -34 -39 -82 -66 -82 -15 0 -8 -22 18 -59 21 -30 60 -25 68 9 4 15 13 24 23 24 26 -2 22 78 -7 167 -13 41 -27 97 -31 124 -11 71 -30 105 -65 112 -35 6 -47 19 -52 53 -2 20 -10 26 -38 31 -19 3 -45 11 -57 17 -37 20 -74 77 -78 121 -2 23 -11 66 -20 96 -12 43 -20 55 -35 55 -11 0 -21 -3 -21 -7z m-53 -198 c4 -9 19 -15 38 -15 36 0 53 -9 57 -30 5 -25 -11 -59 -31 -65 -23 -7 -41 -28 -44 -52 -2 -10 -14 -20 -29 -23 -15 -3 -36 -13 -47 -23 -20 -17 -22 -17 -47 3 -14 11 -34 20 -44 20 -21 0 -24 21 -9 50 6 11 35 45 65 76 30 31 55 60 55 65 0 15 30 10 36 -6z"/>
<path d="M7347 3393 c-9 -15 -12 -62 -4 -63 14 -1 67 30 67 40 0 19 -54 38 -63 23z"/>
<path d="M7803 3349 c-25 -9 -30 -25 -10 -32 20 -8 -33 -40 -72 -44 -53 -5 -59 -9 -54 -37 5 -26 26 -35 38 -16 5 8 11 7 21 -1 11 -9 14 -8 14 6 0 10 3 15 7 12 3 -4 12 -2 20 4 7 7 27 19 45 28 40 20 53 53 30 74 -12 10 -24 12 -39 6z"/>
<path d="M7370 3325 c-6 -8 -9 -19 -5 -25 3 -5 2 -10 -3 -10 -5 0 -7 -11 -4 -25 6 -35 26 -26 33 16 3 19 9 40 13 47 10 17 -19 15 -34 -3z"/>
<path d="M4174 3233 c1 -22 -42 -23 -91 -2 -30 12 -34 11 -48 -6 -20 -28 -19 -35 8 -35 13 0 27 -3 31 -7 4 -4 38 -8 76 -10 75 -3 94 8 88 49 -2 18 -10 24 -34 26 -26 3 -32 0 -30 -15z"/>
<path d="M5173 3171 c-28 -31 -39 -45 -40 -54 -7 -45 -17 -67 -34 -72 -23 -8 -24 -18 -3 -36 12 -10 22 -10 49 0 19 7 66 15 105 18 68 6 86 15 54 27 -9 3 -14 12 -11 19 5 15 -47 93 -73 107 -25 13 -27 13 -47 -9z"/>
<path d="M5203 3001 c-71 -12 -99 -51 -110 -152 l-6 -61 29 4 c23 2 31 11 44 48 17 46 26 61 89 132 36 42 36 42 -46 29z m-43 -58 c-1 -21 -13 -53 -21 -53 -10 0 -12 43 -2 53 9 9 23 9 23 0z"/>
<path d="M5845 2991 c-46 -11 -82 -39 -100 -77 -22 -47 -31 -104 -16 -104 6 0 11 6 11 14 0 26 33 72 59 84 143 62 148 63 194 28 18 -13 42 -27 53 -30 16 -5 20 -12 17 -26 -4 -15 0 -20 15 -20 12 0 23 -9 27 -19 3 -11 15 -23 26 -26 14 -5 19 -15 19 -41 0 -41 22 -46 46 -9 31 47 2 175 -45 199 -53 28 -236 44 -306 27z"/>
<path d="M6167 2703 c-15 -2 -25 -9 -22 -14 4 -5 -1 -9 -9 -9 -21 0 -20 -13 3 -34 23 -21 18 -43 -12 -52 -12 -3 -41 -15 -64 -26 -39 -18 -44 -18 -58 -4 -9 8 -32 18 -53 21 -20 3 -52 10 -70 16 -23 7 -42 7 -67 -1 -39 -13 -47 -30 -14 -30 21 0 21 -1 -5 -26 -26 -27 -35 -54 -16 -54 5 0 7 -7 4 -15 -9 -21 24 -19 59 4 33 22 85 18 66 -6 -9 -11 -9 -17 0 -26 9 -9 14 -9 20 2 5 8 7 20 4 28 -4 9 4 13 27 13 28 0 31 -2 20 -15 -10 -13 -9 -15 8 -15 12 0 25 7 30 17 8 13 29 17 103 20 76 4 97 8 112 24 10 10 22 19 27 19 6 0 10 7 10 15 0 8 5 15 10 15 16 0 12 58 -6 86 -14 21 -66 57 -76 53 -2 -1 -15 -4 -31 -6z"/>
</g>
<g id="layer106" fill="#f7d3e2" stroke="none">
<path d="M6700 4520 c0 -12 -152 -212 -157 -207 -2 2 -5 39 -7 83 -2 43 -5 82 -5 86 -1 4 -52 8 -114 10 l-114 3 5 -102 c3 -73 1 -107 -8 -118 -8 -10 -10 -30 -5 -65 l7 -50 -35 0 -35 0 -6 58 c-12 100 2 92 -166 92 -174 0 -157 14 -169 -137 -1 -7 -13 -14 -28 -14 -24 -2 -25 -2 -5 -6 14 -3 22 -11 20 -21 -2 -14 7 -18 51 -20 30 -2 64 -10 75 -19 19 -14 14 -15 -64 -10 -47 3 -76 3 -65 1 108 -25 275 -83 275 -96 0 -5 5 -8 10 -8 16 0 78 -60 100 -96 24 -38 25 -48 5 -40 -27 10 -45 -34 -45 -109 0 -78 9 -105 28 -82 9 10 50 14 169 15 175 2 193 5 193 31 0 24 88 201 100 201 5 0 32 -48 62 -107 29 -60 58 -111 63 -115 8 -6 274 -12 388 -9 21 0 31 -6 40 -26 l12 -26 5 24 6 24 204 5 205 5 3 30 c1 17 7 39 12 50 17 35 26 99 22 148 -4 46 -6 48 -28 43 -23 -6 -24 -4 -24 43 l0 48 -45 -1 c-24 -1 -48 -5 -51 -9 -4 -4 -25 -7 -46 -7 -33 0 -38 3 -36 23 2 21 7 22 86 24 46 0 86 3 88 6 3 3 -2 32 -11 66 -9 34 -13 66 -10 71 3 6 1 10 -4 10 -6 0 -11 9 -11 20 0 16 -5 19 -22 15 -13 -2 -45 -6 -73 -7 -49 -3 -50 -3 -50 27 -1 39 4 47 18 38 7 -5 40 -8 75 -8 45 0 65 -4 72 -15 7 -12 12 -12 21 -3 12 12 5 68 -23 166 l-11 37 -244 0 -243 0 -1 -37 c0 -21 -6 -156 -13 -301 -7 -145 -11 -274 -9 -287 3 -13 0 -31 -6 -42 -8 -15 -11 -9 -11 32 -2 69 -6 205 -15 438 l-8 197 -113 0 -114 0 0 -85 c0 -47 -4 -85 -9 -85 -5 0 -23 19 -39 43 -115 169 -122 178 -122 157z m-212 -209 c1 -72 6 -131 9 -131 10 0 53 42 53 52 0 5 26 41 58 80 31 38 66 83 77 99 11 16 22 29 25 29 5 0 42 -52 153 -213 l47 -70 0 141 0 140 66 4 c37 2 69 -1 72 -7 3 -5 7 -73 8 -150 2 -153 10 -353 20 -482 l6 -83 -104 0 c-122 0 -120 -1 -170 105 -26 56 -71 135 -95 164 -4 5 -30 -29 -49 -64 -35 -62 -94 -183 -94 -193 0 -9 -36 -12 -125 -12 l-125 0 5 68 c8 111 25 450 27 552 2 52 6 97 10 100 3 3 32 4 65 4 l58 -2 3 -131z m1133 99 c16 -58 17 -58 -86 -52 l-95 5 0 -59 c0 -105 1 -106 87 -102 l73 3 10 -35 c6 -19 10 -38 10 -42 0 -5 -39 -8 -86 -8 l-87 0 7 -72 c3 -39 8 -72 9 -73 1 -1 37 1 80 4 44 4 81 2 84 -3 4 -5 7 -41 9 -80 2 -39 6 -95 9 -123 l6 -53 -241 0 -242 0 6 58 c9 78 14 184 22 440 3 120 10 219 14 222 4 3 97 3 206 0 l198 -5 7 -25z m-1441 -193 c4 -26 4 -50 1 -52 -2 -3 -58 -5 -123 -5 -131 0 -124 -4 -112 73 l7 38 111 -3 111 -3 5 -48z"/>
<path d="M4697 4501 c-32 -5 -60 -11 -64 -14 -6 -6 -32 -480 -33 -594 0 -35 -4 -63 -9 -63 -4 0 -8 48 -9 108 0 118 -20 543 -25 548 -1 2 -72 4 -157 5 l-155 1 -8 -34 c-10 -39 -18 -215 -17 -350 1 -70 -2 -98 -10 -98 -9 0 -11 -17 -6 -62 3 -35 2 -85 -3 -113 -5 -27 -9 -41 -10 -30 0 11 -10 37 -21 58 -11 20 -18 37 -15 37 2 0 -7 30 -21 68 -15 37 -33 90 -41 117 -9 28 -29 93 -46 145 -17 52 -31 105 -33 118 -3 31 -35 132 -44 137 -3 2 -51 5 -106 6 l-99 2 -21 -59 c-12 -32 -20 -62 -17 -66 2 -5 0 -8 -6 -8 -6 0 -8 -6 -5 -13 2 -7 -10 -53 -27 -102 -17 -50 -33 -101 -35 -114 -3 -13 -18 -62 -35 -110 -17 -47 -33 -97 -35 -111 -3 -14 -21 -64 -40 -111 -55 -138 -66 -129 149 -130 175 -1 209 0 215 6 1 1 8 33 15 70 8 43 19 70 30 76 20 12 20 12 40 -81 l13 -65 142 -3 c139 -2 142 -3 142 -25 1 -21 1 -22 15 -3 8 11 15 16 15 12 0 -5 6 -4 13 1 14 11 353 17 370 6 14 -8 246 -7 268 2 10 3 23 5 30 4 44 -7 185 56 226 100 18 20 33 41 33 48 0 6 4 14 9 17 8 5 7 -22 -3 -126 l-4 -38 288 0 c159 0 291 3 293 8 4 6 -21 353 -26 358 -1 1 -36 -1 -77 -6 -83 -9 -90 -7 -90 21 0 17 8 19 89 19 66 0 92 4 101 15 10 12 10 15 -4 15 -9 0 -16 8 -16 20 0 10 -4 29 -9 42 -6 13 -13 40 -16 61 -5 29 -10 37 -23 33 -9 -2 -43 -7 -74 -11 l-58 -6 0 40 c0 38 8 50 23 35 4 -4 36 -7 72 -8 38 -1 69 -7 73 -13 4 -7 13 -9 19 -5 12 8 12 43 -1 72 -3 8 -8 29 -10 45 -2 17 -7 42 -11 58 l-7 27 -244 0 -244 0 0 -64 c0 -36 -4 -68 -10 -71 -6 -3 -7 -43 -3 -100 l6 -95 -30 0 c-44 0 -93 11 -93 21 0 4 11 25 25 45 48 70 28 161 -47 216 -61 46 -122 60 -268 64 -74 1 -161 -1 -193 -5z m395 -74 c70 -33 88 -58 88 -117 0 -53 -19 -79 -73 -108 -33 -17 -36 -21 -19 -26 49 -16 103 -68 128 -123 23 -50 26 -66 20 -121 -6 -68 -17 -92 -65 -141 -65 -67 -146 -86 -354 -85 -100 1 -162 5 -169 12 -8 8 -8 69 2 219 7 114 13 240 14 278 6 253 4 233 29 238 12 2 94 3 182 3 153 -1 162 -2 217 -29z m-1142 -15 c0 -19 76 -280 101 -347 21 -57 109 -329 109 -339 0 -3 -26 -6 -59 -6 l-58 0 -13 63 c-16 83 -56 246 -67 276 -6 14 -12 20 -16 15 -16 -27 -75 -291 -77 -346 0 -5 -67 -8 -150 -8 -161 0 -163 1 -136 51 7 14 23 59 35 100 12 41 26 83 31 94 12 27 40 114 40 125 0 5 5 21 12 37 6 15 12 33 12 38 1 6 19 69 40 142 l40 132 65 3 c69 3 91 -4 91 -30z m565 26 c5 -4 20 -458 20 -598 l0 -115 -142 -3 -143 -3 0 38 c0 69 31 676 34 682 4 6 225 5 231 -1z m1241 -1 c2 -1 7 -21 12 -43 l9 -41 -93 5 -94 5 0 -50 c0 -28 3 -65 6 -82 l7 -31 74 0 c50 0 75 -4 77 -12 3 -7 7 -25 10 -40 l6 -27 -87 -3 -88 -3 2 -35 c2 -19 5 -50 8 -68 l6 -33 82 2 82 2 9 -116 c5 -63 6 -122 3 -131 -6 -14 -36 -16 -237 -16 -177 0 -230 3 -230 13 0 6 5 80 10 162 5 83 12 233 16 335 6 157 9 215 13 215 102 0 395 -6 397 -8z"/>
<path d="M4913 4364 c-2 -6 -3 -44 -1 -85 l3 -74 52 0 c57 1 88 20 95 60 7 32 -16 81 -44 96 -29 16 -99 18 -105 3z m88 -44 c27 -15 25 -58 -3 -69 -32 -12 -38 -6 -38 40 0 41 8 46 41 29z"/>
<path d="M4920 4117 c0 -18 3 -62 7 -99 l6 -68 39 0 c76 0 126 62 104 128 -13 38 -50 60 -112 66 -44 4 -44 4 -44 -27z m90 -27 c15 0 32 -39 25 -59 -6 -19 -52 -45 -58 -33 -2 4 -5 29 -6 56 -2 42 0 48 14 42 9 -3 21 -6 25 -6z"/>
<path d="M7855 4498 c-11 -6 -35 -24 -52 -41 -44 -42 -44 -81 0 -132 32 -37 38 -39 100 -43 67 -4 67 -4 107 36 52 52 55 93 8 141 -18 18 -43 37 -56 42 -32 12 -83 11 -107 -3z m119 -59 c32 -25 35 -68 5 -95 -32 -28 -116 -25 -141 5 -25 31 -23 57 7 86 31 32 91 34 129 4z"/>
<path d="M7833 4209 c-1 -29 -7 -55 -13 -59 -6 -4 -8 -14 -5 -22 4 -9 -3 -65 -14 -125 -11 -59 -25 -139 -32 -178 -6 -38 -15 -74 -19 -80 -4 -5 -6 -23 -6 -40 l1 -30 170 -3 c93 -1 175 0 181 2 10 4 9 18 -2 61 -8 30 -12 60 -9 65 3 6 1 10 -5 10 -6 0 -10 8 -8 18 1 9 0 22 -4 27 -3 6 -9 32 -12 59 -4 28 -16 88 -27 135 -11 47 -17 91 -15 98 3 7 1 13 -4 13 -5 0 -8 18 -7 40 1 21 -1 41 -3 43 -3 3 -41 8 -85 12 l-80 6 -2 -52z m117 -4 c0 -12 87 -432 96 -467 5 -16 -5 -18 -121 -18 l-126 0 6 38 c11 63 43 245 51 287 4 22 8 45 9 50 18 122 15 115 51 115 19 0 34 -2 34 -5z"/>
<path d="M7823 3510 c4 -14 7 -28 7 -32 0 -5 6 -8 14 -8 18 0 10 34 -12 52 -13 11 -15 10 -9 -12z"/>
<path d="M7743 3505 c-3 -10 11 -31 42 -61 26 -24 50 -43 52 -40 6 6 -26 76 -45 99 -19 21 -41 22 -49 2z"/>
<path d="M7555 3460 c-7 -34 2 -73 16 -65 5 4 9 20 9 36 0 17 6 32 15 35 23 9 18 24 -9 24 -19 0 -26 -7 -31 -30z"/>
<path d="M4036 3458 c-9 -12 -16 -31 -16 -42 0 -17 4 -15 28 12 16 18 34 32 41 32 7 0 9 5 6 10 -11 17 -43 11 -59 -12z"/>
<path d="M4238 3423 c-19 -5 -25 -47 -9 -57 4 -3 11 -24 15 -46 10 -61 26 -38 26 35 0 67 -4 74 -32 68z"/>
<path d="M7890 3403 c0 -21 3 -24 9 -14 5 8 7 20 4 28 -8 21 -13 15 -13 -14z"/>
<path d="M4300 3366 c0 -20 5 -36 10 -36 6 0 10 13 10 29 0 17 -4 33 -10 36 -6 4 -10 -8 -10 -29z"/>
<path d="M7815 3321 c-6 -11 9 -23 19 -14 9 9 7 23 -3 23 -6 0 -12 -4 -16 -9z"/>
<path d="M4312 3270 c-16 -26 -15 -29 8 -23 11 3 20 14 20 24 0 25 -12 24 -28 -1z"/>
<path d="M4200 3215 c0 -9 5 -15 11 -13 6 2 11 8 11 13 0 5 -5 11 -11 13 -6 2 -11 -4 -11 -13z"/>
<path d="M5700 3138 c-20 -42 -30 -79 -30 -110 0 -56 20 -65 40 -18 7 16 18 35 26 41 8 6 14 22 14 35 0 25 28 48 73 59 51 13 26 37 -51 49 l-43 6 -29 -62z"/>
<path d="M6181 3114 c-21 -15 -23 -22 -18 -64 4 -34 14 -56 34 -76 15 -15 30 -26 33 -24 3 3 6 -15 7 -39 1 -45 43 -119 72 -129 23 -8 9 176 -21 268 -22 69 -26 75 -53 78 -17 1 -41 -5 -54 -14z"/>
<path d="M6359 3073 c-3 -30 4 -111 12 -125 11 -21 35 -24 42 -5 3 6 6 3 6 -8 1 -12 6 -26 12 -32 17 -17 28 -93 18 -120 -4 -12 -18 -32 -30 -44 -15 -15 -18 -24 -11 -27 7 -2 12 -12 12 -23 0 -30 18 -22 25 11 4 16 13 33 20 37 25 15 22 48 -22 183 -8 25 -16 65 -19 90 -3 25 -7 51 -9 58 -5 13 -54 17 -56 5z"/>
<path d="M5745 2899 c-9 -17 -15 -35 -13 -41 2 -6 11 8 20 31 19 48 15 54 -7 10z"/>
<path d="M6200 2640 c-17 -9 -21 -71 -5 -77 14 -4 55 34 55 52 0 19 -32 35 -50 25z"/>
</g>
<g id="layer107" fill="#fbf9fb" stroke="none">
<path d="M6679 4477 c-19 -23 -55 -70 -79 -104 -25 -34 -49 -61 -55 -59 -5 1 -11 41 -13 89 l-3 86 -113 3 -112 3 4 -107 c3 -74 1 -112 -7 -122 -8 -9 -10 -31 -5 -63 l6 -49 -35 4 c-35 4 -36 5 -42 61 -12 99 2 91 -159 91 -149 0 -174 -7 -160 -43 3 -9 2 -22 -2 -29 -4 -6 -8 -26 -8 -42 -1 -26 -6 -32 -31 -37 -22 -5 -24 -7 -8 -8 12 0 23 -9 25 -18 2 -12 16 -17 53 -21 27 -2 61 -10 75 -17 24 -13 22 -14 -35 -15 l-60 -2 55 -15 c71 -19 179 -63 205 -83 54 -41 105 -106 105 -132 0 -27 -20 -41 -20 -15 -1 6 -10 1 -20 -12 -16 -18 -20 -38 -20 -90 0 -74 5 -87 28 -68 10 8 68 13 182 15 l167 4 37 86 c43 101 70 142 85 127 5 -5 33 -56 60 -112 l51 -102 210 -3 c196 -3 210 -4 224 -23 13 -17 15 -17 16 -3 0 20 83 28 275 26 129 -2 129 -2 136 23 4 13 8 40 8 59 1 23 4 31 10 22 11 -18 21 33 21 109 0 58 -1 59 -24 53 -24 -6 -25 -3 -28 43 -2 27 -8 47 -14 46 -6 -1 -44 -5 -86 -9 l-75 -7 -5 27 c-6 31 0 40 19 25 8 -8 38 -9 88 -4 64 6 75 9 71 23 -19 67 -27 106 -22 118 3 8 1 14 -4 14 -6 0 -10 8 -10 19 0 16 -5 17 -42 10 -24 -4 -57 -8 -75 -9 -31 0 -32 1 -30 40 1 25 6 40 14 40 7 0 13 -4 13 -8 0 -4 28 -8 63 -7 34 0 73 -4 86 -8 26 -10 26 -19 -6 126 l-15 67 -244 0 -244 0 0 -27 c0 -16 -5 -116 -10 -223 -6 -107 -11 -248 -12 -313 0 -65 -5 -120 -9 -122 -9 -6 -20 95 -19 175 0 30 -1 107 -3 170 -1 63 -3 166 -5 228 l-2 112 -115 0 -115 0 0 -83 c0 -46 -3 -87 -6 -90 -7 -7 -36 31 -109 139 l-42 63 -34 -42z m-181 -154 c1 -68 6 -123 10 -123 4 0 16 13 27 29 44 64 168 221 174 221 3 0 47 -58 96 -129 50 -71 93 -127 98 -124 4 2 7 60 7 129 l0 125 73 -3 72 -3 12 -275 c6 -151 12 -317 12 -367 l1 -93 -109 0 c-77 0 -112 4 -118 13 -4 6 -19 37 -33 67 -14 30 -43 86 -65 123 l-40 69 -20 -26 c-11 -14 -45 -74 -75 -133 l-56 -108 -119 0 -120 0 0 80 c0 44 6 181 14 305 7 124 12 253 11 288 l-1 63 73 -3 73 -3 3 -122z m1118 115 c4 -6 10 -29 14 -50 l7 -38 -94 6 -94 7 3 -79 3 -79 74 0 c71 0 75 -1 82 -25 19 -68 17 -70 -76 -70 -95 0 -93 3 -77 -85 l8 -40 84 0 85 0 8 -85 c4 -47 6 -107 5 -135 l-3 -50 -233 -3 c-188 -2 -233 0 -238 11 -3 8 -1 99 5 203 12 232 19 402 20 472 l1 52 204 0 c146 0 207 -3 212 -12z m-1443 -168 c3 -3 8 -29 12 -58 l7 -53 -129 3 -128 3 4 50 c1 28 8 53 13 56 12 8 214 6 221 -1z"/>
<path d="M4696 4499 c-32 -5 -61 -11 -64 -13 -6 -7 -20 -292 -31 -633 -1 -18 -6 -33 -12 -33 -6 0 -9 27 -8 73 2 82 -7 343 -16 495 l-7 102 -149 0 c-82 0 -152 1 -156 3 -5 1 -9 -20 -11 -48 -2 -27 -7 -54 -12 -59 -5 -5 -6 -48 -3 -96 4 -54 2 -89 -4 -93 -6 -4 -8 -43 -5 -102 3 -58 1 -95 -5 -95 -6 0 -9 -38 -8 -92 3 -117 -7 -152 -24 -89 -7 24 -16 51 -21 60 -12 22 -160 488 -169 533 -1 5 -4 22 -8 38 -3 17 -9 32 -12 35 -4 2 -52 5 -106 6 l-99 2 -49 -164 c-27 -90 -85 -271 -128 -402 -43 -131 -79 -240 -79 -242 0 -3 90 -5 200 -5 l199 0 6 38 c13 79 17 91 30 102 23 19 32 4 46 -70 l12 -70 66 -2 c36 0 77 0 91 1 14 2 49 0 78 -4 38 -5 52 -11 52 -22 0 -14 3 -13 21 3 12 10 22 18 23 16 0 -2 9 0 19 4 26 9 348 -1 356 -12 6 -10 243 -13 251 -3 3 3 33 10 68 16 99 19 170 59 215 123 l39 55 -7 -90 -7 -90 283 2 284 2 -2 98 c-1 54 -4 135 -8 181 -6 70 -9 82 -23 78 -10 -2 -47 -7 -84 -11 l-68 -7 0 26 0 26 91 0 c90 0 91 0 85 23 -24 83 -36 134 -36 150 0 13 -5 17 -14 14 -8 -3 -41 -9 -74 -13 l-60 -6 -4 36 c-2 21 -2 39 1 41 9 5 163 -12 184 -20 15 -6 18 -3 15 21 -2 16 -6 31 -9 34 -4 3 -13 34 -21 70 l-14 65 -242 3 -242 2 0 -74 c0 -41 -4 -77 -9 -80 -5 -3 -6 -44 -3 -91 l5 -85 -57 0 c-64 0 -81 17 -50 51 13 14 20 40 22 87 3 57 0 72 -20 102 -27 39 -108 84 -181 100 -56 12 -236 11 -321 -1z m322 -39 c63 -15 131 -50 148 -75 40 -62 21 -147 -41 -181 l-33 -18 43 -27 c24 -15 57 -47 72 -70 24 -36 28 -55 31 -123 3 -70 0 -87 -20 -126 -26 -49 -95 -102 -156 -120 -48 -14 -358 -23 -397 -12 -34 10 -34 -9 -15 317 6 94 10 202 10 240 1 39 4 97 8 130 l7 60 45 6 c75 10 252 9 298 -1z m-1070 -37 c5 -16 29 -93 53 -173 23 -80 71 -230 106 -334 34 -104 60 -193 57 -197 -8 -13 -112 -11 -120 2 -3 6 -15 49 -25 96 -27 125 -60 243 -68 243 -8 0 -45 -148 -61 -240 -22 -124 0 -110 -169 -110 -81 0 -150 3 -153 6 -4 3 22 89 56 192 34 103 82 252 105 332 24 80 47 160 53 178 l10 32 73 0 c70 0 73 -1 83 -27z m577 -106 c4 -73 6 -153 4 -178 -2 -24 0 -49 3 -54 3 -6 7 -91 9 -190 l4 -180 -144 -3 c-80 -1 -148 1 -151 5 -4 4 -4 78 1 163 4 85 11 243 14 350 4 107 8 201 11 208 2 9 36 12 122 12 l120 0 7 -133z m1238 126 c3 -5 8 -27 12 -51 l7 -43 -97 7 -97 7 8 -74 c3 -41 9 -78 11 -82 3 -5 37 -7 76 -5 l70 3 9 -34 c15 -55 8 -61 -80 -61 -81 0 -99 -5 -83 -24 5 -6 11 -32 13 -56 l3 -45 82 3 81 4 8 -89 c4 -48 8 -110 8 -138 l1 -50 -237 -3 -238 -2 0 45 c0 25 4 121 10 213 8 137 19 385 21 465 0 16 17 17 204 17 112 0 206 -3 208 -7z"/>
<path d="M4920 4291 c0 -76 1 -81 23 -86 52 -13 117 31 117 80 0 43 -33 72 -92 80 l-48 7 0 -81z m81 29 c37 -20 15 -80 -30 -80 -6 0 -11 20 -11 45 0 46 7 53 41 35z"/>
<path d="M4927 4133 c-3 -5 -3 -47 1 -94 6 -76 9 -84 28 -87 35 -5 91 24 108 56 20 39 6 94 -29 110 -37 17 -102 26 -108 15z m91 -49 c12 -8 22 -26 22 -39 0 -23 -32 -55 -56 -55 -6 0 -12 22 -13 55 -2 60 7 67 47 39z"/>
<path d="M7852 4493 c-19 -9 -43 -29 -54 -44 -21 -29 -33 -89 -17 -89 5 0 9 -7 9 -15 0 -8 17 -26 37 -40 86 -58 214 -8 219 85 1 36 -12 57 -58 90 -47 34 -86 38 -136 13z m108 -38 c37 -19 52 -47 44 -80 -9 -36 -41 -55 -94 -55 -59 0 -90 26 -90 76 0 28 6 38 33 54 38 24 68 25 107 5z"/>
<path d="M7833 4204 c-1 -32 -6 -60 -12 -62 -6 -2 -8 -8 -5 -13 3 -6 -2 -54 -11 -107 -31 -187 -48 -277 -53 -286 -3 -6 -6 -20 -7 -33 l-1 -23 179 0 179 0 -8 43 c-4 23 -8 52 -8 65 -1 12 -4 22 -7 22 -7 0 -27 86 -34 145 -3 22 -12 72 -21 112 -9 40 -13 77 -9 83 3 5 1 10 -6 10 -7 0 -9 10 -6 30 7 34 -13 60 -46 60 -12 0 -44 3 -72 6 l-50 6 -2 -58z m112 8 c10 -7 34 -111 77 -337 11 -60 21 -121 22 -135 l1 -25 -122 -3 -123 -3 0 29 c0 16 9 79 19 138 11 60 27 150 35 199 27 152 25 145 54 145 15 0 32 -4 37 -8z"/>
<path d="M7752 3512 c-17 -11 -5 -40 18 -47 11 -3 22 -14 25 -25 7 -21 35 -35 35 -17 0 14 -51 97 -60 97 -3 0 -11 -4 -18 -8z"/>
<path d="M7832 3495 c6 -14 13 -23 16 -21 7 7 -9 46 -18 46 -5 0 -4 -11 2 -25z"/>
<path d="M7572 3478 c-7 -7 -12 -28 -11 -47 0 -35 1 -35 11 -11 5 14 14 33 19 42 15 30 4 39 -19 16z"/>
<path d="M4037 3451 c-24 -41 -21 -49 6 -18 12 15 28 27 35 27 7 0 10 5 7 10 -11 18 -30 10 -48 -19z"/>
<path d="M4225 3410 c-3 -5 1 -23 10 -40 9 -17 13 -35 10 -39 -7 -13 5 -42 16 -35 10 6 12 84 3 108 -7 18 -30 21 -39 6z"/>
<path d="M4300 3364 c0 -14 4 -23 10 -19 6 3 10 15 10 26 0 10 -4 19 -10 19 -5 0 -10 -12 -10 -26z"/>
<path d="M5707 3140 c-31 -57 -44 -120 -29 -146 9 -15 12 -12 31 24 11 22 25 43 30 47 6 3 8 12 4 21 -7 19 29 51 68 59 36 8 37 22 3 35 -56 22 -78 14 -107 -40z"/>
<path d="M6184 3106 c-27 -22 -27 -25 -15 -65 13 -45 40 -80 58 -74 6 2 12 -19 15 -55 3 -45 10 -66 33 -94 16 -20 32 -35 36 -32 24 15 -21 291 -53 332 -16 19 -44 14 -74 -12z"/>
<path d="M6364 3022 c3 -69 11 -86 37 -79 15 4 23 -3 34 -26 7 -18 14 -25 14 -17 1 8 -6 28 -14 44 -8 15 -15 47 -15 70 0 45 -13 66 -41 66 -15 0 -17 -9 -15 -58z"/>
<path d="M6461 2812 c-1 -33 -32 -82 -50 -82 -12 0 -12 -3 -3 -12 7 -7 12 -20 12 -31 0 -10 5 -15 10 -12 6 3 10 15 10 25 0 10 10 26 22 34 19 14 20 19 11 58 -7 27 -11 34 -12 20z"/>
<path d="M6199 2638 c-1 -2 -3 -20 -4 -40 -4 -34 -2 -36 14 -26 18 11 45 48 39 53 -6 5 -48 16 -49 13z"/>
</g>


</svg>