<!DOCTYPE svg PUBLIC "-//W3C//DTD SVG 20010904//EN" "http://www.w3.org/TR/2001/REC-SVG-20010904/DTD/svg10.dtd">
<svg version="1.0" xmlns="http://www.w3.org/2000/svg" width="1200px" height="675px" viewBox="0 0 12000 6750" preserveAspectRatio="xMidYMid meet">
<g id="layer101" fill="#303030" stroke="none">
 <path d="M6677 4511 c-15 -16 -27 -33 -27 -38 0 -5 -14 -24 -31 -42 -17 -19 -35 -45 -40 -58 -17 -45 -29 -24 -29 52 l0 75 -124 0 -123 0 -7 -31 c-3 -17 -6 -89 -6 -160 l0 -129 -24 0 c-25 0 -24 -1 -41 108 l-7 42 -157 0 -158 0 -14 -77 c-14 -77 -14 -78 -43 -76 -36 3 -35 1 -42 56 l-7 47 32 0 c26 0 31 3 28 18 -3 9 -15 59 -28 110 l-22 92 -259 0 -258 0 0 -73 c0 -41 -3 -115 -6 -165 l-7 -92 -38 0 c-32 0 -39 3 -39 20 0 11 4 20 9 20 17 0 33 71 29 121 -14 140 -153 201 -420 185 -62 -3 -132 -9 -154 -12 l-41 -6 -6 -102 c-4 -55 -10 -173 -14 -261 -7 -157 -7 -159 -14 -75 -4 47 -10 165 -14 263 l-7 177 -174 0 -174 0 0 -42 c0 -76 -29 -580 -33 -584 -8 -8 -137 368 -137 399 0 8 -15 61 -34 118 l-35 104 -114 3 -114 3 -32 -103 c-62 -204 -100 -324 -126 -403 -15 -44 -34 -102 -42 -130 -9 -27 -26 -79 -39 -115 -13 -36 -24 -71 -24 -78 0 -9 44 -12 179 -12 176 0 179 0 184 -22 4 -12 2 -27 -2 -32 -5 -6 -14 -27 -20 -48 -7 -20 -23 -48 -37 -63 -14 -15 -23 -33 -20 -40 5 -13 -13 -75 -25 -85 -11 -11 -39 -55 -39 -63 0 -5 7 -6 16 -3 13 5 15 2 10 -16 -3 -13 -6 -29 -6 -35 0 -7 -7 -13 -15 -13 -8 0 -15 5 -15 10 0 6 -7 10 -16 10 -13 0 -15 -9 -11 -52 11 -101 20 -133 54 -188 51 -81 82 -110 124 -116 21 -4 51 -20 73 -40 33 -31 43 -34 97 -34 32 0 59 4 59 8 0 5 11 14 25 20 14 6 25 17 25 24 0 7 19 21 41 32 53 24 102 77 139 150 29 57 30 64 30 196 0 122 -2 139 -19 154 -11 10 -22 39 -27 74 -12 79 -11 87 5 87 8 0 16 6 19 14 3 9 0 11 -9 5 -12 -7 -12 -5 -1 9 8 9 22 19 33 22 11 4 17 10 14 15 -9 15 15 22 30 10 12 -10 15 -10 15 0 0 10 34 11 168 4 210 -11 414 -9 470 4 23 5 42 6 42 1 0 -4 27 -7 60 -6 59 2 80 -9 63 -35 -4 -7 -1 -8 7 -3 9 6 10 2 5 -15 -6 -18 -4 -22 8 -17 10 4 22 -4 33 -21 12 -18 13 -27 6 -30 -7 -2 -12 -14 -12 -27 0 -17 -6 -22 -25 -22 -14 0 -28 3 -31 8 -3 5 -10 9 -15 9 -6 0 -1 -16 11 -35 21 -33 21 -37 6 -82 -8 -27 -20 -77 -27 -113 -6 -36 -17 -80 -25 -98 -8 -18 -14 -38 -14 -45 0 -25 -25 -66 -47 -76 -18 -8 -21 -15 -14 -33 4 -13 18 -24 30 -26 22 -3 28 -17 12 -26 -13 -8 -46 -75 -55 -109 -4 -16 -3 -26 1 -24 5 3 10 -6 11 -20 1 -14 8 -33 15 -42 9 -12 6 -12 -17 3 -32 20 -46 11 -46 -31 0 -37 -36 -108 -63 -122 -24 -13 -37 -46 -37 -94 0 -20 0 -20 15 -1 8 10 17 33 21 50 3 20 15 36 29 42 19 9 23 8 19 -2 -3 -8 1 -14 8 -13 47 2 48 -1 48 -71 0 -37 -4 -72 -9 -77 -5 -6 -12 -19 -15 -30 -3 -12 -4 -9 -2 7 3 24 0 27 -19 22 -13 -3 -28 1 -37 9 -7 8 -24 18 -37 22 l-23 7 5 -78 c8 -111 17 -146 42 -172 12 -12 28 -42 35 -67 7 -24 19 -50 26 -56 8 -6 14 -16 14 -22 0 -12 66 -112 89 -137 9 -9 32 -34 51 -55 64 -72 171 -153 224 -171 28 -9 83 -19 121 -22 39 -2 77 -10 85 -17 8 -8 27 -16 41 -20 14 -4 41 -20 58 -36 l32 -29 133 0 133 0 33 48 c18 27 52 61 76 76 42 27 61 66 32 66 -7 0 1 9 18 19 18 11 38 28 45 39 8 10 25 25 39 32 51 27 108 83 114 111 3 18 16 34 36 44 16 8 30 21 30 29 0 7 14 40 31 74 16 34 37 96 45 139 8 43 22 105 30 139 16 69 18 134 5 178 -27 90 -41 148 -51 208 -5 37 -19 88 -30 113 -11 26 -20 65 -21 88 -2 69 -12 90 -54 113 -42 21 -40 16 -81 164 -10 36 -28 88 -41 115 -25 55 -30 95 -10 95 8 0 7 4 -3 10 -13 9 -13 11 0 20 10 6 11 10 3 10 -23 0 -13 19 36 70 l49 50 134 0 133 0 22 48 c12 26 27 62 34 80 6 18 21 44 32 58 l20 26 43 -79 c24 -43 46 -90 49 -105 l7 -28 186 -1 c103 -1 193 -1 200 0 17 3 43 -30 37 -46 -2 -7 0 -15 5 -18 6 -4 10 -1 10 4 0 6 10 2 23 -9 12 -10 31 -26 42 -35 11 -9 14 -13 6 -9 -11 5 -12 -3 -5 -47 5 -30 9 -83 9 -119 0 -36 4 -68 9 -72 5 -3 10 -37 10 -75 1 -55 4 -68 17 -71 21 -4 32 -62 12 -62 -7 0 -13 9 -13 20 0 12 -7 20 -16 20 -12 0 -14 -7 -9 -32 8 -38 43 -99 63 -112 8 -4 31 -25 52 -45 21 -20 64 -46 96 -58 51 -20 74 -22 164 -19 122 5 168 18 176 52 3 13 12 28 20 35 8 6 14 20 14 30 0 11 11 36 23 57 57 91 58 220 2 326 -57 109 -104 176 -125 176 -10 0 -21 9 -25 20 -3 10 -19 30 -34 43 -16 13 -31 35 -35 48 -3 13 -3 18 0 12 4 -10 54 -13 200 -13 210 0 203 -2 185 56 -5 16 -14 61 -21 99 -7 39 -25 126 -41 195 -17 69 -30 153 -31 187 -1 53 -4 62 -22 67 -21 6 -21 6 3 19 36 18 63 75 58 119 -11 88 -91 134 -190 108 -58 -15 -94 -48 -103 -95 -8 -43 1 -69 38 -111 18 -20 28 -40 24 -49 -3 -9 -10 -64 -16 -123 -13 -129 -34 -217 -43 -182 -5 20 -10 22 -41 17 -34 -5 -36 -4 -37 21 0 15 -2 37 -3 50 -2 13 1 25 5 28 4 2 1 24 -8 47 -8 23 -18 70 -22 105 l-7 62 28 0 c34 0 34 5 3 105 -14 44 -25 88 -25 98 0 16 -19 17 -254 17 l-253 0 -7 -187 c-4 -104 -10 -215 -14 -248 -7 -58 -7 -57 -13 50 -4 61 -7 172 -8 248 l-1 137 -125 0 -124 0 -3 -76 -3 -76 -34 48 c-59 84 -105 144 -111 144 -3 0 -17 -13 -33 -29z m-923 -221 c56 -1 28 -16 -46 -25 -56 -7 -58 -6 -58 15 0 20 4 22 31 16 17 -3 50 -6 73 -6z m1855 0 c50 -1 21 -16 -46 -25 -50 -6 -53 -6 -53 15 0 20 4 22 31 16 17 -3 48 -6 68 -6z m16 -241 c-56 -11 -103 -11 -110 1 -4 6 22 10 72 9 68 -1 73 -2 38 -10z m-2561 -1401 c-4 -13 -7 -26 -6 -30 1 -5 -5 -8 -14 -8 -8 0 -12 5 -9 10 3 6 2 10 -4 10 -5 0 0 11 12 24 25 29 32 27 21 -6z"/>
 <path d="M4980 2576 c0 -9 -4 -14 -10 -11 -5 3 -10 1 -10 -4 0 -6 5 -11 10 -11 13 0 25 28 16 37 -3 4 -6 -1 -6 -11z"/>
 </g>
<g id="layer102" fill="#565656" stroke="none">
 <path d="M6675 4500 c-17 -23 -45 -58 -62 -78 -18 -20 -33 -41 -33 -48 0 -6 -7 -17 -15 -24 -12 -10 -15 -1 -17 67 l-3 78 -121 3 -121 3 -7 -47 c-3 -26 -6 -100 -6 -165 0 -119 0 -119 -24 -119 -22 0 -25 6 -35 63 -6 35 -11 71 -11 81 0 15 -15 16 -157 14 l-158 -3 -14 -77 c-14 -75 -16 -78 -42 -78 -34 0 -37 5 -45 64 -7 45 -6 46 20 46 33 0 33 22 3 135 l-22 80 -249 3 c-137 1 -253 -1 -257 -5 -5 -5 -9 -57 -9 -118 -1 -60 -4 -131 -7 -157 l-6 -48 -38 0 c-32 0 -39 3 -39 20 0 11 4 20 10 20 12 0 30 65 30 110 0 48 -37 108 -87 144 -72 50 -245 68 -435 44 -88 -11 -98 -14 -98 -32 0 -12 -5 -138 -12 -281 -14 -291 -19 -275 -33 108 l-8 197 -173 0 -174 0 0 -77 c-1 -106 -27 -543 -33 -549 -5 -5 -39 72 -55 126 -6 19 -23 71 -37 115 -15 44 -35 112 -45 150 -10 39 -30 106 -43 150 l-24 80 -114 3 -114 2 -28 -82 c-16 -46 -33 -103 -38 -128 -5 -25 -22 -85 -39 -135 -16 -49 -43 -130 -59 -180 -17 -49 -35 -103 -40 -120 -6 -16 -22 -63 -36 -103 -14 -40 -25 -77 -25 -83 0 -5 81 -9 200 -9 188 0 222 -5 188 -27 -17 -11 -39 -50 -44 -80 -6 -31 -35 -72 -51 -73 -15 0 -17 -26 -3 -35 7 -4 5 -14 -5 -28 -20 -28 -19 -53 1 -61 9 -4 14 -9 11 -12 -3 -3 -15 -1 -26 6 -12 6 -21 7 -21 1 0 -5 5 -11 11 -13 13 -4 -8 -97 -27 -118 -12 -12 -14 -12 -14 2 0 9 -7 19 -16 22 -15 6 -16 -1 -10 -51 4 -32 7 -66 8 -75 1 -10 9 -18 16 -18 9 0 12 6 8 16 -4 11 -1 14 12 12 24 -5 24 -53 0 -53 -23 0 -21 -13 8 -51 13 -17 24 -34 24 -38 0 -4 5 -12 10 -19 6 -7 16 -20 23 -30 7 -9 26 -20 42 -23 51 -8 65 -15 93 -41 15 -15 20 -23 12 -18 -11 6 -12 5 -5 -3 14 -15 116 -22 140 -10 11 6 29 22 40 35 12 13 39 33 60 44 47 25 95 76 132 139 23 41 26 57 30 186 4 131 3 143 -15 160 -38 36 -54 204 -20 204 6 0 21 12 33 27 l23 26 199 -8 c363 -16 472 -10 559 31 43 21 56 15 98 -43 60 -81 69 -107 52 -142 -8 -15 -24 -31 -36 -34 -15 -4 -20 -13 -20 -39 0 -19 -4 -38 -8 -43 -5 -6 -17 -56 -28 -112 -10 -57 -22 -103 -25 -103 -4 0 -11 -15 -14 -32 -11 -49 -33 -88 -51 -88 -19 0 -16 -54 4 -56 6 -1 19 -2 27 -3 13 -1 12 -7 -5 -41 -25 -50 -41 -156 -25 -170 18 -15 96 -29 164 -30 56 0 62 2 51 15 -7 9 -20 13 -28 10 -14 -5 -52 20 -52 35 0 18 33 18 63 0 38 -24 51 -25 43 -5 -8 22 21 32 90 33 55 0 63 -3 75 -24 29 -55 76 -12 65 61 -12 93 -41 124 -126 138 -24 4 -24 4 3 6 35 1 87 -20 108 -45 9 -11 24 -42 33 -71 13 -40 23 -53 44 -60 48 -16 68 -5 96 51 15 30 39 64 53 77 22 21 22 19 -6 -22 -57 -81 -59 -159 -6 -179 39 -15 55 -12 55 10 0 15 7 20 28 20 15 0 33 -5 39 -11 8 -8 19 -4 40 15 15 14 32 26 38 26 18 0 55 -31 55 -46 0 -9 8 -14 23 -12 36 5 35 -16 -2 -28 -45 -14 -20 -24 61 -24 79 0 118 22 118 67 0 37 14 50 35 33 22 -18 18 -64 -6 -86 -19 -17 -38 -19 -193 -19 -129 0 -189 4 -246 18 -163 38 -161 38 -235 22 -111 -24 -323 -30 -434 -11 -52 9 -97 14 -99 12 -2 -3 -7 -19 -12 -38 -4 -18 -9 -39 -11 -47 -2 -7 1 -16 8 -18 7 -3 15 8 18 24 13 56 14 57 35 38 11 -10 16 -23 13 -29 -11 -17 -14 -44 -17 -141 -3 -88 -14 -136 -35 -150 -7 -4 -11 4 -11 19 0 21 -5 26 -24 26 -13 0 -26 6 -29 14 -3 7 -15 16 -26 19 -20 5 -21 1 -21 -58 0 -35 4 -65 9 -67 6 -1 11 -22 12 -45 2 -23 5 -40 7 -38 7 7 52 -57 47 -66 -3 -4 -2 -9 3 -11 4 -1 19 -29 33 -60 27 -61 52 -98 110 -163 20 -22 39 -48 42 -58 4 -9 13 -17 22 -17 8 0 15 -6 15 -13 0 -14 45 -58 52 -51 3 2 22 -13 44 -34 45 -43 103 -62 214 -72 79 -6 104 -15 95 -31 -4 -5 4 -9 15 -9 28 0 80 -31 80 -47 0 -7 9 -13 20 -13 11 0 73 -2 138 -5 l118 -5 39 51 c21 27 58 64 81 80 46 31 53 44 32 53 -9 3 -7 9 7 21 11 8 33 28 49 43 16 15 37 31 46 37 67 40 100 73 110 107 7 25 20 42 38 50 16 8 28 23 30 38 2 14 10 32 17 40 11 12 40 75 35 75 -1 0 4 13 10 29 6 16 13 45 16 65 3 20 14 77 26 128 21 97 21 123 -6 213 -19 63 -21 71 -36 160 -13 79 -13 77 -32 120 -8 20 -19 67 -23 105 -8 80 -15 91 -56 100 -20 5 -34 16 -41 33 -11 29 -45 151 -54 192 -3 14 -16 43 -29 65 -27 47 -31 123 -9 167 8 15 31 39 51 53 36 24 45 25 169 25 l132 0 21 35 c11 20 24 48 28 63 3 15 20 49 36 75 l30 48 21 -43 c11 -24 26 -49 33 -56 7 -7 20 -37 29 -67 l18 -55 205 0 206 0 24 -35 c13 -19 27 -35 31 -35 4 0 17 -8 28 -19 19 -16 22 -29 23 -117 0 -54 -3 -107 -6 -116 -5 -13 -2 -18 9 -18 12 0 16 -10 16 -40 0 -27 6 -42 18 -49 16 -10 16 -10 0 -11 -10 0 -18 -4 -18 -10 0 -5 6 -7 14 -4 9 3 15 -6 19 -28 3 -18 9 -48 13 -66 7 -32 6 -32 -21 -22 -32 12 -43 7 -27 -13 7 -8 8 -18 4 -22 -4 -5 -1 -5 6 -1 6 4 12 2 12 -4 0 -15 70 -83 77 -76 3 3 0 12 -7 21 -11 13 -9 15 13 15 38 0 45 -40 8 -51 -8 -3 19 -22 60 -44 72 -38 152 -55 164 -34 3 5 23 6 43 2 50 -8 61 -7 105 9 35 14 77 67 77 98 0 6 11 28 25 48 14 20 25 47 25 59 0 13 5 23 11 23 16 0 6 188 -11 220 -8 14 -15 30 -16 35 -1 6 -17 33 -35 62 -19 28 -42 65 -51 82 -10 19 -25 31 -38 31 -12 0 -28 12 -39 31 -10 17 -28 37 -39 44 -21 15 -36 70 -24 89 12 18 30 136 31 200 l1 59 -29 -6 c-27 -6 -29 -4 -35 34 -3 21 -4 49 -1 62 3 12 -1 42 -10 66 -8 24 -15 65 -15 91 0 54 -9 61 -58 48 -50 -14 -96 -7 -100 16 -4 20 5 20 156 0 59 -8 59 -7 38 58 -8 24 -20 69 -27 101 l-14 57 -251 0 -251 0 -7 -207 c-4 -115 -10 -233 -14 -263 -7 -53 -7 -52 -13 45 -4 55 -7 173 -8 263 l-1 162 -125 0 -125 0 0 -77 -1 -78 -34 40 c-19 22 -35 45 -35 51 0 5 -19 32 -43 58 l-42 48 -30 -42z m-1634 -62 c73 -17 129 -70 129 -122 0 -54 -27 -94 -72 -108 -21 -6 -38 -16 -38 -22 0 -6 23 -22 51 -34 115 -53 155 -227 76 -334 -61 -83 -247 -123 -471 -101 l-69 6 6 96 c4 53 12 214 18 358 l13 262 25 4 c61 9 284 6 332 -5z m-1087 -90 c25 -84 180 -572 193 -605 4 -10 -7 -13 -45 -13 l-51 0 -6 38 c-17 100 -81 328 -94 337 -9 5 -72 -241 -86 -332 l-7 -43 -139 0 c-77 0 -138 3 -136 8 8 14 125 377 166 514 61 205 51 188 119 188 l59 0 27 -92z m553 17 c5 -161 24 -544 29 -587 l6 -48 -144 0 -143 0 2 47 c1 27 7 161 13 298 6 138 13 276 16 308 l6 58 107 -3 106 -3 2 -70z m1248 53 c19 -67 27 -61 -79 -53 l-97 7 3 -89 3 -88 75 0 c74 0 75 0 86 -30 l11 -30 -86 -5 -85 -5 3 -56 c4 -101 -3 -94 94 -94 l86 0 6 -75 c3 -41 8 -96 11 -122 l6 -48 -232 0 -231 0 5 68 c3 37 8 155 11 262 3 107 8 237 12 288 l6 92 193 0 c191 0 193 0 199 -22z m726 -65 c1 -49 4 -114 8 -146 l6 -57 44 57 c25 32 72 94 105 138 72 97 68 93 73 78 8 -21 183 -268 193 -271 6 -2 10 23 10 60 0 35 3 100 7 146 l6 82 53 0 54 0 0 -32 c0 -53 19 -464 26 -575 l7 -103 -106 0 -105 0 -11 30 c-14 42 -117 225 -135 239 -11 10 -22 -2 -58 -66 -25 -43 -58 -106 -73 -140 l-28 -63 -115 0 -114 0 5 33 c3 17 11 172 17 342 6 171 13 316 15 323 3 8 24 12 60 12 l55 0 1 -87z m1123 75 c3 -7 7 -26 11 -42 l6 -28 -97 7 -97 7 6 -38 c4 -22 7 -63 7 -92 l0 -53 77 2 78 2 6 -31 6 -32 -85 0 -85 0 7 -37 c3 -21 6 -58 6 -82 l0 -43 84 3 85 4 5 -55 c3 -30 8 -85 11 -122 l7 -68 -232 0 -232 0 5 28 c3 15 11 164 17 332 6 168 14 315 16 328 4 22 5 22 195 22 143 0 191 -3 193 -12z m-1854 -137 l45 -7 -40 -12 c-55 -16 -115 -16 -115 1 0 29 23 32 110 18z m414 -47 c3 -9 6 -29 6 -45 l0 -29 -110 0 c-107 0 -110 1 -110 23 1 65 4 67 110 67 80 0 99 -3 104 -16z m1498 -186 c-12 -12 -119 -21 -139 -12 -13 6 -1 10 42 14 79 7 106 7 97 -2z m-1787 -218 c3 -5 -1 -10 -9 -10 -8 0 -18 5 -21 10 -3 6 1 10 9 10 8 0 18 -4 21 -10z m-357 -401 c-2 -6 -7 -10 -11 -10 -4 1 -14 1 -23 1 -8 0 -12 5 -9 10 8 13 48 13 43 -1z m382 -9 c39 -21 25 -25 -33 -9 -21 5 -35 14 -32 20 9 13 26 11 65 -11z m-1917 -78 c5 -7 16 -11 24 -8 7 3 13 -1 13 -8 0 -8 6 -16 13 -19 6 -2 9 -7 5 -11 -3 -4 -15 -3 -26 3 -35 18 -89 14 -95 -8 -6 -25 -84 -35 -109 -13 -28 24 -21 30 25 25 l42 -5 -27 26 c-16 15 -28 29 -28 31 0 10 105 -4 108 -14 8 -25 32 -10 33 22 1 21 3 25 6 12 3 -11 10 -26 16 -33z m3837 34 c0 -8 -4 -18 -10 -21 -5 -3 -10 3 -10 14 0 12 5 21 10 21 6 0 10 -6 10 -14z m-105 -26 c4 -6 10 -8 15 -5 5 3 11 1 15 -4 3 -6 -7 -17 -22 -25 -26 -14 -27 -15 -5 -16 32 0 27 -17 -8 -25 -33 -7 -54 1 -44 17 10 16 -90 3 -119 -17 -16 -10 -23 -22 -20 -34 6 -22 -62 -68 -94 -63 -30 5 -29 20 2 28 13 3 29 12 36 20 9 11 6 14 -19 14 -17 0 -34 5 -37 10 -4 6 5 10 19 10 16 0 26 6 26 14 0 16 41 29 65 19 14 -5 16 -2 11 14 -5 17 -2 19 23 15 22 -3 30 0 34 15 4 15 5 14 6 -4 1 -26 38 -33 47 -9 3 8 11 13 19 10 7 -3 15 2 18 10 7 18 23 21 32 6z m175 -24 c0 -8 -4 -18 -10 -21 -5 -3 -10 -4 -10 -1 0 2 -3 11 -6 20 -4 11 -1 16 10 16 9 0 16 -6 16 -14z m-3746 -38 c16 -16 15 -18 -8 -24 -14 -3 -31 -3 -38 1 -7 4 -2 -2 12 -13 33 -28 21 -37 -25 -18 -30 13 -35 19 -26 30 9 11 9 15 0 18 -7 2 -10 9 -6 15 10 16 72 10 91 -9z m93 -23 c-4 -8 -13 -15 -22 -15 -13 0 -12 3 2 20 19 22 29 19 20 -5z m43 -70 c0 -8 -2 -15 -4 -15 -2 0 -11 -3 -19 -6 -12 -4 -14 0 -10 15 6 24 33 29 33 6z m-420 -160 c0 -7 7 -18 15 -25 13 -11 16 -8 21 19 8 38 28 40 50 6 12 -18 22 -24 35 -20 21 7 26 -9 8 -21 -7 -4 -25 -7 -40 -6 -26 1 -29 -3 -29 -29 0 -18 7 -33 20 -41 25 -16 26 -28 1 -28 -31 0 -58 32 -85 101 -30 76 -32 86 -11 69 8 -7 15 -18 15 -25z m3865 -25 c-10 -11 -24 -20 -32 -20 -32 0 -1 -56 35 -62 37 -5 30 -23 -9 -26 -28 -2 -43 3 -65 23 -15 14 -42 35 -61 46 -18 11 -33 25 -33 30 0 14 9 11 48 -13 l35 -21 -7 36 c-6 34 -5 37 17 37 12 0 29 -6 36 -12 10 -11 14 -9 23 5 7 14 13 16 21 8 7 -7 5 -16 -8 -31z m105 -49 c0 -12 -42 -42 -49 -36 -5 6 29 45 41 45 4 0 8 -4 8 -9z m-3790 -60 c0 -11 -40 -22 -53 -14 -5 3 -3 9 4 14 18 11 49 11 49 0z m1424 -191 c33 -12 34 -44 2 -65 -13 -9 -50 -20 -82 -26 -32 -6 -70 -17 -85 -25 -21 -11 -29 -11 -50 1 -13 8 -39 22 -56 31 -53 28 -41 41 40 46 39 2 88 11 107 20 19 10 49 19 65 21 17 2 31 5 32 6 1 0 13 -3 27 -9z m482 -46 c41 -15 77 -30 79 -35 18 -27 -150 -19 -185 9 -25 20 -18 52 12 52 11 0 53 -12 94 -26z m414 -29 c32 -17 36 -26 20 -56 -11 -20 -64 -52 -73 -43 -3 3 -1 21 4 40 6 19 7 39 4 44 -6 10 1 30 11 30 3 0 18 -7 34 -15z m-1172 -343 c2 -12 -1 -22 -7 -22 -6 0 -11 5 -11 11 0 5 -13 15 -30 20 -28 10 -38 28 -23 42 11 12 68 -28 71 -51z m67 27 c10 -30 0 -33 -13 -4 -6 14 -7 25 -2 25 5 0 12 -9 15 -21z m-105 -105 c0 -8 -4 -14 -10 -14 -5 0 -10 2 -10 4 0 2 -3 12 -6 20 -5 12 -2 15 10 10 9 -3 16 -12 16 -20z m-12 -43 c17 -9 22 -21 22 -51 0 -29 -4 -40 -15 -40 -9 0 -18 -7 -21 -15 -5 -12 -11 -10 -35 7 -31 23 -38 55 -14 64 21 9 19 24 -4 24 -18 0 -35 23 -25 33 7 6 64 -7 92 -22z m238 -56 c3 -8 15 -17 26 -21 11 -3 29 -26 39 -50 11 -24 26 -44 33 -44 8 0 17 -15 20 -32 l7 -33 21 40 c14 25 21 60 22 95 1 51 3 55 27 58 14 2 31 -4 39 -12 7 -9 18 -16 25 -16 7 0 16 -11 19 -25 4 -14 13 -25 21 -25 8 0 15 -7 15 -15 0 -22 12 -18 49 15 34 32 51 32 51 0 0 -31 -11 -50 -30 -50 -10 0 -24 -7 -31 -16 -10 -13 -27 -15 -76 -12 -35 2 -63 1 -63 -2 0 -13 32 -96 41 -107 7 -7 6 -13 -1 -18 -20 -13 -9 -26 48 -53 32 -15 58 -35 60 -44 3 -15 -4 -18 -47 -18 -27 0 -53 5 -56 10 -3 6 -16 10 -27 10 -21 0 -60 35 -71 64 -4 9 -13 16 -21 16 -19 0 -32 40 -16 50 9 6 9 10 -2 16 -21 12 -148 201 -148 219 0 19 19 19 26 0z m555 -323 c-11 -21 -46 -37 -105 -47 -57 -9 -42 13 35 51 65 33 89 32 70 -4z"/>
 <path d="M4909 4376 c-2 -2 -3 -45 -1 -95 l3 -91 49 0 c68 0 110 35 110 92 0 60 -42 98 -108 98 -27 0 -51 -2 -53 -4z m99 -94 c-2 -9 -11 -18 -21 -20 -13 -3 -17 3 -17 28 0 28 2 30 21 20 11 -6 19 -19 17 -28z"/>
 <path d="M4917 4053 c6 -129 4 -126 56 -118 81 14 116 47 117 113 0 66 -47 102 -134 102 l-43 0 4 -97z m106 5 c6 -19 -3 -37 -24 -49 -17 -9 -19 -6 -19 36 0 42 2 45 19 35 11 -5 21 -15 24 -22z"/>
 <path d="M7835 4501 c-35 -15 -58 -49 -65 -95 -7 -48 -1 -67 37 -107 18 -20 23 -33 18 -55 -3 -16 -10 -69 -15 -119 -4 -49 -16 -119 -25 -155 -23 -93 -36 -162 -50 -267 l-5 -43 190 0 c219 0 199 -14 175 121 -17 98 -16 92 -49 232 -15 59 -27 139 -28 177 -2 65 -4 70 -25 70 -33 0 -37 17 -4 23 22 5 34 17 51 52 20 41 21 52 11 83 -22 72 -40 84 -122 88 -41 2 -83 0 -94 -5z m135 -71 c32 -32 25 -66 -19 -89 -52 -28 -132 18 -117 67 14 42 102 56 136 22z m-20 -254 c0 -11 20 -117 44 -233 l43 -213 -113 0 c-95 0 -114 3 -114 15 0 9 11 66 24 128 13 61 27 139 31 172 3 33 11 83 16 111 9 49 11 50 39 46 23 -3 30 -10 30 -26z"/>
 </g>
<g id="layer103" fill="#828282" stroke="none">
 <path d="M6677 4502 c-15 -15 -27 -32 -27 -38 0 -5 -16 -24 -35 -43 -19 -18 -35 -38 -35 -46 0 -7 -7 -18 -15 -25 -12 -10 -15 -1 -17 67 l-3 78 -121 3 -121 3 -6 -83 c-4 -46 -7 -120 -7 -165 0 -81 0 -83 -25 -83 -25 0 -25 -2 -43 110 l-8 45 -154 0 -154 0 -14 -77 -14 -78 -33 0 c-33 0 -34 1 -42 53 -7 38 -13 51 -24 48 -7 -2 -42 -6 -76 -8 -60 -6 -63 -5 -63 17 0 22 2 23 73 16 39 -3 87 -9 105 -12 40 -8 40 -3 9 121 l-23 90 -251 3 -250 2 -7 -37 c-3 -21 -6 -78 -6 -128 0 -49 -3 -107 -6 -127 -6 -36 -8 -38 -45 -38 -45 0 -51 18 -22 60 11 16 17 44 18 81 0 69 -34 125 -98 161 -78 44 -255 56 -457 30 l-55 -7 -7 -120 c-3 -66 -10 -192 -14 -280 -4 -88 -9 -152 -11 -143 -3 9 -10 135 -16 280 l-12 263 -167 3 c-167 2 -168 2 -172 -20 -3 -13 -10 -138 -16 -278 -13 -296 -18 -348 -33 -329 -9 11 -106 313 -147 459 -12 41 -30 95 -39 120 l-17 45 -109 0 -109 0 -34 -110 c-80 -259 -107 -344 -129 -410 -52 -154 -103 -308 -103 -312 0 -1 96 -3 213 -3 l212 0 32 34 c24 27 33 31 37 20 12 -32 7 -45 -13 -35 -16 9 -23 5 -45 -24 -14 -18 -26 -38 -26 -44 0 -15 -51 -51 -63 -44 -6 3 -7 1 -3 -6 9 -15 -31 -81 -50 -81 -15 0 -15 -21 1 -32 6 -5 5 -12 -3 -20 -6 -6 -12 -25 -12 -40 0 -33 18 -36 56 -12 35 23 88 28 104 9 18 -21 30 -19 31 8 1 17 3 15 10 -10 7 -23 16 -33 29 -33 11 0 20 -7 20 -15 0 -18 16 -20 23 -2 2 7 19 14 38 15 25 2 39 -4 61 -28 15 -17 28 -35 28 -41 0 -15 40 -10 46 6 9 22 24 18 24 -5 0 -18 -7 -20 -57 -20 -50 -1 -56 -2 -41 -14 25 -18 12 -26 -25 -15 -60 17 -85 31 -90 50 -9 33 -46 39 -94 13 -23 -12 -48 -24 -54 -26 -9 -3 -9 -14 1 -43 8 -22 13 -50 12 -63 -1 -16 6 -25 23 -32 14 -5 25 -14 25 -20 0 -6 6 -10 13 -9 26 3 37 -2 37 -16 0 -19 21 -19 46 0 10 8 25 15 31 15 19 0 -48 -86 -77 -100 -14 -7 -20 -15 -13 -17 7 -2 9 -11 6 -19 -8 -23 22 -17 55 11 21 18 32 22 35 13 3 -9 14 -3 30 17 21 25 27 28 41 16 14 -12 11 -19 -30 -67 -25 -29 -43 -57 -40 -62 3 -5 -4 -16 -15 -25 -10 -9 -19 -22 -19 -27 0 -15 32 3 67 39 16 15 44 36 63 46 52 25 117 102 141 165 16 42 22 85 25 177 4 112 2 123 -15 135 -14 10 -23 34 -30 76 -5 34 -13 66 -16 72 -9 15 20 63 54 88 28 20 40 22 168 22 76 -1 185 -5 243 -10 134 -11 285 3 362 34 69 28 77 24 132 -58 20 -30 42 -58 48 -62 6 -4 30 14 55 44 l45 52 64 0 c50 0 64 -3 64 -15 0 -8 -7 -15 -15 -15 -8 0 -15 -4 -15 -10 0 -15 -21 -12 -42 7 -36 32 -73 -10 -95 -107 -3 -14 -11 -29 -18 -35 -6 -5 -15 -27 -19 -47 -6 -36 -97 -158 -116 -158 -5 0 -12 -17 -15 -37 -4 -21 -15 -56 -26 -79 -10 -23 -22 -55 -25 -71 -4 -19 -15 -35 -30 -42 -31 -14 -33 -50 -1 -53 12 0 31 0 41 1 19 1 19 1 -1 -21 -30 -33 -55 -109 -51 -154 3 -35 6 -39 33 -42 22 -2 39 6 64 30 53 50 124 98 145 98 10 0 36 5 57 12 35 10 44 8 90 -15 28 -15 55 -27 60 -27 13 0 11 51 -4 80 -18 37 -67 49 -207 51 l-125 2 80 10 c108 13 227 -2 260 -33 14 -13 31 -47 40 -77 17 -59 44 -80 89 -69 19 5 34 23 55 65 16 32 41 65 55 75 33 21 127 34 196 25 48 -5 43 -6 -41 -8 -82 -1 -101 -4 -130 -24 -61 -41 -98 -141 -70 -186 11 -18 31 -5 31 19 0 28 87 89 125 90 43 0 110 -26 108 -42 -2 -12 52 -55 91 -71 13 -5 17 -14 14 -32 -5 -23 -3 -25 37 -25 52 0 75 23 75 73 0 43 20 50 44 15 21 -30 20 -50 -4 -80 -18 -24 -28 -26 -134 -33 -103 -6 -113 -9 -109 -25 5 -18 31 -30 69 -30 40 0 36 -27 -6 -44 -42 -17 -77 -13 -200 19 -30 7 -67 16 -82 20 -19 3 -30 14 -34 31 -9 34 -65 75 -112 81 -31 4 -44 0 -69 -21 -18 -15 -34 -35 -38 -45 -5 -16 -70 -52 -122 -66 -13 -4 -23 -12 -23 -20 0 -7 -6 -15 -12 -17 -9 -3 -3 -17 17 -44 34 -44 84 -142 85 -165 0 -8 -5 -20 -11 -26 -16 -16 15 -59 50 -71 22 -8 32 -7 44 5 19 20 37 9 37 -23 0 -31 25 -41 49 -20 22 20 35 20 51 1 10 -12 16 -13 26 -4 11 9 14 5 14 -25 0 -31 3 -36 23 -36 26 0 72 29 93 59 20 28 89 62 110 54 14 -5 15 -8 3 -17 -21 -16 -73 -102 -104 -174 -19 -43 -43 -76 -73 -101 -27 -24 -43 -45 -41 -56 3 -14 13 -9 53 26 l50 44 -20 -34 c-10 -18 -28 -40 -39 -50 -38 -30 -38 -39 1 -38 49 1 113 72 163 180 21 45 48 87 59 94 18 11 17 7 -8 -35 -30 -50 -48 -126 -32 -136 20 -12 38 6 66 70 40 88 72 102 116 49 7 -9 21 -13 31 -10 26 9 24 -2 -8 -34 -60 -60 -81 -90 -88 -127 -4 -22 -21 -54 -41 -76 -19 -21 -34 -43 -34 -50 0 -6 -8 -20 -17 -31 -17 -19 -17 -20 2 -15 11 3 28 9 39 13 17 7 17 6 6 -16 -6 -13 -31 -41 -53 -61 -32 -29 -38 -37 -23 -38 15 0 16 -3 6 -15 -7 -8 -19 -15 -26 -15 -8 0 -14 -7 -14 -15 0 -24 50 -8 78 23 60 69 79 89 107 110 19 14 25 25 18 28 -13 6 -6 34 8 34 5 0 23 16 41 35 18 19 39 36 46 37 7 2 31 20 54 40 23 21 45 38 50 38 4 0 8 9 8 21 0 11 18 38 40 60 22 22 40 47 40 56 0 9 6 24 14 32 17 19 67 147 60 154 -3 2 7 54 21 115 31 137 31 153 -1 191 -27 32 -43 94 -27 104 12 8 -2 86 -33 187 -12 41 -26 103 -30 137 -7 66 -19 84 -68 100 -27 8 -32 17 -47 79 -10 38 -22 82 -28 97 -6 16 -9 33 -5 38 3 5 0 9 -5 9 -6 0 -11 7 -11 16 0 9 -10 32 -22 51 -41 67 -18 184 45 228 17 12 53 15 163 15 l142 0 25 53 c13 28 33 71 42 95 10 23 22 42 27 42 4 0 8 7 8 15 0 8 4 15 8 15 9 0 103 -180 102 -196 0 -21 29 -24 224 -24 l192 0 31 -32 c32 -36 73 -68 84 -68 4 0 10 8 12 18 3 9 5 -7 6 -36 0 -29 -4 -63 -11 -75 -6 -12 -11 -38 -9 -58 1 -20 -3 -48 -8 -63 -8 -20 -8 -26 4 -26 9 0 15 -13 17 -37 4 -50 29 -55 56 -11 27 44 70 68 100 57 25 -10 27 -6 11 24 -11 21 -11 21 14 -2 30 -27 53 -23 60 11 4 20 4 20 6 -4 1 -18 7 -28 17 -28 8 0 13 4 10 8 -8 13 32 52 54 52 11 0 25 -6 32 -13 7 -8 20 -12 28 -10 9 3 22 -2 29 -10 10 -13 8 -16 -8 -22 -28 -9 -27 -25 2 -26 20 -1 19 -2 -8 -14 -37 -17 -99 -19 -124 -4 -27 18 -70 3 -82 -29 -6 -15 -19 -35 -31 -46 l-20 -19 32 -25 c17 -13 36 -36 41 -49 7 -20 15 -24 34 -20 14 2 28 1 31 -4 3 -5 14 -3 24 3 15 10 22 10 32 0 18 -18 24 -15 47 24 12 20 24 34 26 32 7 -7 -16 -122 -27 -135 -7 -9 -5 -17 5 -28 9 -8 18 -15 21 -15 11 0 28 43 36 89 6 39 8 41 9 14 1 -36 21 -47 21 -12 0 34 18 58 39 52 11 -3 17 -11 15 -18 -14 -36 -29 -135 -22 -137 5 -2 5 -15 -1 -31 -6 -15 -7 -27 -2 -27 12 0 51 67 51 88 0 9 12 35 25 57 14 22 25 48 25 58 0 10 4 15 10 12 14 -9 5 174 -10 208 -7 15 -17 27 -21 27 -4 0 -10 12 -13 26 -4 15 -24 55 -44 90 -28 49 -44 66 -65 71 -16 3 -31 12 -34 19 -3 7 -21 30 -40 50 -39 41 -38 34 -9 189 8 44 15 100 15 124 1 42 0 43 -26 37 -31 -8 -43 5 -43 52 l0 34 -67 -7 c-38 -4 -75 -9 -84 -11 -9 -2 -16 2 -16 10 0 10 23 15 86 20 46 3 86 8 88 10 2 2 -1 16 -8 32 -6 16 -14 58 -17 94 l-7 65 -78 -3 c-73 -4 -77 -3 -77 17 0 25 29 27 126 9 35 -6 67 -8 71 -4 4 3 -3 44 -15 90 -12 46 -22 93 -22 105 0 21 -2 21 -254 21 l-253 0 -2 -97 c-3 -160 -19 -455 -25 -461 -3 -3 -7 28 -7 69 -1 41 -5 166 -8 279 l-6 205 -116 3 -116 3 -7 -38 c-3 -21 -6 -55 -6 -75 0 -21 -4 -38 -8 -38 -5 0 -27 28 -49 63 -41 63 -84 117 -94 117 -3 0 -17 -13 -32 -28z m-1684 -53 c91 -14 154 -48 173 -96 27 -62 3 -113 -71 -151 l-40 -20 45 -20 c86 -37 130 -111 130 -217 -1 -170 -144 -244 -447 -233 -74 3 -135 7 -137 9 -2 2 0 56 5 119 4 63 13 223 19 355 6 131 13 242 16 245 6 5 110 16 187 18 27 1 81 -3 120 -9z m-1016 -164 c24 -82 72 -238 108 -345 36 -107 65 -198 65 -203 0 -13 -100 -8 -104 6 -2 6 -13 58 -25 115 -27 124 -61 242 -71 242 -8 0 -64 -218 -75 -290 -13 -86 0 -80 -157 -80 -109 0 -139 3 -135 13 14 37 131 404 172 540 l48 158 65 -3 65 -3 44 -150z m533 103 c0 -68 18 -468 25 -575 l6 -83 -147 0 -146 0 6 63 c3 34 10 188 17 342 6 154 12 286 15 293 2 9 34 12 114 12 l110 0 0 -52z m1243 45 c3 -5 8 -23 12 -40 l7 -33 -98 0 -97 0 7 -37 c3 -21 6 -60 6 -87 l0 -49 75 6 c41 3 77 2 79 -1 2 -4 6 -20 7 -37 l4 -30 -77 3 c-48 2 -79 -1 -83 -8 -4 -6 -4 -43 0 -82 l7 -71 84 6 83 5 5 -42 c3 -22 8 -78 11 -123 l6 -83 -230 0 -231 0 0 23 c0 45 21 545 26 615 l6 72 193 0 c107 0 196 -3 198 -7z m728 -20 c1 -16 4 -80 8 -143 l6 -115 72 95 c123 160 138 179 143 179 3 0 30 -36 60 -80 84 -122 130 -184 140 -187 6 -2 10 52 10 138 l0 141 63 -3 62 -3 6 -210 c3 -115 10 -274 14 -352 l8 -143 -105 0 -104 0 -28 58 c-37 77 -118 212 -126 212 -11 0 -76 -110 -114 -193 l-35 -77 -117 0 -117 0 7 88 c7 92 26 508 26 580 l0 42 60 0 c58 0 60 -1 61 -27z m1129 18 c0 -5 3 -23 6 -40 l7 -31 -92 0 -92 0 3 -82 3 -83 78 2 c53 1 77 -2 77 -10 0 -7 3 -22 6 -34 6 -22 4 -23 -74 -23 -45 0 -82 -3 -84 -7 -2 -5 -2 -41 0 -82 l4 -73 85 3 c71 3 86 1 88 -11 1 -8 5 -63 9 -122 l7 -108 -231 0 -231 0 6 78 c7 92 25 505 25 580 l0 52 200 0 c110 0 200 -4 200 -9z m-1440 -193 c0 -13 3 -33 6 -45 6 -23 6 -23 -114 -23 -132 0 -122 -6 -107 63 l5 27 105 0 c102 0 105 -1 105 -22z m-246 -410 c84 -48 174 -129 218 -197 36 -58 35 -65 -7 -40 -19 12 -35 26 -35 33 0 7 -21 30 -46 52 -26 21 -57 49 -71 61 -14 12 -38 25 -54 28 -16 4 -31 11 -34 16 -4 5 -15 9 -26 9 -10 0 -19 4 -19 9 0 5 -3 23 -6 40 -4 17 -4 31 -1 31 2 0 39 -19 81 -42z m-1804 -178 c0 -5 -18 -10 -40 -10 -22 0 -40 5 -40 10 0 6 18 10 40 10 22 0 40 -4 40 -10z m124 -6 c10 -25 -1 -29 -14 -5 -6 12 -7 21 -1 21 5 0 12 -7 15 -16z m1556 7 c18 -5 25 -14 25 -31 0 -35 -37 -50 -128 -50 -75 0 -78 1 -88 26 -20 54 -6 64 84 63 45 -1 93 -4 107 -8z m1610 -15 c0 -17 -7 -25 -25 -28 -29 -6 -28 -7 -15 26 12 33 40 34 40 2z m130 16 c0 -11 -46 -32 -70 -32 -25 0 -26 16 -2 29 21 13 72 14 72 3z m-3522 -43 c32 -1 47 -4 35 -6 -13 -2 -23 -9 -23 -14 0 -8 -78 -2 -89 7 -2 2 0 11 4 21 5 12 9 14 12 6 3 -8 26 -14 61 -14z m102 -24 c17 -9 30 -18 30 -20 0 -12 -29 -3 -50 15 -28 24 -20 26 20 5z m3473 3 c-15 -7 -30 -7 -50 0 -26 10 -24 10 22 11 42 0 46 -2 28 -11z m-105 -26 c9 -6 -1 -13 -30 -21 -50 -15 -52 -15 -55 -4 -3 7 30 22 67 31 3 1 11 -2 18 -6z m-3423 -17 l30 -13 -30 -1 c-16 -1 -40 -4 -52 -7 -20 -6 -23 3 -14 34 2 6 39 0 66 -13z m3480 -21 c-11 -8 -27 -20 -36 -27 -12 -11 -17 -11 -27 -1 -15 17 21 44 58 44 24 -1 25 -1 5 -16z m-2105 -24 c0 -5 11 -16 23 -25 22 -14 31 -13 108 6 108 27 170 22 285 -25 55 -21 98 -33 112 -29 13 3 22 1 22 -6 0 -17 -42 -23 -90 -12 -25 6 -59 11 -77 11 -24 0 -31 4 -27 14 4 10 -9 17 -46 25 -65 14 -93 14 -124 0 -42 -20 -19 -29 70 -29 46 0 84 -4 84 -9 0 -13 -189 -20 -252 -8 -48 9 -60 8 -82 -7 -26 -16 -26 -16 -37 11 -13 35 -3 93 16 93 8 0 15 -4 15 -10z m2376 -136 c-24 -17 -26 -16 -19 19 5 27 7 27 22 12 15 -15 14 -17 -3 -31z m-2035 -25 c37 -19 1 -42 -72 -45 -47 -2 -70 -9 -98 -28 -46 -32 -66 -34 -51 -7 17 33 12 51 -15 51 -22 0 -38 19 -17 20 4 1 30 7 57 15 55 16 161 13 196 -6z m2156 5 c3 -8 0 -27 -5 -43 -7 -20 -7 -32 1 -40 8 -8 7 -17 -2 -35 -8 -13 -11 -29 -7 -34 6 -11 -44 -52 -62 -52 -17 0 -25 20 -14 33 6 7 10 48 10 92 0 44 1 83 1 87 2 13 72 6 78 -8z m-2527 -96 c0 -6 -7 -5 -15 2 -8 7 -15 17 -15 22 0 6 7 5 15 -2 8 -7 15 -17 15 -22z m-1107 -35 c25 -8 21 -42 -9 -65 -14 -11 -23 -27 -20 -34 3 -8 -5 -21 -19 -30 -14 -9 -25 -23 -25 -30 0 -10 -13 -14 -45 -14 -35 0 -45 4 -45 16 0 9 9 18 20 21 11 3 20 9 20 15 0 5 16 32 35 61 19 28 35 58 35 65 0 10 6 12 18 7 9 -4 25 -10 35 -12z m1160 -56 c-3 -5 -14 0 -25 11 -12 12 -17 25 -13 32 6 9 13 6 26 -11 9 -13 15 -27 12 -32z m674 -168 c39 -15 73 -49 73 -73 -1 -16 -6 -12 -20 16 -20 37 -40 47 -120 61 -21 4 -20 4 7 6 17 0 44 -4 60 -10z m223 -325 c13 -3 30 -13 38 -21 9 -9 25 -11 47 -7 30 5 33 3 44 -27 6 -17 11 -41 11 -51 0 -20 -35 -61 -61 -71 -12 -5 -12 -7 1 -17 8 -6 11 -13 5 -16 -24 -11 -33 -20 -37 -39 -2 -16 2 -19 20 -18 25 3 31 -24 7 -34 -9 -3 -22 -18 -30 -33 -8 -15 -25 -30 -39 -34 -22 -5 -24 -11 -23 -55 1 -27 -1 -52 -4 -55 -3 -4 -30 -8 -60 -10 -30 -1 -63 -8 -75 -14 -26 -14 -95 4 -87 23 2 7 0 16 -6 20 -17 10 4 41 39 55 28 12 34 20 31 46 -1 6 9 33 21 60 12 27 22 52 23 56 0 3 3 10 8 14 12 12 8 22 -10 27 -11 3 -7 5 10 6 18 1 27 6 27 17 0 9 9 32 21 50 14 23 20 48 19 81 -2 65 -2 65 18 59 9 -2 28 -8 42 -12z m-100 -699 c-23 -24 -40 -25 -40 -1 0 11 50 36 59 29 3 -2 -6 -14 -19 -28z"/>
 <path d="M4910 4291 c0 -88 1 -91 25 -97 37 -9 107 17 124 47 20 36 7 94 -25 116 -14 9 -47 18 -75 21 l-49 5 0 -92z m84 23 c21 -8 21 -50 0 -58 -21 -8 -22 -7 -24 24 -4 43 -3 44 24 34z"/>
 <path d="M4922 4049 l3 -104 34 -3 c105 -10 169 95 104 168 -23 26 -38 32 -86 37 l-58 6 3 -104z m92 25 c9 -8 16 -22 16 -29 0 -15 -27 -45 -41 -45 -5 0 -9 20 -9 45 0 48 9 55 34 29z"/>
 <path d="M7843 4503 c-37 -7 -73 -59 -73 -104 0 -44 11 -72 42 -106 19 -20 19 -27 9 -86 -6 -35 -11 -80 -11 -101 0 -20 -16 -109 -35 -196 -19 -87 -35 -179 -35 -204 l0 -46 186 0 187 0 -8 43 c-3 23 -9 57 -11 74 -2 18 -20 101 -39 185 -20 84 -36 186 -38 225 -2 72 -2 73 -29 73 -15 0 -30 5 -33 10 -3 6 4 10 17 10 28 0 39 7 61 42 22 35 22 102 0 139 -25 42 -103 59 -190 42z m125 -69 c14 -10 22 -26 22 -44 0 -36 -32 -60 -80 -60 -71 0 -104 56 -60 100 24 24 86 27 118 4z m-33 -232 c6 -4 30 -101 53 -217 23 -115 45 -220 48 -232 6 -23 6 -23 -114 -23 -109 0 -120 2 -116 18 26 123 45 228 59 327 10 66 19 123 22 128 5 9 35 9 48 -1z"/>
 <path d="M6012 2796 c1 -10 8 -17 13 -17 15 1 12 24 -3 29 -9 3 -13 -2 -10 -12z"/>
 <path d="M5735 2730 c3 -5 23 -10 43 -9 30 0 33 2 17 9 -28 12 -67 12 -60 0z"/>
 <path d="M5110 2708 c0 -17 3 -19 12 -10 7 7 43 13 83 13 125 2 140 17 18 18 -110 1 -113 0 -113 -21z"/>
 <path d="M5050 2090 c0 -5 10 -15 23 -21 22 -12 22 -12 3 10 -21 23 -26 26 -26 11z"/>
 <path d="M5780 1860 c0 -5 7 -10 15 -10 8 0 15 5 15 10 0 6 -7 10 -15 10 -8 0 -15 -4 -15 -10z"/>
 </g>
<g id="layer104" fill="#bfbfbf" stroke="none">
 <path d="M6630 4428 c-73 -99 -75 -101 -81 -72 -4 16 -7 52 -8 81 l-1 52 -117 3 c-65 2 -119 3 -120 3 -1 -1 -3 -74 -5 -163 l-3 -163 -30 3 c-29 3 -30 5 -40 73 l-10 70 -155 0 -155 0 -7 -50 c-15 -95 -15 -95 -52 -95 -35 0 -46 13 -46 55 0 35 -19 44 -75 35 -81 -14 -85 -13 -85 18 l0 28 73 -7 c39 -4 75 -5 80 -2 4 2 7 -1 7 -6 0 -18 29 -12 39 7 9 17 3 45 -35 180 -3 9 -62 12 -252 12 l-249 0 -7 -77 c-3 -42 -6 -114 -6 -160 l0 -83 -44 0 c-25 0 -48 5 -51 10 -4 6 4 27 16 47 44 70 20 174 -51 225 -64 46 -159 62 -343 55 -89 -3 -170 -8 -179 -12 -14 -6 -18 -19 -18 -64 0 -31 -5 -171 -12 -311 -14 -285 -19 -267 -32 115 -4 105 -9 205 -12 223 l-5 32 -164 0 -163 0 -6 -62 c-7 -77 -27 -487 -24 -508 3 -32 -3 -50 -16 -50 -12 0 -35 54 -65 150 -6 19 -26 80 -45 135 -19 56 -36 115 -39 131 -3 17 -18 70 -33 118 l-28 87 -110 -3 -110 -3 -28 -85 c-16 -47 -31 -98 -34 -115 -3 -16 -19 -68 -36 -115 -17 -47 -32 -97 -34 -112 -2 -15 -17 -63 -34 -107 -17 -44 -33 -92 -36 -107 -3 -15 -16 -54 -29 -87 -14 -33 -25 -66 -25 -74 0 -10 42 -13 208 -13 l207 0 17 38 c9 20 20 52 23 70 4 18 9 31 11 29 3 -2 12 -35 22 -72 l17 -68 119 -2 120 -1 17 -40 c10 -21 18 -33 18 -27 1 7 20 27 44 44 l42 31 150 -6 c83 -4 213 -9 290 -12 157 -6 230 3 311 40 69 32 104 24 117 -24 10 -38 43 -90 58 -90 5 0 16 18 25 39 20 51 27 52 312 48 l223 -4 -7 136 c-3 75 -9 161 -13 191 -7 62 -1 59 -108 46 -59 -7 -63 -6 -63 14 0 20 4 20 133 16 191 -5 241 -31 243 -126 1 -40 7 -81 20 -147 2 -12 10 -28 17 -35 17 -18 87 -133 117 -192 l25 -49 6 29 c8 38 25 74 44 99 14 18 30 20 176 23 l161 3 19 47 c28 68 83 172 90 172 4 0 28 -40 53 -90 25 -49 44 -90 41 -90 -3 0 -1 -9 5 -20 10 -19 21 -20 215 -20 l204 0 25 -32 c13 -18 38 -41 55 -51 l31 -18 0 45 c0 54 -21 49 200 50 l165 1 7 40 c23 126 37 213 37 234 1 21 -2 23 -33 17 l-35 -7 -3 48 c-3 54 2 52 -105 39 -59 -8 -63 -7 -63 13 0 14 5 19 15 15 9 -4 48 -3 89 1 l73 6 -18 64 c-9 35 -15 72 -12 83 6 23 -23 54 -46 48 -9 -2 -37 -7 -63 -11 -47 -6 -48 -6 -48 20 l0 27 80 -4 c44 -2 80 -6 80 -10 0 -10 12 -10 28 0 10 7 8 28 -12 103 l-24 94 -245 3 -245 2 -6 -57 c-3 -32 -8 -146 -12 -253 -10 -286 -19 -322 -27 -105 -4 99 -10 233 -13 298 l-6 117 -114 0 -114 0 0 -80 c0 -44 -3 -80 -7 -80 -8 0 -113 143 -113 154 0 6 -37 46 -42 46 -2 0 -37 -46 -78 -102z m-1608 21 c110 -23 167 -81 155 -157 -7 -41 -29 -68 -77 -92 l-35 -18 49 -23 c150 -70 166 -305 26 -391 -73 -45 -148 -59 -306 -59 -78 0 -153 3 -168 7 l-27 6 7 87 c3 47 11 210 18 361 l11 275 40 6 c70 11 252 9 307 -2z m-1052 -126 c18 -65 68 -226 111 -358 44 -132 79 -241 79 -243 0 -2 -26 -2 -57 0 l-57 3 -21 100 c-30 135 -66 265 -74 265 -8 0 -67 -238 -79 -315 l-7 -50 -135 -3 c-74 -1 -139 -1 -146 2 -8 3 7 60 46 178 32 95 81 250 109 343 29 94 54 176 56 183 3 8 27 12 73 12 l68 0 34 -117z m544 65 c3 -29 8 -141 11 -248 3 -107 8 -246 12 -307 l6 -113 -146 0 -147 0 0 38 c0 20 7 163 15 317 8 154 15 299 15 323 l0 42 114 0 115 0 5 -52z m1246 43 c0 -5 3 -23 6 -40 l7 -31 -92 0 -91 0 0 -80 0 -80 80 0 c44 0 80 -4 80 -9 0 -5 3 -23 6 -40 l7 -31 -80 0 c-44 0 -82 -2 -84 -4 -2 -2 -2 -35 1 -73 l5 -68 88 3 87 3 0 -33 c0 -18 3 -77 7 -130 l6 -98 -231 0 c-127 0 -233 4 -236 8 -2 4 -1 69 4 143 11 165 20 388 20 492 l0 77 205 0 c113 0 205 -4 205 -9z m730 -126 c0 -74 3 -135 8 -135 4 1 52 61 107 136 l100 134 23 -27 c12 -16 58 -79 101 -141 l79 -113 7 140 8 141 61 0 62 0 13 -327 c8 -181 14 -341 15 -358 l1 -30 -106 -3 -105 -3 -42 83 c-57 113 -101 188 -111 188 -12 0 -77 -108 -116 -195 l-35 -76 -117 3 -118 3 1 25 c1 14 7 133 13 265 7 132 14 282 17 333 l6 92 64 0 64 0 0 -135z m1125 113 c13 -64 18 -61 -82 -59 l-93 2 0 -65 c0 -96 0 -96 86 -96 l73 0 9 -32 c5 -18 7 -36 5 -40 -2 -5 -40 -8 -84 -8 l-79 0 0 -52 c0 -100 0 -100 95 -92 l82 6 6 -83 c4 -46 7 -105 7 -131 l0 -48 -230 0 -230 0 0 25 c0 53 20 534 26 613 l6 82 199 0 c198 0 199 0 204 -22z m-1451 -156 c3 -5 8 -28 12 -50 l7 -42 -122 0 -122 0 6 38 c11 65 7 62 114 62 55 0 102 -4 105 -8z"/>
 <path d="M4910 4285 l0 -85 51 0 c43 0 55 5 81 30 25 26 29 36 24 63 -9 49 -48 77 -107 77 l-49 0 0 -85z m99 16 c7 -13 6 -23 -3 -36 -19 -27 -46 -12 -46 25 0 23 4 30 20 30 10 0 24 -8 29 -19z"/>
 <path d="M4920 4078 c0 -93 10 -138 29 -138 35 0 92 22 111 42 13 15 20 35 20 62 -1 66 -36 96 -114 96 l-46 0 0 -62z m100 -2 c16 -20 9 -56 -13 -70 -22 -14 -37 6 -37 52 0 25 4 32 19 32 10 0 24 -7 31 -14z"/>
 <path d="M7839 4494 c-47 -20 -73 -64 -66 -116 6 -48 24 -69 78 -93 35 -16 47 -17 92 -7 29 7 58 13 65 14 6 1 10 4 7 6 -3 3 2 13 11 23 9 10 18 35 21 57 13 99 -98 162 -208 116z m121 -49 c69 -36 35 -118 -50 -118 -51 0 -80 25 -80 67 0 55 70 82 130 51z"/>
 <path d="M7826 4229 c-3 -22 -9 -70 -12 -107 -3 -37 -18 -128 -34 -202 -15 -74 -31 -161 -35 -192 l-6 -58 186 0 187 0 -7 28 c-4 15 -9 44 -11 65 -2 21 -20 106 -39 188 -19 83 -38 182 -41 222 -3 40 -9 75 -12 78 -4 4 -44 9 -88 12 l-82 5 -6 -39z m168 -252 c25 -129 46 -239 46 -245 0 -9 -36 -12 -121 -12 l-121 0 6 28 c3 15 22 125 43 245 l37 217 31 0 32 0 47 -233z"/>
 <path d="M7563 3634 c-6 -16 12 -34 34 -34 15 0 35 35 26 44 -13 12 -54 6 -60 -10z"/>
 <path d="M7650 3639 c0 -6 4 -19 10 -29 11 -21 -10 -34 -47 -31 -27 3 -50 -9 -35 -18 16 -10 2 -63 -15 -57 -14 6 -92 -51 -93 -66 0 -4 21 -30 47 -58 50 -53 69 -54 75 -2 4 34 53 68 112 76 42 7 96 -7 82 -21 -3 -3 -12 -1 -19 6 -26 21 -138 -14 -157 -48 -13 -25 -13 -41 0 -41 6 0 10 6 10 13 0 15 45 57 61 57 5 0 31 -10 57 -21 51 -24 58 -23 54 4 -3 16 0 17 17 7 12 -6 21 -15 21 -20 0 -6 5 -10 10 -10 6 0 10 16 10 36 0 24 4 34 13 31 7 -2 11 -19 10 -41 -2 -30 1 -36 17 -36 28 0 27 49 -1 81 -12 13 -25 34 -30 46 -8 21 -65 54 -101 58 -33 4 -47 15 -63 49 -16 33 -45 56 -45 35z m48 -100 c4 -24 -36 -79 -58 -79 -24 0 -25 18 -6 64 10 25 19 32 37 31 13 -1 25 -8 27 -16z"/>
 <path d="M4127 3613 c-19 -18 19 -48 47 -37 23 9 19 31 -6 38 -29 7 -33 7 -41 -1z"/>
 <path d="M4210 3556 c0 -31 -37 -39 -62 -13 -22 21 -57 24 -39 3 19 -22 -13 -39 -80 -41 -36 -2 -65 -8 -69 -15 -8 -13 17 -118 32 -135 6 -6 17 -1 32 16 30 34 56 40 121 24 61 -14 86 -30 84 -54 -1 -15 -2 -15 -6 0 -5 21 -77 49 -124 49 -22 0 -42 -7 -52 -18 -24 -26 -21 -46 3 -22 12 12 33 20 54 20 28 0 40 -7 60 -33 15 -19 26 -41 26 -50 0 -10 5 -14 15 -11 8 4 15 12 15 20 0 24 18 15 28 -13 l9 -28 20 32 c11 18 23 30 26 26 13 -12 7 -44 -8 -49 -17 -7 -20 -30 -5 -39 5 -3 18 0 30 7 22 14 29 72 10 83 -6 4 -10 22 -8 40 1 21 -5 41 -15 53 -9 10 -17 24 -17 30 0 7 -6 12 -14 12 -29 0 -40 27 -45 113 -2 26 -21 20 -21 -7z m0 -81 c0 -11 -61 -55 -77 -55 -6 0 -16 6 -22 14 -10 11 -5 20 20 44 27 25 34 28 55 18 13 -6 24 -15 24 -21z"/>
 <path d="M5864 3546 c-28 -24 -28 -26 -14 -52 9 -16 31 -32 58 -41 42 -14 42 -14 77 20 19 19 35 38 35 44 0 12 -35 30 -70 36 -14 2 -32 8 -41 11 -11 5 -27 -2 -45 -18z"/>
 <path d="M3811 3491 c-25 -35 -26 -41 -6 -41 13 0 12 -4 -4 -21 -21 -23 -33 -57 -22 -63 3 -2 21 13 39 35 18 21 28 39 23 39 -6 0 -11 5 -11 11 0 5 5 7 10 4 6 -4 18 -4 26 -1 13 5 13 10 -3 36 -22 37 -26 37 -52 1z"/>
 <path d="M6069 3483 c-1 -5 0 -36 1 -70 1 -35 -1 -63 -4 -63 -4 0 -17 7 -30 15 -22 15 -24 14 -36 -15 -16 -38 -39 -41 -32 -3 4 21 2 25 -11 20 -11 -4 -20 1 -27 13 -8 15 -21 20 -55 20 -24 0 -52 -3 -62 -7 -15 -6 -13 -8 12 -13 26 -5 30 -9 28 -34 -1 -15 -14 -43 -28 -61 -28 -38 -31 -51 -12 -58 6 -3 3 -6 -9 -6 -11 -1 -29 8 -39 19 -21 23 -62 26 -89 5 -10 -8 -22 -12 -27 -10 -4 3 -23 -1 -41 -10 -18 -8 -52 -19 -75 -25 -30 -8 -43 -16 -43 -28 0 -24 35 -123 59 -163 10 -19 22 -50 26 -69 24 -116 88 -128 141 -26 29 56 43 69 93 91 43 19 169 19 276 0 98 -17 135 -49 135 -115 0 -22 4 -40 10 -40 16 0 60 -78 54 -95 -4 -10 0 -15 13 -15 19 0 43 36 43 63 0 20 35 97 44 97 19 0 46 -45 46 -77 0 -35 -38 -83 -66 -83 -15 0 -9 -20 16 -57 17 -26 58 -31 65 -8 16 49 15 48 30 35 25 -20 19 83 -9 170 -13 41 -27 95 -31 120 -11 75 -23 96 -68 116 -33 15 -43 26 -47 49 -4 25 -11 31 -40 35 -19 4 -45 12 -57 18 -37 20 -74 77 -78 121 -2 23 -11 66 -20 96 -12 43 -20 55 -35 55 -11 0 -21 -3 -21 -7z m-53 -198 c4 -9 19 -15 38 -15 36 0 53 -9 57 -30 5 -25 -11 -59 -31 -65 -23 -7 -41 -28 -44 -52 -2 -10 -14 -20 -29 -23 -15 -3 -35 -12 -46 -21 -17 -16 -21 -16 -47 2 -16 10 -37 19 -46 19 -20 0 -23 22 -9 49 6 10 35 43 65 74 31 31 56 61 56 67 0 16 30 12 36 -5z"/>
 <path d="M7338 3365 c-2 -20 -2 -37 0 -39 6 -6 72 35 72 45 0 10 -34 29 -53 29 -9 0 -16 -13 -19 -35z"/>
 <path d="M7803 3349 c-25 -9 -30 -25 -10 -32 20 -8 -33 -40 -72 -44 -53 -5 -59 -9 -54 -37 6 -27 22 -33 40 -15 7 7 13 8 17 0 4 -6 15 -3 30 10 13 11 38 28 56 37 41 21 55 54 32 75 -12 10 -24 12 -39 6z"/>
 <path d="M7371 3331 c-8 -5 -11 -16 -8 -24 3 -9 2 -17 -2 -19 -5 -2 -5 -13 0 -26 11 -29 29 -20 29 14 0 14 5 34 10 45 12 21 -3 26 -29 10z"/>
 <path d="M4176 3235 c10 -25 -25 -29 -78 -10 -47 17 -50 17 -63 -1 -20 -27 -18 -34 8 -34 13 0 27 -3 31 -7 9 -9 113 -14 138 -7 42 12 32 74 -12 74 -22 0 -28 -4 -24 -15z"/>
 <path d="M5173 3171 c-28 -30 -38 -45 -39 -56 -1 -31 -18 -65 -35 -70 -23 -8 -24 -18 -3 -36 13 -10 22 -10 47 0 18 7 70 15 116 18 80 6 82 7 57 20 -15 8 -25 20 -23 26 5 15 -48 94 -73 107 -25 13 -27 13 -47 -9z"/>
 <path d="M5211 3001 c-41 -5 -59 -13 -77 -34 -27 -31 -44 -86 -44 -140 0 -36 2 -38 27 -35 22 2 30 11 44 50 9 26 23 53 30 61 8 8 27 31 43 52 17 20 39 41 50 45 20 9 20 9 1 8 -11 0 -44 -4 -74 -7z m-55 -67 c-3 -9 -6 -22 -6 -30 0 -8 -4 -14 -10 -14 -11 0 -14 43 -3 53 12 13 25 7 19 -9z"/>
 <path d="M5865 2995 c-5 -2 -22 -6 -36 -9 -36 -8 -66 -37 -89 -87 -22 -48 -25 -84 -10 -94 6 -3 10 3 10 14 0 56 62 103 177 134 38 10 45 9 65 -10 13 -12 35 -26 51 -32 17 -7 27 -18 27 -31 0 -13 7 -20 19 -20 11 0 22 -9 26 -19 3 -11 15 -23 26 -26 17 -6 20 -14 17 -41 -3 -27 -1 -34 14 -34 65 0 56 190 -11 224 -45 24 -244 45 -286 31z"/>
 <path d="M6140 2690 c13 -8 12 -10 -2 -10 -24 0 -23 -18 3 -39 20 -16 20 -18 4 -34 -9 -9 -23 -17 -31 -17 -8 0 -25 -6 -37 -14 -26 -16 -75 -32 -64 -20 8 9 -57 34 -91 34 -13 0 -33 5 -44 11 -16 8 -31 8 -59 0 -43 -13 -52 -31 -16 -31 20 -1 21 -2 5 -14 -10 -7 -18 -18 -18 -25 0 -6 -4 -11 -10 -11 -5 0 -10 -7 -10 -15 0 -8 5 -15 11 -15 8 0 8 -5 -1 -15 -10 -13 -9 -15 12 -15 13 0 33 7 44 15 10 8 34 15 53 15 27 0 31 -3 22 -14 -6 -7 -8 -21 -5 -30 9 -24 36 1 29 25 -5 16 -1 19 26 19 27 0 30 -2 19 -15 -18 -22 18 -20 43 3 15 13 38 17 103 18 73 0 87 3 104 22 12 12 25 22 30 22 6 0 10 7 10 15 0 8 5 15 10 15 6 0 10 15 10 34 0 24 -9 43 -29 65 -26 27 -35 31 -83 31 -38 0 -49 -3 -38 -10z m-155 -160 c-3 -5 -16 -10 -28 -9 -21 0 -21 1 -2 9 28 12 37 12 30 0z"/>
 </g>
<g id="layer105" fill="#fbfbfb" stroke="none">
 <path d="M6685 4491 c-11 -16 -47 -64 -80 -107 l-59 -79 -8 40 c-4 22 -7 64 -7 93 l-1 52 -113 0 -112 0 3 -110 c3 -82 1 -110 -8 -110 -9 0 -10 -15 -5 -55 l6 -55 -34 0 -35 0 -6 58 c-12 100 2 92 -166 92 -166 0 -160 3 -161 -76 -1 -61 -8 -74 -37 -75 -24 -2 -24 -2 -4 -6 14 -3 22 -12 22 -24 0 -16 7 -19 53 -19 32 -1 60 -7 72 -16 19 -15 14 -16 -65 -11 -50 3 -71 2 -50 -3 139 -30 248 -71 300 -113 60 -48 114 -147 80 -147 -5 0 -10 5 -10 12 0 6 -9 3 -20 -7 -17 -15 -20 -31 -20 -91 0 -76 10 -95 37 -73 11 10 64 15 177 17 l161 4 52 110 c32 67 57 108 65 106 7 -3 36 -53 66 -111 l53 -107 183 0 c211 0 240 -4 254 -34 l11 -21 0 23 c1 20 6 22 54 23 354 3 362 4 363 19 0 8 2 33 3 55 1 28 4 36 10 26 12 -18 27 76 22 136 -3 39 -5 42 -26 37 -22 -5 -24 -3 -27 41 l-3 48 -43 1 c-23 1 -42 -2 -42 -6 0 -5 -20 -8 -45 -8 -40 0 -45 2 -43 23 2 21 6 22 85 23 46 0 86 3 89 6 3 3 -2 33 -11 67 -9 34 -13 66 -10 71 3 6 1 10 -4 10 -6 0 -11 9 -11 21 0 14 -5 19 -14 16 -8 -3 -42 -9 -75 -13 l-60 -6 2 41 c1 26 6 41 14 41 7 0 13 -5 13 -11 0 -7 11 -8 31 -4 38 9 121 -3 114 -16 -3 -5 1 -6 9 -3 20 8 20 9 -5 115 l-21 89 -243 0 -243 0 -7 -137 c-3 -76 -10 -210 -14 -298 -4 -88 -6 -176 -4 -196 3 -21 0 -40 -6 -43 -12 -8 -13 2 -16 169 -1 55 -5 191 -10 303 l-8 202 -113 0 -114 0 0 -85 c0 -49 -4 -85 -10 -85 -5 0 -20 15 -32 33 -13 19 -43 64 -68 100 -25 37 -47 67 -50 67 -3 0 -14 -13 -25 -29z m-194 -138 c0 -54 3 -114 7 -134 l7 -36 100 133 100 134 23 -27 c12 -16 58 -79 102 -142 l79 -114 3 139 3 139 70 0 70 0 6 -240 c4 -132 10 -295 14 -362 l7 -123 -115 0 -115 0 -12 33 c-16 42 -123 237 -130 237 -6 0 -88 -148 -120 -217 l-23 -53 -125 0 -125 0 7 100 c16 231 25 421 26 516 0 55 3 104 7 107 3 4 35 7 70 7 l63 0 1 -97z m1135 45 l12 -48 -99 7 -99 6 0 -29 c0 -16 3 -53 7 -83 l6 -53 74 4 c40 3 75 2 77 -1 2 -3 6 -23 10 -43 l7 -38 -87 0 -87 0 7 -52 c3 -29 6 -62 6 -72 0 -17 6 -18 85 -14 47 3 87 3 89 -1 2 -3 7 -63 10 -133 l8 -128 -243 0 -242 0 7 78 c3 42 11 203 17 357 6 153 13 283 15 287 3 5 96 7 207 6 l201 -3 12 -47z m-1443 -175 c3 -27 3 -51 0 -55 -2 -5 -58 -8 -124 -8 l-119 0 0 33 c0 77 0 77 125 77 l112 0 6 -47z"/>
 <path d="M4696 4499 c-32 -5 -61 -11 -64 -14 -5 -5 -31 -495 -32 -597 0 -35 -4 -58 -11 -58 -7 0 -10 22 -7 63 3 62 -7 343 -19 510 l-6 87 -156 0 -156 0 -12 -62 c-6 -35 -9 -100 -6 -144 3 -50 1 -84 -5 -88 -6 -3 -8 -38 -5 -91 4 -60 2 -89 -7 -100 -8 -10 -10 -29 -6 -56 8 -49 -4 -168 -14 -148 -4 8 -15 39 -25 69 -10 30 -35 105 -56 165 -48 142 -92 286 -94 305 0 9 -4 21 -9 28 -4 6 -5 12 -2 12 3 0 -3 24 -13 53 l-18 52 -105 3 -106 3 -8 -28 c-4 -15 -8 -31 -8 -35 -1 -3 -4 -10 -8 -14 -5 -4 -8 -16 -8 -26 0 -10 -17 -69 -37 -131 -20 -61 -38 -122 -40 -134 -2 -12 -17 -60 -34 -105 -16 -46 -32 -93 -35 -106 -3 -13 -20 -65 -39 -115 -19 -51 -35 -98 -35 -104 0 -10 46 -13 199 -13 224 0 204 -8 217 83 4 32 13 51 25 58 22 11 22 13 42 -81 13 -64 14 -65 48 -66 19 0 82 -1 142 -2 104 -2 107 -3 107 -24 1 -22 1 -23 15 -4 8 11 15 17 15 13 0 -4 11 0 24 8 20 13 47 15 158 12 73 -3 150 -5 171 -6 20 0 37 -4 37 -8 0 -8 242 -9 257 0 4 2 31 8 58 11 28 4 75 19 105 34 58 27 130 88 130 108 0 7 4 15 10 19 5 3 7 -26 3 -78 l-6 -84 283 -1 c155 -1 285 0 289 2 5 4 -15 356 -22 362 -1 1 -36 -1 -77 -6 -83 -9 -90 -7 -90 21 0 17 8 19 91 19 90 0 91 0 85 23 -3 12 -14 55 -23 95 -13 56 -21 71 -33 68 -8 -3 -41 -8 -72 -12 l-58 -6 0 42 c0 36 3 41 18 35 9 -3 45 -7 80 -8 36 -1 66 -7 70 -14 4 -7 13 -9 19 -5 13 8 11 43 -5 83 -6 14 -10 32 -9 40 0 8 -3 29 -8 47 l-7 32 -243 0 -243 0 -6 -72 c-4 -40 -6 -115 -5 -167 l1 -94 -56 5 c-64 5 -75 12 -58 36 92 130 30 249 -155 297 -63 16 -238 18 -337 4z m374 -59 c66 -26 96 -52 110 -96 18 -52 -2 -100 -55 -133 l-43 -27 48 -27 c32 -18 58 -43 77 -75 24 -41 28 -57 28 -127 0 -99 -20 -144 -82 -187 -80 -55 -219 -76 -409 -63 l-107 7 7 162 c17 401 26 569 32 575 11 11 129 19 234 16 78 -2 119 -9 160 -25z m-1119 -32 c24 -86 139 -456 173 -558 20 -57 36 -110 36 -117 0 -9 -18 -13 -59 -13 -59 0 -59 0 -66 33 -27 134 -79 327 -86 315 -12 -21 -57 -199 -64 -253 -14 -104 3 -95 -166 -95 -82 0 -149 3 -149 7 0 5 29 96 64 203 62 189 138 436 152 493 6 26 8 27 80 27 l73 0 12 -42z m563 34 c2 -4 9 -145 15 -312 6 -168 13 -329 14 -357 l4 -53 -149 0 -148 0 0 73 c0 39 7 198 15 352 8 154 15 286 15 293 0 9 30 12 114 12 63 0 117 -4 120 -8z m1250 -9 c2 -10 7 -33 11 -50 l6 -33 -97 7 -97 6 6 -54 c4 -30 7 -67 7 -83 l0 -29 75 5 c42 3 77 2 79 -1 2 -3 6 -23 10 -43 l7 -38 -86 0 c-96 0 -92 5 -78 -95 l6 -48 82 6 83 5 6 -97 c4 -53 9 -113 12 -133 l6 -38 -242 0 -243 0 7 118 c12 216 26 507 26 560 l0 52 204 0 c186 0 205 -2 210 -17z"/>
 <path d="M4914 4309 c3 -34 6 -73 6 -85 0 -20 5 -24 29 -24 16 0 42 5 57 10 98 37 57 160 -53 160 l-46 0 7 -61z m87 11 c25 -14 25 -56 -1 -70 -29 -16 -40 -4 -40 41 0 41 8 46 41 29z"/>
 <path d="M4924 4088 c3 -29 6 -72 6 -95 0 -41 1 -43 31 -43 46 0 96 27 109 60 29 69 -23 130 -109 130 l-44 0 7 -52z m105 -13 c19 -19 6 -64 -22 -74 -32 -12 -37 -6 -37 50 0 48 1 50 23 44 12 -4 28 -13 36 -20z"/>
 <path d="M7855 4495 c-75 -40 -102 -99 -69 -150 30 -46 79 -68 141 -63 49 4 61 10 90 41 47 52 45 91 -6 141 -47 45 -106 57 -156 31z m90 -35 c23 0 55 -42 55 -71 0 -37 -42 -69 -90 -69 -73 0 -118 71 -72 113 23 21 64 37 80 31 8 -2 20 -4 27 -4z"/>
 <path d="M7834 4216 c-1 -24 -5 -53 -9 -63 -4 -10 -8 -34 -10 -53 -2 -30 -33 -209 -63 -372 l-9 -48 182 0 182 0 -14 53 c-7 28 -11 58 -8 65 2 6 -1 12 -6 12 -6 0 -9 9 -6 20 3 11 1 22 -3 25 -5 3 -12 27 -15 53 -3 26 -15 87 -26 136 -11 49 -18 95 -15 102 3 8 0 14 -6 14 -6 0 -8 11 -5 29 9 46 -9 59 -93 66 l-75 7 -1 -46z m114 -12 c6 -2 12 -13 12 -25 0 -12 9 -60 19 -108 11 -47 29 -135 41 -196 12 -60 24 -120 27 -132 5 -23 5 -23 -121 -23 -94 0 -126 3 -126 13 0 6 18 116 40 242 22 127 40 233 40 238 0 6 31 3 68 -9z"/>
 <path d="M7744 3505 c-7 -18 12 -45 32 -45 7 0 15 -8 18 -18 3 -9 15 -23 27 -30 19 -12 20 -12 13 10 -12 40 -54 98 -69 98 -9 0 -18 -7 -21 -15z"/>
 <path d="M7820 3512 c0 -12 28 -48 33 -42 8 8 -11 50 -23 50 -5 0 -10 -4 -10 -8z"/>
 <path d="M7567 3483 c-11 -10 -8 -83 3 -83 6 0 10 13 10 29 0 17 5 33 10 36 6 3 10 10 10 16 0 10 -23 12 -33 2z"/>
 <path d="M4036 3458 c-9 -12 -16 -32 -16 -43 0 -17 3 -16 18 8 9 15 25 30 35 33 9 3 15 10 12 15 -10 16 -33 10 -49 -13z"/>
 <path d="M4225 3410 c-4 -6 -2 -23 3 -38 6 -15 13 -39 16 -54 12 -52 27 -30 24 34 -2 49 -7 63 -20 66 -9 2 -19 -2 -23 -8z"/>
 <path d="M4300 3371 c0 -17 5 -31 10 -31 6 0 10 11 10 24 0 14 -4 28 -10 31 -6 4 -10 -7 -10 -24z"/>
 <path d="M4314 3263 c-13 -20 -13 -25 -2 -16 8 7 18 10 21 6 4 -3 7 3 7 15 0 29 -4 28 -26 -5z"/>
 <path d="M5718 3163 c-37 -59 -48 -91 -48 -133 0 -51 13 -57 39 -17 11 17 25 39 30 47 5 8 12 27 16 42 4 21 14 30 45 39 48 15 52 35 8 44 -18 4 -41 9 -50 11 -12 4 -24 -7 -40 -33z"/>
 <path d="M6190 3117 c-22 -11 -25 -19 -23 -61 1 -49 31 -96 60 -96 9 0 13 -15 13 -48 0 -38 6 -57 31 -90 17 -23 36 -39 41 -36 28 17 -22 313 -56 336 -16 11 -38 9 -66 -5z"/>
 <path d="M6362 3023 c-2 -64 19 -103 45 -82 10 9 13 8 13 -5 0 -9 7 -28 17 -42 31 -48 14 -164 -24 -164 -7 0 -13 -4 -13 -10 0 -5 5 -10 10 -10 6 0 10 -9 10 -20 0 -11 5 -20 10 -20 6 0 10 9 10 20 0 11 10 30 22 42 20 20 20 24 8 87 -7 36 -21 89 -31 116 -11 28 -19 69 -19 91 0 29 -5 44 -16 48 -35 13 -40 7 -42 -51z"/>
 <path d="M6197 2633 c-4 -3 -7 -21 -7 -40 0 -30 2 -33 20 -23 29 16 46 50 29 61 -17 10 -33 11 -42 2z"/>
 </g>

</svg>